STARTFONT 2.1
COMMENT
COMMENT Converted from OpenType font "Q:\font stuff\winfont\FreeSans.ttf" by "otf2bdf 3.0".
COMMENT
FONT -FreeType-FreeSans-Medium-R-Normal--12-120-72-72-P-69-ISO10646-1
SIZE 12 72 72
FONTBOUNDINGBOX 36 19 -14 -5
STARTPROPERTIES 19
FOUNDRY "FreeType"
FAMILY_NAME "FreeSans"
WEIGHT_NAME "Medium"
SLANT "R"
SETWIDTH_NAME "Normal"
ADD_STYLE_NAME ""
PIXEL_SIZE 12
POINT_SIZE 120
RESOLUTION_X 72
RESOLUTION_Y 72
SPACING "P"
AVERAGE_WIDTH 69
CHARSET_REGISTRY "ISO10646"
CHARSET_ENCODING "1"
FONT_ASCENT 10
FONT_DESCENT 2
COPYRIGHT "Copyright 2002, 2003, 2005, 2008, 2009, 2010, 2012 GNU Freefont contributors."
_OTF_FONTFILE "Q:\font stuff\winfont\FreeSans.ttf"
_OTF_PSNAME "FreeSans"
DEFAULT_CHAR 9633
ENDPROPERTIES
CHARS 4472
STARTCHAR 0020
ENCODING 32
SWIDTH 250 0
DWIDTH 3 0
BBX 0 0 0 0
BITMAP
ENDCHAR
STARTCHAR 0021
ENCODING 33
SWIDTH 333 0
DWIDTH 4 0
BBX 1 9 2 0
BITMAP
80
80
80
80
80
80
80
00
80
ENDCHAR
STARTCHAR 0022
ENCODING 34
SWIDTH 333 0
DWIDTH 4 0
BBX 3 3 0 6
BITMAP
A0
A0
A0
ENDCHAR
STARTCHAR 0023
ENCODING 35
SWIDTH 583 0
DWIDTH 7 0
BBX 7 8 0 0
BITMAP
24
24
7E
28
28
FC
48
50
ENDCHAR
STARTCHAR 0024
ENCODING 36
SWIDTH 583 0
DWIDTH 7 0
BBX 5 11 1 -1
BITMAP
20
70
A8
A8
A0
70
28
A8
A8
70
20
ENDCHAR
STARTCHAR 0025
ENCODING 37
SWIDTH 916 0
DWIDTH 11 0
BBX 10 9 0 0
BITMAP
7100
8A00
8A00
8C00
7400
0980
0A40
1240
1180
ENDCHAR
STARTCHAR 0026
ENCODING 38
SWIDTH 666 0
DWIDTH 8 0
BBX 6 9 1 0
BITMAP
30
48
48
30
70
94
88
8C
74
ENDCHAR
STARTCHAR 0027
ENCODING 39
SWIDTH 166 0
DWIDTH 2 0
BBX 1 3 1 6
BITMAP
80
80
80
ENDCHAR
STARTCHAR 0028
ENCODING 40
SWIDTH 333 0
DWIDTH 4 0
BBX 2 10 1 -2
BITMAP
40
80
80
80
80
80
80
80
40
40
ENDCHAR
STARTCHAR 0029
ENCODING 41
SWIDTH 333 0
DWIDTH 4 0
BBX 2 10 1 -2
BITMAP
80
80
40
40
40
40
40
80
80
80
ENDCHAR
STARTCHAR 002A
ENCODING 42
SWIDTH 416 0
DWIDTH 5 0
BBX 3 3 1 6
BITMAP
40
E0
A0
ENDCHAR
STARTCHAR 002B
ENCODING 43
SWIDTH 583 0
DWIDTH 7 0
BBX 5 5 1 0
BITMAP
20
20
F8
20
20
ENDCHAR
STARTCHAR 002C
ENCODING 44
SWIDTH 250 0
DWIDTH 3 0
BBX 1 3 1 -2
BITMAP
80
80
80
ENDCHAR
STARTCHAR 002D
ENCODING 45
SWIDTH 333 0
DWIDTH 4 0
BBX 3 1 1 3
BITMAP
E0
ENDCHAR
STARTCHAR 002E
ENCODING 46
SWIDTH 250 0
DWIDTH 3 0
BBX 1 1 1 0
BITMAP
80
ENDCHAR
STARTCHAR 002F
ENCODING 47
SWIDTH 250 0
DWIDTH 3 0
BBX 3 9 0 0
BITMAP
20
20
40
40
40
40
80
80
80
ENDCHAR
STARTCHAR 0030
ENCODING 48
SWIDTH 583 0
DWIDTH 7 0
BBX 5 9 1 0
BITMAP
70
D8
88
88
88
88
88
D8
70
ENDCHAR
STARTCHAR 0031
ENCODING 49
SWIDTH 583 0
DWIDTH 7 0
BBX 2 9 2 0
BITMAP
40
40
C0
40
40
40
40
40
40
ENDCHAR
STARTCHAR 0032
ENCODING 50
SWIDTH 583 0
DWIDTH 7 0
BBX 5 9 1 0
BITMAP
70
88
08
08
10
20
40
80
F8
ENDCHAR
STARTCHAR 0033
ENCODING 51
SWIDTH 583 0
DWIDTH 7 0
BBX 5 9 1 0
BITMAP
70
88
08
08
30
08
08
88
70
ENDCHAR
STARTCHAR 0034
ENCODING 52
SWIDTH 583 0
DWIDTH 7 0
BBX 5 9 1 0
BITMAP
10
30
30
50
90
90
F8
10
10
ENDCHAR
STARTCHAR 0035
ENCODING 53
SWIDTH 583 0
DWIDTH 7 0
BBX 6 9 0 0
BITMAP
7C
40
40
78
4C
04
04
8C
78
ENDCHAR
STARTCHAR 0036
ENCODING 54
SWIDTH 583 0
DWIDTH 7 0
BBX 5 9 1 0
BITMAP
70
48
80
F0
88
88
88
C8
70
ENDCHAR
STARTCHAR 0037
ENCODING 55
SWIDTH 583 0
DWIDTH 7 0
BBX 5 9 1 0
BITMAP
F8
08
10
10
20
20
20
40
40
ENDCHAR
STARTCHAR 0038
ENCODING 56
SWIDTH 583 0
DWIDTH 7 0
BBX 6 9 0 0
BITMAP
78
84
84
84
78
84
84
84
78
ENDCHAR
STARTCHAR 0039
ENCODING 57
SWIDTH 583 0
DWIDTH 7 0
BBX 6 9 0 0
BITMAP
78
C8
84
84
CC
74
04
88
70
ENDCHAR
STARTCHAR 003A
ENCODING 58
SWIDTH 250 0
DWIDTH 3 0
BBX 1 7 1 0
BITMAP
80
00
00
00
00
00
80
ENDCHAR
STARTCHAR 003B
ENCODING 59
SWIDTH 250 0
DWIDTH 3 0
BBX 1 8 1 -2
BITMAP
80
00
00
00
00
80
80
80
ENDCHAR
STARTCHAR 003C
ENCODING 60
SWIDTH 583 0
DWIDTH 7 0
BBX 5 5 1 1
BITMAP
38
C0
C0
30
08
ENDCHAR
STARTCHAR 003D
ENCODING 61
SWIDTH 583 0
DWIDTH 7 0
BBX 5 3 1 1
BITMAP
F8
00
F8
ENDCHAR
STARTCHAR 003E
ENCODING 62
SWIDTH 583 0
DWIDTH 7 0
BBX 5 5 1 1
BITMAP
E0
18
18
60
80
ENDCHAR
STARTCHAR 003F
ENCODING 63
SWIDTH 583 0
DWIDTH 7 0
BBX 5 9 1 0
BITMAP
70
88
08
08
10
20
20
00
20
ENDCHAR
STARTCHAR 0040
ENCODING 64
SWIDTH 1000 0
DWIDTH 12 0
BBX 11 11 0 -2
BITMAP
0F00
30C0
46E0
8920
9120
9120
9240
CDC0
4000
2000
1F00
ENDCHAR
STARTCHAR 0041
ENCODING 65
SWIDTH 666 0
DWIDTH 8 0
BBX 8 9 0 0
BITMAP
18
18
3C
24
24
7E
42
42
C3
ENDCHAR
STARTCHAR 0042
ENCODING 66
SWIDTH 666 0
DWIDTH 8 0
BBX 6 9 1 0
BITMAP
F8
84
84
84
F8
84
84
84
F8
ENDCHAR
STARTCHAR 0043
ENCODING 67
SWIDTH 750 0
DWIDTH 9 0
BBX 8 9 0 0
BITMAP
3E
41
80
80
80
80
81
43
3E
ENDCHAR
STARTCHAR 0044
ENCODING 68
SWIDTH 666 0
DWIDTH 8 0
BBX 7 9 1 0
BITMAP
F8
84
82
82
82
82
82
84
F8
ENDCHAR
STARTCHAR 0045
ENCODING 69
SWIDTH 666 0
DWIDTH 8 0
BBX 6 9 1 0
BITMAP
FC
80
80
80
F8
80
80
80
FC
ENDCHAR
STARTCHAR 0046
ENCODING 70
SWIDTH 583 0
DWIDTH 7 0
BBX 5 9 1 0
BITMAP
F8
80
80
80
F8
80
80
80
80
ENDCHAR
STARTCHAR 0047
ENCODING 71
SWIDTH 750 0
DWIDTH 9 0
BBX 8 9 0 0
BITMAP
3E
41
80
80
87
81
C1
63
3D
ENDCHAR
STARTCHAR 0048
ENCODING 72
SWIDTH 750 0
DWIDTH 9 0
BBX 7 9 1 0
BITMAP
82
82
82
82
FE
82
82
82
82
ENDCHAR
STARTCHAR 0049
ENCODING 73
SWIDTH 250 0
DWIDTH 3 0
BBX 1 9 1 0
BITMAP
80
80
80
80
80
80
80
80
80
ENDCHAR
STARTCHAR 004A
ENCODING 74
SWIDTH 500 0
DWIDTH 6 0
BBX 5 9 0 0
BITMAP
08
08
08
08
08
08
88
88
70
ENDCHAR
STARTCHAR 004B
ENCODING 75
SWIDTH 666 0
DWIDTH 8 0
BBX 6 9 1 0
BITMAP
84
88
90
A0
F0
90
88
84
84
ENDCHAR
STARTCHAR 004C
ENCODING 76
SWIDTH 583 0
DWIDTH 7 0
BBX 5 9 1 0
BITMAP
80
80
80
80
80
80
80
80
F8
ENDCHAR
STARTCHAR 004D
ENCODING 77
SWIDTH 833 0
DWIDTH 10 0
BBX 8 9 1 0
BITMAP
C3
C3
C3
A5
A5
A5
99
99
99
ENDCHAR
STARTCHAR 004E
ENCODING 78
SWIDTH 750 0
DWIDTH 9 0
BBX 7 9 1 0
BITMAP
C2
C2
A2
A2
92
9A
8A
86
86
ENDCHAR
STARTCHAR 004F
ENCODING 79
SWIDTH 750 0
DWIDTH 9 0
BBX 9 9 0 0
BITMAP
3E00
6300
C180
8080
8080
8080
C180
6300
3E00
ENDCHAR
STARTCHAR 0050
ENCODING 80
SWIDTH 666 0
DWIDTH 8 0
BBX 6 9 1 0
BITMAP
F8
84
84
84
F8
80
80
80
80
ENDCHAR
STARTCHAR 0051
ENCODING 81
SWIDTH 750 0
DWIDTH 9 0
BBX 9 10 0 -1
BITMAP
3E00
6300
C180
8080
8080
8080
C180
6300
3F00
0080
ENDCHAR
STARTCHAR 0052
ENCODING 82
SWIDTH 750 0
DWIDTH 9 0
BBX 7 9 1 0
BITMAP
F8
84
84
84
F8
84
84
84
86
ENDCHAR
STARTCHAR 0053
ENCODING 83
SWIDTH 666 0
DWIDTH 8 0
BBX 6 9 1 0
BITMAP
78
84
80
C0
78
0C
84
C4
78
ENDCHAR
STARTCHAR 0054
ENCODING 84
SWIDTH 666 0
DWIDTH 8 0
BBX 6 9 0 0
BITMAP
FC
10
10
10
10
10
10
10
10
ENDCHAR
STARTCHAR 0055
ENCODING 85
SWIDTH 750 0
DWIDTH 9 0
BBX 7 9 1 0
BITMAP
82
82
82
82
82
82
82
C6
7C
ENDCHAR
STARTCHAR 0056
ENCODING 86
SWIDTH 666 0
DWIDTH 8 0
BBX 7 9 0 0
BITMAP
C2
42
42
64
24
24
38
18
18
ENDCHAR
STARTCHAR 0057
ENCODING 87
SWIDTH 916 0
DWIDTH 11 0
BBX 11 9 0 0
BITMAP
8420
C660
4A40
4A40
4A40
6940
3180
3180
3180
ENDCHAR
STARTCHAR 0058
ENCODING 88
SWIDTH 666 0
DWIDTH 8 0
BBX 6 9 1 0
BITMAP
84
CC
48
30
30
30
48
8C
84
ENDCHAR
STARTCHAR 0059
ENCODING 89
SWIDTH 666 0
DWIDTH 8 0
BBX 7 9 1 0
BITMAP
82
44
44
28
38
10
10
10
10
ENDCHAR
STARTCHAR 005A
ENCODING 90
SWIDTH 583 0
DWIDTH 7 0
BBX 7 9 0 0
BITMAP
7E
06
0C
08
10
30
60
40
FE
ENDCHAR
STARTCHAR 005B
ENCODING 91
SWIDTH 250 0
DWIDTH 3 0
BBX 2 12 1 -3
BITMAP
C0
80
80
80
80
80
80
80
80
80
80
C0
ENDCHAR
STARTCHAR 005C
ENCODING 92
SWIDTH 250 0
DWIDTH 3 0
BBX 3 9 0 0
BITMAP
80
80
80
40
40
40
40
20
20
ENDCHAR
STARTCHAR 005D
ENCODING 93
SWIDTH 250 0
DWIDTH 3 0
BBX 2 12 0 -3
BITMAP
C0
40
40
40
40
40
40
40
40
40
40
C0
ENDCHAR
STARTCHAR 005E
ENCODING 94
SWIDTH 500 0
DWIDTH 6 0
BBX 4 5 1 4
BITMAP
40
60
A0
90
10
ENDCHAR
STARTCHAR 005F
ENCODING 95
SWIDTH 583 0
DWIDTH 7 0
BBX 7 1 0 -2
BITMAP
FE
ENDCHAR
STARTCHAR 0060
ENCODING 96
SWIDTH 250 0
DWIDTH 3 0
BBX 1 1 1 8
BITMAP
80
ENDCHAR
STARTCHAR 0061
ENCODING 97
SWIDTH 583 0
DWIDTH 7 0
BBX 7 7 0 0
BITMAP
78
84
04
3C
C4
8C
76
ENDCHAR
STARTCHAR 0062
ENCODING 98
SWIDTH 583 0
DWIDTH 7 0
BBX 5 9 1 0
BITMAP
80
80
F0
D8
88
88
88
D8
F0
ENDCHAR
STARTCHAR 0063
ENCODING 99
SWIDTH 500 0
DWIDTH 6 0
BBX 6 7 0 0
BITMAP
78
C4
80
80
80
C4
78
ENDCHAR
STARTCHAR 0064
ENCODING 100
SWIDTH 583 0
DWIDTH 7 0
BBX 6 9 0 0
BITMAP
04
04
7C
CC
84
84
84
CC
74
ENDCHAR
STARTCHAR 0065
ENCODING 101
SWIDTH 500 0
DWIDTH 7 0
BBX 6 7 1 0
BITMAP
78
CC
84
FC
80
C4
78
ENDCHAR
STARTCHAR 0066
ENCODING 102
SWIDTH 250 0
DWIDTH 3 0
BBX 3 9 0 0
BITMAP
60
40
E0
40
40
40
40
40
40
ENDCHAR
STARTCHAR 0067
ENCODING 103
SWIDTH 583 0
DWIDTH 7 0
BBX 6 10 0 -3
BITMAP
74
CC
84
84
84
CC
74
04
8C
78
ENDCHAR
STARTCHAR 0068
ENCODING 104
SWIDTH 500 0
DWIDTH 6 0
BBX 5 9 1 0
BITMAP
80
80
B0
C8
88
88
88
88
88
ENDCHAR
STARTCHAR 0069
ENCODING 105
SWIDTH 250 0
DWIDTH 3 0
BBX 1 9 1 0
BITMAP
80
00
80
80
80
80
80
80
80
ENDCHAR
STARTCHAR 006A
ENCODING 106
SWIDTH 250 0
DWIDTH 3 0
BBX 2 12 0 -3
BITMAP
40
00
40
40
40
40
40
40
40
40
40
C0
ENDCHAR
STARTCHAR 006B
ENCODING 107
SWIDTH 500 0
DWIDTH 6 0
BBX 5 9 1 0
BITMAP
80
80
90
B0
E0
E0
90
90
88
ENDCHAR
STARTCHAR 006C
ENCODING 108
SWIDTH 250 0
DWIDTH 3 0
BBX 1 9 1 0
BITMAP
80
80
80
80
80
80
80
80
80
ENDCHAR
STARTCHAR 006D
ENCODING 109
SWIDTH 833 0
DWIDTH 10 0
BBX 8 7 1 0
BITMAP
F7
99
91
91
91
91
91
ENDCHAR
STARTCHAR 006E
ENCODING 110
SWIDTH 500 0
DWIDTH 6 0
BBX 5 7 1 0
BITMAP
B0
C8
88
88
88
88
88
ENDCHAR
STARTCHAR 006F
ENCODING 111
SWIDTH 500 0
DWIDTH 7 0
BBX 6 7 0 0
BITMAP
78
CC
84
84
84
CC
78
ENDCHAR
STARTCHAR 0070
ENCODING 112
SWIDTH 583 0
DWIDTH 7 0
BBX 5 9 1 -2
BITMAP
F0
D8
88
88
88
D8
F0
80
80
ENDCHAR
STARTCHAR 0071
ENCODING 113
SWIDTH 583 0
DWIDTH 7 0
BBX 6 9 0 -2
BITMAP
74
CC
84
84
84
CC
74
04
04
ENDCHAR
STARTCHAR 0072
ENCODING 114
SWIDTH 333 0
DWIDTH 4 0
BBX 3 7 0 0
BITMAP
A0
C0
80
80
80
80
80
ENDCHAR
STARTCHAR 0073
ENCODING 115
SWIDTH 500 0
DWIDTH 6 0
BBX 4 7 1 0
BITMAP
60
90
80
E0
10
90
60
ENDCHAR
STARTCHAR 0074
ENCODING 116
SWIDTH 250 0
DWIDTH 3 0
BBX 3 8 0 0
BITMAP
40
E0
40
40
40
40
40
60
ENDCHAR
STARTCHAR 0075
ENCODING 117
SWIDTH 500 0
DWIDTH 6 0
BBX 5 7 1 0
BITMAP
88
88
88
88
88
98
68
ENDCHAR
STARTCHAR 0076
ENCODING 118
SWIDTH 500 0
DWIDTH 6 0
BBX 6 7 0 0
BITMAP
84
48
48
48
30
30
30
ENDCHAR
STARTCHAR 0077
ENCODING 119
SWIDTH 750 0
DWIDTH 9 0
BBX 8 7 0 0
BITMAP
89
99
59
55
56
66
26
ENDCHAR
STARTCHAR 0078
ENCODING 120
SWIDTH 500 0
DWIDTH 6 0
BBX 5 7 0 0
BITMAP
48
48
30
20
30
48
C8
ENDCHAR
STARTCHAR 0079
ENCODING 121
SWIDTH 500 0
DWIDTH 6 0
BBX 6 10 0 -3
BITMAP
84
48
48
48
30
30
30
20
20
60
ENDCHAR
STARTCHAR 007A
ENCODING 122
SWIDTH 500 0
DWIDTH 6 0
BBX 5 7 0 0
BITMAP
78
08
10
20
60
40
F8
ENDCHAR
STARTCHAR 007B
ENCODING 123
SWIDTH 333 0
DWIDTH 4 0
BBX 3 12 0 -3
BITMAP
60
40
40
40
40
C0
C0
40
40
40
40
60
ENDCHAR
STARTCHAR 007C
ENCODING 124
SWIDTH 250 0
DWIDTH 3 0
BBX 1 11 1 -3
BITMAP
80
80
80
80
80
80
80
80
80
80
80
ENDCHAR
STARTCHAR 007D
ENCODING 125
SWIDTH 333 0
DWIDTH 4 0
BBX 3 12 1 -3
BITMAP
C0
40
40
40
40
60
60
40
40
40
40
C0
ENDCHAR
STARTCHAR 007E
ENCODING 126
SWIDTH 500 0
DWIDTH 6 0
BBX 6 2 0 3
BITMAP
64
9C
ENDCHAR
STARTCHAR 00A0
ENCODING 160
SWIDTH 250 0
DWIDTH 3 0
BBX 0 0 0 0
BITMAP
ENDCHAR
STARTCHAR 00A1
ENCODING 161
SWIDTH 333 0
DWIDTH 4 0
BBX 1 9 1 -3
BITMAP
80
00
80
80
80
80
80
80
80
ENDCHAR
STARTCHAR 00A2
ENCODING 162
SWIDTH 583 0
DWIDTH 7 0
BBX 5 9 1 -1
BITMAP
20
70
A8
A0
A0
A0
A8
70
20
ENDCHAR
STARTCHAR 00A3
ENCODING 163
SWIDTH 583 0
DWIDTH 7 0
BBX 6 9 0 0
BITMAP
38
44
40
40
F0
20
20
70
4C
ENDCHAR
STARTCHAR 00A4
ENCODING 164
SWIDTH 583 0
DWIDTH 7 0
BBX 5 4 1 2
BITMAP
F8
88
88
F8
ENDCHAR
STARTCHAR 00A5
ENCODING 165
SWIDTH 583 0
DWIDTH 7 0
BBX 5 9 1 0
BITMAP
88
88
50
50
60
F8
F8
20
20
ENDCHAR
STARTCHAR 00A6
ENCODING 166
SWIDTH 250 0
DWIDTH 3 0
BBX 1 12 1 -3
BITMAP
80
80
80
80
80
00
00
80
80
80
80
80
ENDCHAR
STARTCHAR 00A7
ENCODING 167
SWIDTH 583 0
DWIDTH 7 0
BBX 5 12 1 -3
BITMAP
30
50
40
E0
90
88
C8
30
10
90
90
60
ENDCHAR
STARTCHAR 00A8
ENCODING 168
SWIDTH 333 0
DWIDTH 4 0
BBX 3 1 0 7
BITMAP
A0
ENDCHAR
STARTCHAR 00A9
ENCODING 169
SWIDTH 833 0
DWIDTH 10 0
BBX 9 9 0 0
BITMAP
3E00
7F00
E380
A080
A080
A280
DD80
6300
3E00
ENDCHAR
STARTCHAR 00AA
ENCODING 170
SWIDTH 333 0
DWIDTH 4 0
BBX 4 5 0 4
BITMAP
70
90
F0
F0
E0
ENDCHAR
STARTCHAR 00AB
ENCODING 171
SWIDTH 500 0
DWIDTH 6 0
BBX 4 4 1 1
BITMAP
40
A0
B0
40
ENDCHAR
STARTCHAR 00AC
ENCODING 172
SWIDTH 583 0
DWIDTH 7 0
BBX 6 3 1 2
BITMAP
FC
04
04
ENDCHAR
STARTCHAR 00AD
ENCODING 173
SWIDTH 333 0
DWIDTH 4 0
BBX 3 1 1 3
BITMAP
E0
ENDCHAR
STARTCHAR 00AE
ENCODING 174
SWIDTH 833 0
DWIDTH 10 0
BBX 9 9 0 0
BITMAP
3E00
7F00
D580
9480
9C80
9480
D580
6300
3E00
ENDCHAR
STARTCHAR 00AF
ENCODING 175
SWIDTH 333 0
DWIDTH 4 0
BBX 3 1 0 8
BITMAP
E0
ENDCHAR
STARTCHAR 00B0
ENCODING 176
SWIDTH 583 0
DWIDTH 7 0
BBX 4 4 2 5
BITMAP
60
90
90
60
ENDCHAR
STARTCHAR 00B1
ENCODING 177
SWIDTH 583 0
DWIDTH 7 0
BBX 5 7 1 0
BITMAP
20
20
F8
20
20
00
F8
ENDCHAR
STARTCHAR 00B2
ENCODING 178
SWIDTH 333 0
DWIDTH 4 0
BBX 4 5 0 5
BITMAP
60
90
30
C0
F0
ENDCHAR
STARTCHAR 00B3
ENCODING 179
SWIDTH 333 0
DWIDTH 4 0
BBX 4 5 0 5
BITMAP
70
90
20
90
70
ENDCHAR
STARTCHAR 00B4
ENCODING 180
SWIDTH 333 0
DWIDTH 4 0
BBX 1 1 1 8
BITMAP
80
ENDCHAR
STARTCHAR 00B5
ENCODING 181
SWIDTH 583 0
DWIDTH 7 0
BBX 6 9 1 -2
BITMAP
88
88
88
88
88
98
EC
80
80
ENDCHAR
STARTCHAR 00B6
ENCODING 182
SWIDTH 500 0
DWIDTH 6 0
BBX 6 10 1 -1
BITMAP
7C
E8
E8
E8
68
28
28
28
28
28
ENDCHAR
STARTCHAR 00B7
ENCODING 183
SWIDTH 250 0
DWIDTH 3 0
BBX 1 1 1 3
BITMAP
80
ENDCHAR
STARTCHAR 00B8
ENCODING 184
SWIDTH 333 0
DWIDTH 4 0
BBX 3 3 1 -3
BITMAP
60
20
E0
ENDCHAR
STARTCHAR 00B9
ENCODING 185
SWIDTH 333 0
DWIDTH 4 0
BBX 2 6 1 4
BITMAP
40
C0
40
40
40
40
ENDCHAR
STARTCHAR 00BA
ENCODING 186
SWIDTH 333 0
DWIDTH 4 0
BBX 4 5 0 4
BITMAP
60
90
90
60
F0
ENDCHAR
STARTCHAR 00BB
ENCODING 187
SWIDTH 500 0
DWIDTH 6 0
BBX 4 4 1 2
BITMAP
20
D0
50
20
ENDCHAR
STARTCHAR 00BC
ENCODING 188
SWIDTH 833 0
DWIDTH 10 0
BBX 10 9 1 -1
BITMAP
4000
C200
4400
4400
4800
0880
1380
23C0
2080
ENDCHAR
STARTCHAR 00BD
ENCODING 189
SWIDTH 833 0
DWIDTH 10 0
BBX 9 9 1 0
BITMAP
4000
C200
4400
4B80
4A80
1080
1100
2200
4380
ENDCHAR
STARTCHAR 00BE
ENCODING 190
SWIDTH 916 0
DWIDTH 11 0
BBX 10 9 0 -1
BITMAP
7100
9200
2200
1400
9800
6880
1380
13C0
0080
ENDCHAR
STARTCHAR 00BF
ENCODING 191
SWIDTH 583 0
DWIDTH 7 0
BBX 5 9 1 -3
BITMAP
20
00
20
20
40
80
80
88
70
ENDCHAR
STARTCHAR 00C0
ENCODING 192
SWIDTH 666 0
DWIDTH 8 0
BBX 8 10 0 0
BITMAP
10
18
18
3C
24
24
7E
42
42
C3
ENDCHAR
STARTCHAR 00C1
ENCODING 193
SWIDTH 666 0
DWIDTH 8 0
BBX 8 10 0 0
BITMAP
08
18
18
3C
24
24
7E
42
42
C3
ENDCHAR
STARTCHAR 00C2
ENCODING 194
SWIDTH 666 0
DWIDTH 8 0
BBX 8 10 0 0
BITMAP
38
18
18
3C
24
24
7E
42
42
C3
ENDCHAR
STARTCHAR 00C3
ENCODING 195
SWIDTH 666 0
DWIDTH 8 0
BBX 8 11 0 1
BITMAP
34
2C
18
18
3C
24
24
7E
42
42
C3
ENDCHAR
STARTCHAR 00C4
ENCODING 196
SWIDTH 666 0
DWIDTH 8 0
BBX 8 10 0 0
BITMAP
28
18
18
3C
24
24
7E
42
42
C3
ENDCHAR
STARTCHAR 00C5
ENCODING 197
SWIDTH 666 0
DWIDTH 8 0
BBX 8 12 0 1
BITMAP
1C
14
08
18
18
3C
24
24
7E
42
42
C3
ENDCHAR
STARTCHAR 00C6
ENCODING 198
SWIDTH 1000 0
DWIDTH 12 0
BBX 10 9 1 0
BITMAP
1FC0
1400
2400
2400
47C0
7C00
4400
8400
87C0
ENDCHAR
STARTCHAR 00C7
ENCODING 199
SWIDTH 750 0
DWIDTH 9 0
BBX 8 12 0 -3
BITMAP
3E
61
C0
80
80
80
C1
63
3E
0C
04
1C
ENDCHAR
STARTCHAR 00C8
ENCODING 200
SWIDTH 666 0
DWIDTH 8 0
BBX 6 10 1 0
BITMAP
20
FC
80
80
80
F8
80
80
80
FC
ENDCHAR
STARTCHAR 00C9
ENCODING 201
SWIDTH 666 0
DWIDTH 8 0
BBX 6 10 1 0
BITMAP
10
FC
80
80
80
F8
80
80
80
FC
ENDCHAR
STARTCHAR 00CA
ENCODING 202
SWIDTH 666 0
DWIDTH 8 0
BBX 6 10 1 0
BITMAP
70
FC
80
80
80
F8
80
80
80
FC
ENDCHAR
STARTCHAR 00CB
ENCODING 203
SWIDTH 666 0
DWIDTH 8 0
BBX 6 10 1 1
BITMAP
50
FC
80
80
80
F8
80
80
80
FC
ENDCHAR
STARTCHAR 00CC
ENCODING 204
SWIDTH 250 0
DWIDTH 3 0
BBX 1 10 1 0
BITMAP
80
80
80
80
80
80
80
80
80
80
ENDCHAR
STARTCHAR 00CD
ENCODING 205
SWIDTH 250 0
DWIDTH 3 0
BBX 1 10 1 0
BITMAP
80
80
80
80
80
80
80
80
80
80
ENDCHAR
STARTCHAR 00CE
ENCODING 206
SWIDTH 333 0
DWIDTH 4 0
BBX 3 10 0 0
BITMAP
E0
40
40
40
40
40
40
40
40
40
ENDCHAR
STARTCHAR 00CF
ENCODING 207
SWIDTH 333 0
DWIDTH 4 0
BBX 3 10 0 0
BITMAP
A0
40
40
40
40
40
40
40
40
40
ENDCHAR
STARTCHAR 00D0
ENCODING 208
SWIDTH 666 0
DWIDTH 8 0
BBX 8 9 0 0
BITMAP
7C
42
41
41
F1
41
41
42
7C
ENDCHAR
STARTCHAR 00D1
ENCODING 209
SWIDTH 750 0
DWIDTH 9 0
BBX 7 11 1 0
BITMAP
20
58
82
C2
A2
A2
92
9A
8A
86
86
ENDCHAR
STARTCHAR 00D2
ENCODING 210
SWIDTH 750 0
DWIDTH 9 0
BBX 9 10 0 0
BITMAP
0800
3E00
6300
C180
8080
8080
8080
C180
6300
3E00
ENDCHAR
STARTCHAR 00D3
ENCODING 211
SWIDTH 750 0
DWIDTH 9 0
BBX 9 10 0 0
BITMAP
0400
3E00
6300
C180
8080
8080
8080
C180
6300
3E00
ENDCHAR
STARTCHAR 00D4
ENCODING 212
SWIDTH 750 0
DWIDTH 9 0
BBX 9 10 0 0
BITMAP
1C00
3E00
6300
C180
8080
8080
8080
C180
6300
3E00
ENDCHAR
STARTCHAR 00D5
ENCODING 213
SWIDTH 750 0
DWIDTH 9 0
BBX 9 11 0 0
BITMAP
1A00
1400
3E00
6300
C180
8080
8080
8080
C180
6300
3E00
ENDCHAR
STARTCHAR 00D6
ENCODING 214
SWIDTH 750 0
DWIDTH 9 0
BBX 9 10 0 1
BITMAP
1400
3E00
6300
C180
8080
8080
8080
C180
6300
3E00
ENDCHAR
STARTCHAR 00D7
ENCODING 215
SWIDTH 583 0
DWIDTH 7 0
BBX 5 4 1 1
BITMAP
88
50
20
50
ENDCHAR
STARTCHAR 00D8
ENCODING 216
SWIDTH 750 0
DWIDTH 9 0
BBX 9 9 0 1
BITMAP
3E80
6300
C380
8480
8880
9080
E180
6300
BE00
ENDCHAR
STARTCHAR 00D9
ENCODING 217
SWIDTH 750 0
DWIDTH 9 0
BBX 7 10 1 0
BITMAP
10
82
82
82
82
82
82
82
C6
7C
ENDCHAR
STARTCHAR 00DA
ENCODING 218
SWIDTH 750 0
DWIDTH 9 0
BBX 7 10 1 0
BITMAP
10
82
82
82
82
82
82
82
C6
7C
ENDCHAR
STARTCHAR 00DB
ENCODING 219
SWIDTH 750 0
DWIDTH 9 0
BBX 7 10 1 0
BITMAP
70
82
82
82
82
82
82
82
C6
7C
ENDCHAR
STARTCHAR 00DC
ENCODING 220
SWIDTH 750 0
DWIDTH 9 0
BBX 7 10 1 0
BITMAP
50
82
82
82
82
82
82
82
C6
7C
ENDCHAR
STARTCHAR 00DD
ENCODING 221
SWIDTH 666 0
DWIDTH 8 0
BBX 7 10 1 0
BITMAP
10
82
44
44
28
38
10
10
10
10
ENDCHAR
STARTCHAR 00DE
ENCODING 222
SWIDTH 666 0
DWIDTH 8 0
BBX 6 9 1 0
BITMAP
80
F8
84
84
84
F8
80
80
80
ENDCHAR
STARTCHAR 00DF
ENCODING 223
SWIDTH 583 0
DWIDTH 7 0
BBX 6 9 1 0
BITMAP
78
84
84
84
88
84
84
84
B8
ENDCHAR
STARTCHAR 00E0
ENCODING 224
SWIDTH 583 0
DWIDTH 7 0
BBX 7 9 0 0
BITMAP
20
00
78
84
04
3C
C4
8C
76
ENDCHAR
STARTCHAR 00E1
ENCODING 225
SWIDTH 583 0
DWIDTH 7 0
BBX 7 7 0 2
BITMAP
78
84
04
3C
C4
8C
76
ENDCHAR
STARTCHAR 00E2
ENCODING 226
SWIDTH 583 0
DWIDTH 7 0
BBX 7 9 0 0
BITMAP
30
00
78
84
04
3C
C4
8C
76
ENDCHAR
STARTCHAR 00E3
ENCODING 227
SWIDTH 583 0
DWIDTH 7 0
BBX 7 9 0 0
BITMAP
20
58
78
84
04
3C
C4
8C
76
ENDCHAR
STARTCHAR 00E4
ENCODING 228
SWIDTH 583 0
DWIDTH 7 0
BBX 7 8 0 1
BITMAP
50
78
84
04
3C
C4
8C
76
ENDCHAR
STARTCHAR 00E5
ENCODING 229
SWIDTH 583 0
DWIDTH 7 0
BBX 7 10 0 0
BITMAP
18
28
18
78
84
04
3C
C4
8C
76
ENDCHAR
STARTCHAR 00E6
ENCODING 230
SWIDTH 833 0
DWIDTH 10 0
BBX 10 7 0 0
BITMAP
7B80
8640
0440
7FC0
8400
8C40
7380
ENDCHAR
STARTCHAR 00E7
ENCODING 231
SWIDTH 500 0
DWIDTH 6 0
BBX 6 10 0 -3
BITMAP
78
C4
80
80
80
C4
78
30
10
70
ENDCHAR
STARTCHAR 00E8
ENCODING 232
SWIDTH 500 0
DWIDTH 6 0
BBX 6 9 0 0
BITMAP
20
00
78
CC
84
FC
80
C4
78
ENDCHAR
STARTCHAR 00E9
ENCODING 233
SWIDTH 500 0
DWIDTH 6 0
BBX 6 9 0 0
BITMAP
10
00
78
CC
84
FC
80
C4
78
ENDCHAR
STARTCHAR 00EA
ENCODING 234
SWIDTH 500 0
DWIDTH 6 0
BBX 6 9 0 0
BITMAP
30
00
78
CC
84
FC
80
C4
78
ENDCHAR
STARTCHAR 00EB
ENCODING 235
SWIDTH 500 0
DWIDTH 6 0
BBX 6 8 0 1
BITMAP
50
78
CC
84
FC
80
C4
78
ENDCHAR
STARTCHAR 00EC
ENCODING 236
SWIDTH 250 0
DWIDTH 3 0
BBX 2 9 0 0
BITMAP
80
00
40
40
40
40
40
40
40
ENDCHAR
STARTCHAR 00ED
ENCODING 237
SWIDTH 250 0
DWIDTH 3 0
BBX 2 9 0 0
BITMAP
80
00
40
40
40
40
40
40
40
ENDCHAR
STARTCHAR 00EE
ENCODING 238
SWIDTH 250 0
DWIDTH 3 0
BBX 2 9 0 0
BITMAP
C0
00
40
40
40
40
40
40
40
ENDCHAR
STARTCHAR 00EF
ENCODING 239
SWIDTH 250 0
DWIDTH 3 0
BBX 3 8 0 1
BITMAP
A0
40
40
40
40
40
40
40
ENDCHAR
STARTCHAR 00F0
ENCODING 240
SWIDTH 500 0
DWIDTH 6 0
BBX 6 9 0 1
BITMAP
70
10
78
CC
84
84
84
CC
78
ENDCHAR
STARTCHAR 00F1
ENCODING 241
SWIDTH 500 0
DWIDTH 6 0
BBX 5 9 1 0
BITMAP
40
B0
B0
C8
88
88
88
88
88
ENDCHAR
STARTCHAR 00F2
ENCODING 242
SWIDTH 500 0
DWIDTH 6 0
BBX 6 9 0 0
BITMAP
20
00
78
CC
84
84
84
CC
78
ENDCHAR
STARTCHAR 00F3
ENCODING 243
SWIDTH 500 0
DWIDTH 6 0
BBX 6 7 0 2
BITMAP
78
CC
84
84
84
CC
78
ENDCHAR
STARTCHAR 00F4
ENCODING 244
SWIDTH 500 0
DWIDTH 6 0
BBX 6 9 0 0
BITMAP
30
00
78
CC
84
84
84
CC
78
ENDCHAR
STARTCHAR 00F5
ENCODING 245
SWIDTH 500 0
DWIDTH 6 0
BBX 6 9 0 0
BITMAP
28
58
78
CC
84
84
84
CC
78
ENDCHAR
STARTCHAR 00F6
ENCODING 246
SWIDTH 500 0
DWIDTH 6 0
BBX 6 8 0 1
BITMAP
50
78
CC
84
84
84
CC
78
ENDCHAR
STARTCHAR 00F7
ENCODING 247
SWIDTH 583 0
DWIDTH 7 0
BBX 5 5 1 0
BITMAP
20
00
F8
00
20
ENDCHAR
STARTCHAR 00F8
ENCODING 248
SWIDTH 500 0
DWIDTH 6 0
BBX 6 7 0 -1
BITMAP
7C
CC
94
A4
C4
CC
F8
ENDCHAR
STARTCHAR 00F9
ENCODING 249
SWIDTH 500 0
DWIDTH 6 0
BBX 5 9 1 0
BITMAP
40
00
88
88
88
88
88
98
68
ENDCHAR
STARTCHAR 00FA
ENCODING 250
SWIDTH 500 0
DWIDTH 6 0
BBX 5 9 1 0
BITMAP
20
00
88
88
88
88
88
98
68
ENDCHAR
STARTCHAR 00FB
ENCODING 251
SWIDTH 500 0
DWIDTH 6 0
BBX 5 9 1 0
BITMAP
60
00
88
88
88
88
88
98
68
ENDCHAR
STARTCHAR 00FC
ENCODING 252
SWIDTH 500 0
DWIDTH 6 0
BBX 5 8 1 1
BITMAP
A0
88
88
88
88
88
98
68
ENDCHAR
STARTCHAR 00FD
ENCODING 253
SWIDTH 500 0
DWIDTH 6 0
BBX 6 10 0 -1
BITMAP
84
48
48
48
30
30
30
20
20
60
ENDCHAR
STARTCHAR 00FE
ENCODING 254
SWIDTH 583 0
DWIDTH 7 0
BBX 5 11 1 -2
BITMAP
80
80
F0
D8
88
88
88
D8
F0
80
80
ENDCHAR
STARTCHAR 00FF
ENCODING 255
SWIDTH 500 0
DWIDTH 6 0
BBX 6 11 0 -2
BITMAP
50
84
48
48
48
30
30
30
20
20
60
ENDCHAR
STARTCHAR 0100
ENCODING 256
SWIDTH 666 0
DWIDTH 8 0
BBX 8 11 0 1
BITMAP
38
00
18
18
3C
24
24
7E
42
42
C3
ENDCHAR
STARTCHAR 0101
ENCODING 257
SWIDTH 583 0
DWIDTH 7 0
BBX 7 9 0 0
BITMAP
70
00
78
84
04
3C
C4
8C
76
ENDCHAR
STARTCHAR 0102
ENCODING 258
SWIDTH 666 0
DWIDTH 8 0
BBX 8 11 0 1
BITMAP
24
18
18
18
3C
24
24
7E
42
42
C3
ENDCHAR
STARTCHAR 0103
ENCODING 259
SWIDTH 583 0
DWIDTH 7 0
BBX 7 9 0 0
BITMAP
48
38
78
84
04
3C
C4
8C
76
ENDCHAR
STARTCHAR 0104
ENCODING 260
SWIDTH 666 0
DWIDTH 8 0
BBX 8 11 1 -2
BITMAP
30
38
28
48
4C
7C
84
86
82
04
07
ENDCHAR
STARTCHAR 0105
ENCODING 261
SWIDTH 583 0
DWIDTH 7 0
BBX 8 9 0 -2
BITMAP
78
84
04
3C
C4
8C
76
04
07
ENDCHAR
STARTCHAR 0106
ENCODING 262
SWIDTH 750 0
DWIDTH 9 0
BBX 8 10 0 0
BITMAP
08
3E
41
80
80
80
80
81
43
3E
ENDCHAR
STARTCHAR 0107
ENCODING 263
SWIDTH 500 0
DWIDTH 6 0
BBX 6 7 0 2
BITMAP
78
C4
80
80
80
C4
78
ENDCHAR
STARTCHAR 0108
ENCODING 264
SWIDTH 750 0
DWIDTH 9 0
BBX 8 10 0 0
BITMAP
1C
3E
41
80
80
80
80
81
43
3E
ENDCHAR
STARTCHAR 0109
ENCODING 265
SWIDTH 500 0
DWIDTH 6 0
BBX 6 9 0 0
BITMAP
20
00
78
C4
80
80
80
C4
78
ENDCHAR
STARTCHAR 010A
ENCODING 266
SWIDTH 750 0
DWIDTH 9 0
BBX 8 10 0 1
BITMAP
08
3E
41
80
80
80
80
81
43
3E
ENDCHAR
STARTCHAR 010B
ENCODING 267
SWIDTH 500 0
DWIDTH 6 0
BBX 6 8 0 1
BITMAP
20
78
C4
80
80
80
C4
78
ENDCHAR
STARTCHAR 010C
ENCODING 268
SWIDTH 750 0
DWIDTH 9 0
BBX 8 11 0 0
BITMAP
0E
00
3E
41
80
80
80
80
81
43
3E
ENDCHAR
STARTCHAR 010D
ENCODING 269
SWIDTH 500 0
DWIDTH 6 0
BBX 6 9 0 0
BITMAP
10
20
78
C4
80
80
80
C4
78
ENDCHAR
STARTCHAR 010E
ENCODING 270
SWIDTH 666 0
DWIDTH 8 0
BBX 7 11 1 0
BITMAP
38
00
F8
84
82
82
82
82
82
84
F8
ENDCHAR
STARTCHAR 010F
ENCODING 271
SWIDTH 750 0
DWIDTH 9 0
BBX 7 9 0 0
BITMAP
06
04
7C
CC
84
84
84
CC
74
ENDCHAR
STARTCHAR 0110
ENCODING 272
SWIDTH 666 0
DWIDTH 8 0
BBX 8 9 0 0
BITMAP
7C
42
41
41
F1
41
41
42
7C
ENDCHAR
STARTCHAR 0111
ENCODING 273
SWIDTH 583 0
DWIDTH 7 0
BBX 7 9 0 0
BITMAP
04
0E
74
CC
84
84
84
CC
74
ENDCHAR
STARTCHAR 0112
ENCODING 274
SWIDTH 666 0
DWIDTH 8 0
BBX 6 11 1 1
BITMAP
70
00
FC
80
80
80
F8
80
80
80
FC
ENDCHAR
STARTCHAR 0113
ENCODING 275
SWIDTH 500 0
DWIDTH 6 0
BBX 6 9 0 0
BITMAP
70
00
78
CC
84
FC
80
C4
78
ENDCHAR
STARTCHAR 0114
ENCODING 276
SWIDTH 666 0
DWIDTH 8 0
BBX 6 11 1 1
BITMAP
48
38
FC
80
80
80
F8
80
80
80
FC
ENDCHAR
STARTCHAR 0115
ENCODING 277
SWIDTH 500 0
DWIDTH 6 0
BBX 6 9 0 0
BITMAP
48
38
78
CC
84
FC
80
C4
78
ENDCHAR
STARTCHAR 0116
ENCODING 278
SWIDTH 666 0
DWIDTH 8 0
BBX 6 10 1 1
BITMAP
20
FC
80
80
80
F8
80
80
80
FC
ENDCHAR
STARTCHAR 0117
ENCODING 279
SWIDTH 500 0
DWIDTH 6 0
BBX 6 8 0 1
BITMAP
20
78
CC
84
FC
80
C4
78
ENDCHAR
STARTCHAR 0118
ENCODING 280
SWIDTH 666 0
DWIDTH 8 0
BBX 7 11 1 -2
BITMAP
FC
80
80
80
FC
80
80
80
FC
08
0E
ENDCHAR
STARTCHAR 0119
ENCODING 281
SWIDTH 500 0
DWIDTH 6 0
BBX 6 9 0 -2
BITMAP
78
CC
84
FC
80
CC
78
10
1C
ENDCHAR
STARTCHAR 011A
ENCODING 282
SWIDTH 666 0
DWIDTH 8 0
BBX 6 11 1 0
BITMAP
38
00
FC
80
80
80
F8
80
80
80
FC
ENDCHAR
STARTCHAR 011B
ENCODING 283
SWIDTH 500 0
DWIDTH 6 0
BBX 6 9 0 0
BITMAP
30
00
78
CC
84
FC
80
C4
78
ENDCHAR
STARTCHAR 011C
ENCODING 284
SWIDTH 750 0
DWIDTH 9 0
BBX 8 10 0 0
BITMAP
1C
3E
41
80
80
87
81
C1
63
3D
ENDCHAR
STARTCHAR 011D
ENCODING 285
SWIDTH 583 0
DWIDTH 7 0
BBX 6 12 0 -3
BITMAP
30
00
74
CC
84
84
84
CC
74
04
8C
78
ENDCHAR
STARTCHAR 011E
ENCODING 286
SWIDTH 750 0
DWIDTH 9 0
BBX 8 11 0 1
BITMAP
12
1C
3E
41
80
80
87
81
C1
63
3D
ENDCHAR
STARTCHAR 011F
ENCODING 287
SWIDTH 583 0
DWIDTH 7 0
BBX 6 12 0 -3
BITMAP
48
38
74
CC
84
84
84
CC
74
04
8C
78
ENDCHAR
STARTCHAR 0120
ENCODING 288
SWIDTH 750 0
DWIDTH 9 0
BBX 8 10 0 1
BITMAP
08
3E
41
80
80
87
81
C1
63
3D
ENDCHAR
STARTCHAR 0121
ENCODING 289
SWIDTH 583 0
DWIDTH 7 0
BBX 6 11 0 -2
BITMAP
20
74
CC
84
84
84
CC
74
04
8C
78
ENDCHAR
STARTCHAR 0122
ENCODING 290
SWIDTH 750 0
DWIDTH 9 0
BBX 8 13 0 -4
BITMAP
3E
41
80
80
87
81
C1
63
3D
00
08
08
08
ENDCHAR
STARTCHAR 0123
ENCODING 291
SWIDTH 583 0
DWIDTH 7 0
BBX 6 12 0 -3
BITMAP
20
20
74
CC
84
84
84
CC
74
04
8C
78
ENDCHAR
STARTCHAR 0124
ENCODING 292
SWIDTH 750 0
DWIDTH 9 0
BBX 7 10 1 0
BITMAP
70
82
82
82
82
FE
82
82
82
82
ENDCHAR
STARTCHAR 0125
ENCODING 293
SWIDTH 500 0
DWIDTH 6 0
BBX 5 11 1 0
BITMAP
60
00
80
80
B0
C8
88
88
88
88
88
ENDCHAR
STARTCHAR 0126
ENCODING 294
SWIDTH 750 0
DWIDTH 9 0
BBX 9 9 0 0
BITMAP
4100
4100
FF80
4100
7F00
4100
4100
4100
4100
ENDCHAR
STARTCHAR 0127
ENCODING 295
SWIDTH 583 0
DWIDTH 7 0
BBX 6 9 0 0
BITMAP
40
E0
58
64
44
44
44
44
44
ENDCHAR
STARTCHAR 0128
ENCODING 296
SWIDTH 333 0
DWIDTH 4 0
BBX 4 11 0 0
BITMAP
D0
B0
40
40
40
40
40
40
40
40
40
ENDCHAR
STARTCHAR 0129
ENCODING 297
SWIDTH 250 0
DWIDTH 3 0
BBX 4 9 0 0
BITMAP
90
E0
40
40
40
40
40
40
40
ENDCHAR
STARTCHAR 012A
ENCODING 298
SWIDTH 250 0
DWIDTH 3 0
BBX 3 11 0 1
BITMAP
E0
00
40
40
40
40
40
40
40
40
40
ENDCHAR
STARTCHAR 012B
ENCODING 299
SWIDTH 250 0
DWIDTH 3 0
BBX 3 9 0 0
BITMAP
E0
00
40
40
40
40
40
40
40
ENDCHAR
STARTCHAR 012C
ENCODING 300
SWIDTH 333 0
DWIDTH 4 0
BBX 4 11 0 1
BITMAP
90
E0
40
40
40
40
40
40
40
40
40
ENDCHAR
STARTCHAR 012D
ENCODING 301
SWIDTH 250 0
DWIDTH 3 0
BBX 4 9 0 0
BITMAP
90
E0
40
40
40
40
40
40
40
ENDCHAR
STARTCHAR 012E
ENCODING 302
SWIDTH 250 0
DWIDTH 3 0
BBX 3 11 0 -2
BITMAP
40
40
40
40
40
40
40
40
40
80
E0
ENDCHAR
STARTCHAR 012F
ENCODING 303
SWIDTH 250 0
DWIDTH 3 0
BBX 2 11 0 -2
BITMAP
40
00
40
40
40
40
40
40
80
80
C0
ENDCHAR
STARTCHAR 0130
ENCODING 304
SWIDTH 250 0
DWIDTH 3 0
BBX 1 10 1 0
BITMAP
80
80
80
80
80
80
80
80
80
80
ENDCHAR
STARTCHAR 0131
ENCODING 305
SWIDTH 250 0
DWIDTH 3 0
BBX 1 7 1 0
BITMAP
80
80
80
80
80
80
80
ENDCHAR
STARTCHAR 0132
ENCODING 306
SWIDTH 750 0
DWIDTH 9 0
BBX 7 9 1 0
BITMAP
82
82
82
82
82
82
A2
A6
9C
ENDCHAR
STARTCHAR 0133
ENCODING 307
SWIDTH 416 0
DWIDTH 5 0
BBX 3 12 1 -3
BITMAP
A0
00
A0
A0
A0
A0
A0
A0
A0
20
20
60
ENDCHAR
STARTCHAR 0134
ENCODING 308
SWIDTH 500 0
DWIDTH 6 0
BBX 6 10 0 0
BITMAP
1C
08
08
08
08
08
08
88
88
70
ENDCHAR
STARTCHAR 0135
ENCODING 309
SWIDTH 250 0
DWIDTH 3 0
BBX 2 12 0 -3
BITMAP
C0
00
40
40
40
40
40
40
40
40
40
C0
ENDCHAR
STARTCHAR 0136
ENCODING 310
SWIDTH 666 0
DWIDTH 8 0
BBX 6 13 1 -4
BITMAP
84
88
90
A0
F0
90
88
84
84
00
10
10
10
ENDCHAR
STARTCHAR 0137
ENCODING 311
SWIDTH 500 0
DWIDTH 6 0
BBX 5 13 1 -4
BITMAP
80
80
90
B0
E0
E0
90
90
88
00
20
20
20
ENDCHAR
STARTCHAR 0138
ENCODING 312
SWIDTH 500 0
DWIDTH 6 0
BBX 5 7 1 0
BITMAP
90
B0
E0
C0
E0
B0
88
ENDCHAR
STARTCHAR 0139
ENCODING 313
SWIDTH 583 0
DWIDTH 7 0
BBX 5 10 1 0
BITMAP
40
80
80
80
80
80
80
80
80
F8
ENDCHAR
STARTCHAR 013A
ENCODING 314
SWIDTH 250 0
DWIDTH 3 0
BBX 1 10 1 0
BITMAP
80
80
80
80
80
80
80
80
80
80
ENDCHAR
STARTCHAR 013B
ENCODING 315
SWIDTH 583 0
DWIDTH 7 0
BBX 5 13 1 -4
BITMAP
80
80
80
80
80
80
80
80
F8
00
20
20
20
ENDCHAR
STARTCHAR 013C
ENCODING 316
SWIDTH 250 0
DWIDTH 3 0
BBX 1 13 1 -4
BITMAP
80
80
80
80
80
80
80
80
80
00
80
80
80
ENDCHAR
STARTCHAR 013D
ENCODING 317
SWIDTH 583 0
DWIDTH 7 0
BBX 5 9 1 0
BITMAP
A0
80
80
80
80
80
80
80
F8
ENDCHAR
STARTCHAR 013E
ENCODING 318
SWIDTH 416 0
DWIDTH 5 0
BBX 2 9 1 0
BITMAP
C0
80
80
80
80
80
80
80
80
ENDCHAR
STARTCHAR 013F
ENCODING 319
SWIDTH 583 0
DWIDTH 7 0
BBX 5 9 1 0
BITMAP
80
80
80
80
80
80
88
80
F8
ENDCHAR
STARTCHAR 0140
ENCODING 320
SWIDTH 333 0
DWIDTH 4 0
BBX 2 9 1 0
BITMAP
80
80
80
80
80
80
C0
80
80
ENDCHAR
STARTCHAR 0141
ENCODING 321
SWIDTH 583 0
DWIDTH 7 0
BBX 6 9 0 0
BITMAP
40
40
50
60
40
C0
40
40
7C
ENDCHAR
STARTCHAR 0142
ENCODING 322
SWIDTH 250 0
DWIDTH 3 0
BBX 2 9 1 0
BITMAP
80
80
80
C0
80
80
80
80
80
ENDCHAR
STARTCHAR 0143
ENCODING 323
SWIDTH 750 0
DWIDTH 9 0
BBX 7 10 1 0
BITMAP
10
82
C2
A2
A2
92
9A
8A
86
86
ENDCHAR
STARTCHAR 0144
ENCODING 324
SWIDTH 500 0
DWIDTH 6 0
BBX 5 9 1 0
BITMAP
20
00
B0
C8
88
88
88
88
88
ENDCHAR
STARTCHAR 0145
ENCODING 325
SWIDTH 750 0
DWIDTH 9 0
BBX 7 13 1 -4
BITMAP
C2
C2
A2
A2
92
9A
8A
86
86
00
10
10
10
ENDCHAR
STARTCHAR 0146
ENCODING 326
SWIDTH 500 0
DWIDTH 6 0
BBX 5 11 1 -4
BITMAP
B0
C8
88
88
88
88
88
00
20
20
20
ENDCHAR
STARTCHAR 0147
ENCODING 327
SWIDTH 750 0
DWIDTH 9 0
BBX 7 11 1 0
BITMAP
38
00
82
C2
A2
A2
92
9A
8A
86
86
ENDCHAR
STARTCHAR 0148
ENCODING 328
SWIDTH 500 0
DWIDTH 6 0
BBX 5 9 1 0
BITMAP
60
00
B0
C8
88
88
88
88
88
ENDCHAR
STARTCHAR 0149
ENCODING 329
SWIDTH 666 0
DWIDTH 8 0
BBX 6 9 1 0
BITMAP
80
80
DC
E4
44
44
44
44
44
ENDCHAR
STARTCHAR 014A
ENCODING 330
SWIDTH 666 0
DWIDTH 8 0
BBX 7 9 1 0
BITMAP
B8
C4
82
82
82
82
82
84
B8
ENDCHAR
STARTCHAR 014B
ENCODING 331
SWIDTH 500 0
DWIDTH 6 0
BBX 5 10 1 -3
BITMAP
B0
C8
88
88
88
88
88
08
08
18
ENDCHAR
STARTCHAR 014C
ENCODING 332
SWIDTH 750 0
DWIDTH 9 0
BBX 9 11 0 1
BITMAP
1C00
0000
3E00
6300
C180
8080
8080
8080
C180
6300
3E00
ENDCHAR
STARTCHAR 014D
ENCODING 333
SWIDTH 500 0
DWIDTH 6 0
BBX 6 9 0 0
BITMAP
70
00
78
CC
84
84
84
CC
78
ENDCHAR
STARTCHAR 014E
ENCODING 334
SWIDTH 750 0
DWIDTH 9 0
BBX 9 11 0 1
BITMAP
1200
1C00
3E00
6300
C180
8080
8080
8080
C180
6300
3E00
ENDCHAR
STARTCHAR 014F
ENCODING 335
SWIDTH 500 0
DWIDTH 6 0
BBX 6 9 0 0
BITMAP
48
38
78
CC
84
84
84
CC
78
ENDCHAR
STARTCHAR 0150
ENCODING 336
SWIDTH 750 0
DWIDTH 9 0
BBX 9 10 0 0
BITMAP
1400
3E00
6300
C180
8080
8080
8080
C180
6300
3E00
ENDCHAR
STARTCHAR 0151
ENCODING 337
SWIDTH 500 0
DWIDTH 6 0
BBX 6 9 0 0
BITMAP
28
00
78
CC
84
84
84
CC
78
ENDCHAR
STARTCHAR 0152
ENCODING 338
SWIDTH 1000 0
DWIDTH 12 0
BBX 11 9 0 0
BITMAP
3BE0
4600
8200
8200
83E0
8200
8200
4600
3BE0
ENDCHAR
STARTCHAR 0153
ENCODING 339
SWIDTH 916 0
DWIDTH 11 0
BBX 11 7 0 0
BITMAP
7BC0
CE60
8420
87E0
8400
CE20
7BC0
ENDCHAR
STARTCHAR 0154
ENCODING 340
SWIDTH 750 0
DWIDTH 9 0
BBX 7 10 1 0
BITMAP
10
F8
84
84
84
F8
84
84
84
86
ENDCHAR
STARTCHAR 0155
ENCODING 341
SWIDTH 333 0
DWIDTH 4 0
BBX 3 9 1 0
BITMAP
40
00
A0
C0
80
80
80
80
80
ENDCHAR
STARTCHAR 0156
ENCODING 342
SWIDTH 750 0
DWIDTH 9 0
BBX 7 13 1 -4
BITMAP
F8
84
84
84
F8
84
84
84
86
00
10
10
10
ENDCHAR
STARTCHAR 0157
ENCODING 343
SWIDTH 333 0
DWIDTH 4 0
BBX 3 11 1 -4
BITMAP
A0
C0
80
80
80
80
80
00
80
80
80
ENDCHAR
STARTCHAR 0158
ENCODING 344
SWIDTH 750 0
DWIDTH 9 0
BBX 7 11 1 0
BITMAP
38
00
F8
84
84
84
F8
84
84
84
86
ENDCHAR
STARTCHAR 0159
ENCODING 345
SWIDTH 333 0
DWIDTH 4 0
BBX 3 9 1 0
BITMAP
C0
00
A0
C0
80
80
80
80
80
ENDCHAR
STARTCHAR 015A
ENCODING 346
SWIDTH 666 0
DWIDTH 8 0
BBX 6 10 1 0
BITMAP
10
78
84
80
C0
78
0C
84
C4
78
ENDCHAR
STARTCHAR 015B
ENCODING 347
SWIDTH 500 0
DWIDTH 6 0
BBX 4 9 1 0
BITMAP
40
00
60
90
80
E0
10
90
60
ENDCHAR
STARTCHAR 015C
ENCODING 348
SWIDTH 666 0
DWIDTH 8 0
BBX 6 10 1 0
BITMAP
70
78
84
80
C0
78
0C
84
C4
78
ENDCHAR
STARTCHAR 015D
ENCODING 349
SWIDTH 500 0
DWIDTH 6 0
BBX 4 9 1 0
BITMAP
40
00
60
90
80
E0
10
90
60
ENDCHAR
STARTCHAR 015E
ENCODING 350
SWIDTH 666 0
DWIDTH 8 0
BBX 6 12 1 -3
BITMAP
78
84
80
C0
78
0C
84
C4
78
30
10
30
ENDCHAR
STARTCHAR 015F
ENCODING 351
SWIDTH 500 0
DWIDTH 6 0
BBX 4 10 1 -3
BITMAP
60
90
80
E0
10
90
60
60
20
60
ENDCHAR
STARTCHAR 0160
ENCODING 352
SWIDTH 666 0
DWIDTH 8 0
BBX 6 11 1 0
BITMAP
38
00
78
84
80
C0
78
0C
84
C4
78
ENDCHAR
STARTCHAR 0161
ENCODING 353
SWIDTH 500 0
DWIDTH 6 0
BBX 4 9 1 0
BITMAP
A0
40
60
90
80
E0
10
90
60
ENDCHAR
STARTCHAR 0162
ENCODING 354
SWIDTH 666 0
DWIDTH 8 0
BBX 6 12 0 -3
BITMAP
FC
10
10
10
10
10
10
10
10
18
08
38
ENDCHAR
STARTCHAR 0163
ENCODING 355
SWIDTH 250 0
DWIDTH 3 0
BBX 4 11 0 -3
BITMAP
40
E0
40
40
40
40
40
60
30
10
70
ENDCHAR
STARTCHAR 0164
ENCODING 356
SWIDTH 666 0
DWIDTH 8 0
BBX 6 11 0 0
BITMAP
1C
00
FC
10
10
10
10
10
10
10
10
ENDCHAR
STARTCHAR 0165
ENCODING 357
SWIDTH 416 0
DWIDTH 5 0
BBX 4 9 0 0
BITMAP
10
40
E0
40
40
40
40
40
60
ENDCHAR
STARTCHAR 0166
ENCODING 358
SWIDTH 666 0
DWIDTH 8 0
BBX 6 9 0 0
BITMAP
FC
10
10
10
38
10
10
10
10
ENDCHAR
STARTCHAR 0167
ENCODING 359
SWIDTH 250 0
DWIDTH 3 0
BBX 3 8 0 0
BITMAP
40
E0
40
40
E0
40
40
60
ENDCHAR
STARTCHAR 0168
ENCODING 360
SWIDTH 750 0
DWIDTH 9 0
BBX 7 11 1 0
BITMAP
20
18
82
82
82
82
82
82
82
C6
7C
ENDCHAR
STARTCHAR 0169
ENCODING 361
SWIDTH 500 0
DWIDTH 6 0
BBX 5 9 1 0
BITMAP
40
B0
88
88
88
88
88
98
68
ENDCHAR
STARTCHAR 016A
ENCODING 362
SWIDTH 750 0
DWIDTH 9 0
BBX 7 11 1 1
BITMAP
70
00
82
82
82
82
82
82
82
C6
7C
ENDCHAR
STARTCHAR 016B
ENCODING 363
SWIDTH 500 0
DWIDTH 6 0
BBX 5 9 1 0
BITMAP
E0
00
88
88
88
88
88
98
68
ENDCHAR
STARTCHAR 016C
ENCODING 364
SWIDTH 750 0
DWIDTH 9 0
BBX 7 11 1 1
BITMAP
68
38
82
82
82
82
82
82
82
C6
7C
ENDCHAR
STARTCHAR 016D
ENCODING 365
SWIDTH 500 0
DWIDTH 6 0
BBX 5 9 1 0
BITMAP
90
70
88
88
88
88
88
98
68
ENDCHAR
STARTCHAR 016E
ENCODING 366
SWIDTH 750 0
DWIDTH 9 0
BBX 7 12 1 1
BITMAP
18
28
18
82
82
82
82
82
82
82
C6
7C
ENDCHAR
STARTCHAR 016F
ENCODING 367
SWIDTH 500 0
DWIDTH 6 0
BBX 5 10 1 0
BITMAP
30
50
30
88
88
88
88
88
98
68
ENDCHAR
STARTCHAR 0170
ENCODING 368
SWIDTH 750 0
DWIDTH 9 0
BBX 7 10 1 0
BITMAP
28
82
82
82
82
82
82
82
C6
7C
ENDCHAR
STARTCHAR 0171
ENCODING 369
SWIDTH 500 0
DWIDTH 6 0
BBX 5 9 1 0
BITMAP
50
00
88
88
88
88
88
98
68
ENDCHAR
STARTCHAR 0172
ENCODING 370
SWIDTH 750 0
DWIDTH 9 0
BBX 7 11 1 -2
BITMAP
82
82
82
82
82
82
82
C6
7C
08
0E
ENDCHAR
STARTCHAR 0173
ENCODING 371
SWIDTH 500 0
DWIDTH 6 0
BBX 5 9 1 -2
BITMAP
88
88
88
88
88
98
68
10
18
ENDCHAR
STARTCHAR 0174
ENCODING 372
SWIDTH 916 0
DWIDTH 11 0
BBX 11 10 0 0
BITMAP
0E00
8420
C660
4A40
4A40
4A40
6940
3180
3180
3180
ENDCHAR
STARTCHAR 0175
ENCODING 373
SWIDTH 750 0
DWIDTH 9 0
BBX 8 9 0 0
BITMAP
18
00
89
99
59
55
56
66
26
ENDCHAR
STARTCHAR 0176
ENCODING 374
SWIDTH 666 0
DWIDTH 8 0
BBX 7 10 1 0
BITMAP
70
82
44
44
28
38
10
10
10
10
ENDCHAR
STARTCHAR 0177
ENCODING 375
SWIDTH 500 0
DWIDTH 6 0
BBX 6 12 0 -3
BITMAP
20
00
84
48
48
48
30
30
30
20
20
60
ENDCHAR
STARTCHAR 0178
ENCODING 376
SWIDTH 666 0
DWIDTH 8 0
BBX 7 10 1 0
BITMAP
50
82
44
44
28
38
10
10
10
10
ENDCHAR
STARTCHAR 0179
ENCODING 377
SWIDTH 583 0
DWIDTH 7 0
BBX 7 10 0 0
BITMAP
08
7E
06
0C
08
10
30
60
40
FE
ENDCHAR
STARTCHAR 017A
ENCODING 378
SWIDTH 500 0
DWIDTH 6 0
BBX 5 7 0 2
BITMAP
78
08
10
20
60
40
F8
ENDCHAR
STARTCHAR 017B
ENCODING 379
SWIDTH 583 0
DWIDTH 7 0
BBX 7 10 0 0
BITMAP
10
7E
06
0C
08
10
30
60
40
FE
ENDCHAR
STARTCHAR 017C
ENCODING 380
SWIDTH 500 0
DWIDTH 6 0
BBX 5 8 0 1
BITMAP
20
78
08
10
20
60
40
F8
ENDCHAR
STARTCHAR 017D
ENCODING 381
SWIDTH 583 0
DWIDTH 7 0
BBX 7 11 0 0
BITMAP
1C
00
7E
06
0C
08
10
30
60
40
FE
ENDCHAR
STARTCHAR 017E
ENCODING 382
SWIDTH 500 0
DWIDTH 6 0
BBX 5 9 0 0
BITMAP
50
20
78
08
10
20
60
40
F8
ENDCHAR
STARTCHAR 017F
ENCODING 383
SWIDTH 250 0
DWIDTH 3 0
BBX 3 9 0 0
BITMAP
60
40
C0
40
40
40
40
40
40
ENDCHAR
STARTCHAR 0180
ENCODING 384
SWIDTH 583 0
DWIDTH 7 0
BBX 7 9 0 0
BITMAP
40
E0
5C
66
42
42
42
66
5C
ENDCHAR
STARTCHAR 0181
ENCODING 385
SWIDTH 833 0
DWIDTH 10 0
BBX 10 9 0 0
BITMAP
FF80
9040
D040
1040
1F80
1040
1040
1040
1F80
ENDCHAR
STARTCHAR 0182
ENCODING 386
SWIDTH 666 0
DWIDTH 8 0
BBX 6 9 1 0
BITMAP
F8
80
80
80
F8
84
84
84
F8
ENDCHAR
STARTCHAR 0183
ENCODING 387
SWIDTH 583 0
DWIDTH 7 0
BBX 5 9 1 0
BITMAP
F0
80
F0
D8
88
88
88
D8
F0
ENDCHAR
STARTCHAR 0184
ENCODING 388
SWIDTH 750 0
DWIDTH 9 0
BBX 8 9 0 0
BITMAP
60
E0
60
3E
23
21
21
23
3E
ENDCHAR
STARTCHAR 0185
ENCODING 389
SWIDTH 583 0
DWIDTH 7 0
BBX 7 9 0 0
BITMAP
40
C0
5C
66
42
42
42
66
5C
ENDCHAR
STARTCHAR 0186
ENCODING 390
SWIDTH 750 0
DWIDTH 9 0
BBX 8 9 1 -1
BITMAP
30
CC
82
02
01
02
02
82
FC
ENDCHAR
STARTCHAR 0187
ENCODING 391
SWIDTH 750 0
DWIDTH 9 0
BBX 9 9 0 0
BITMAP
3F80
4100
8000
8000
8000
8000
C100
4300
3E00
ENDCHAR
STARTCHAR 0188
ENCODING 392
SWIDTH 583 0
DWIDTH 7 0
BBX 7 7 0 0
BITMAP
7E
C4
80
80
80
C4
78
ENDCHAR
STARTCHAR 0189
ENCODING 393
SWIDTH 666 0
DWIDTH 8 0
BBX 8 9 0 0
BITMAP
7C
42
41
41
F1
41
41
42
7C
ENDCHAR
STARTCHAR 018A
ENCODING 394
SWIDTH 916 0
DWIDTH 11 0
BBX 10 9 0 0
BITMAP
FF00
9080
D040
1040
1040
1040
1040
1080
1F00
ENDCHAR
STARTCHAR 018B
ENCODING 395
SWIDTH 666 0
DWIDTH 8 0
BBX 7 9 0 0
BITMAP
3E
02
02
02
7E
82
82
82
7E
ENDCHAR
STARTCHAR 018C
ENCODING 396
SWIDTH 583 0
DWIDTH 7 0
BBX 6 9 0 0
BITMAP
3C
04
74
CC
84
84
84
CC
74
ENDCHAR
STARTCHAR 018D
ENCODING 397
SWIDTH 583 0
DWIDTH 7 0
BBX 6 9 1 -2
BITMAP
F8
88
84
8C
D8
70
30
08
F8
ENDCHAR
STARTCHAR 018E
ENCODING 398
SWIDTH 666 0
DWIDTH 8 0
BBX 6 9 1 0
BITMAP
FC
04
04
04
7C
04
04
04
FC
ENDCHAR
STARTCHAR 018F
ENCODING 399
SWIDTH 750 0
DWIDTH 9 0
BBX 7 9 1 0
BITMAP
78
84
02
02
02
FE
82
C4
78
ENDCHAR
STARTCHAR 0190
ENCODING 400
SWIDTH 666 0
DWIDTH 8 0
BBX 7 9 0 0
BITMAP
7C
82
80
C0
78
C0
82
86
7C
ENDCHAR
STARTCHAR 0191
ENCODING 401
SWIDTH 583 0
DWIDTH 7 0
BBX 6 12 0 -3
BITMAP
7C
40
40
40
7C
40
40
40
40
40
40
C0
ENDCHAR
STARTCHAR 0192
ENCODING 402
SWIDTH 250 0
DWIDTH 3 0
BBX 3 12 0 -3
BITMAP
60
40
E0
40
40
40
40
40
40
40
40
C0
ENDCHAR
STARTCHAR 0193
ENCODING 403
SWIDTH 833 0
DWIDTH 10 0
BBX 9 9 0 0
BITMAP
3D80
4300
8000
8000
8700
8100
C100
6300
3D00
ENDCHAR
STARTCHAR 0194
ENCODING 404
SWIDTH 666 0
DWIDTH 8 0
BBX 6 9 1 0
BITMAP
84
CC
48
30
30
20
30
30
30
ENDCHAR
STARTCHAR 0195
ENCODING 405
SWIDTH 833 0
DWIDTH 10 0
BBX 9 9 1 0
BITMAP
8000
8000
B000
C900
8880
8880
8880
8900
8E00
ENDCHAR
STARTCHAR 0196
ENCODING 406
SWIDTH 250 0
DWIDTH 3 0
BBX 2 9 1 0
BITMAP
80
80
80
80
80
80
80
80
C0
ENDCHAR
STARTCHAR 0197
ENCODING 407
SWIDTH 333 0
DWIDTH 4 0
BBX 3 9 1 0
BITMAP
40
40
40
40
E0
40
40
40
40
ENDCHAR
STARTCHAR 0198
ENCODING 408
SWIDTH 666 0
DWIDTH 8 0
BBX 7 9 1 0
BITMAP
86
88
90
A0
D0
98
88
84
86
ENDCHAR
STARTCHAR 0199
ENCODING 409
SWIDTH 500 0
DWIDTH 6 0
BBX 5 9 1 0
BITMAP
C0
80
90
B0
E0
E0
90
90
88
ENDCHAR
STARTCHAR 019A
ENCODING 410
SWIDTH 333 0
DWIDTH 4 0
BBX 3 9 1 0
BITMAP
40
40
40
40
E0
40
40
40
40
ENDCHAR
STARTCHAR 019B
ENCODING 411
SWIDTH 583 0
DWIDTH 7 0
BBX 6 9 0 1
BITMAP
68
30
60
B0
30
48
48
48
84
ENDCHAR
STARTCHAR 019C
ENCODING 412
SWIDTH 833 0
DWIDTH 10 0
BBX 8 9 1 0
BITMAP
89
89
89
89
89
89
89
89
FF
ENDCHAR
STARTCHAR 019D
ENCODING 413
SWIDTH 750 0
DWIDTH 9 0
BBX 8 12 0 -3
BITMAP
61
61
51
51
49
4D
45
43
43
40
40
C0
ENDCHAR
STARTCHAR 019E
ENCODING 414
SWIDTH 500 0
DWIDTH 6 0
BBX 5 9 1 -2
BITMAP
B0
C8
88
88
88
88
88
08
08
ENDCHAR
STARTCHAR 019F
ENCODING 415
SWIDTH 750 0
DWIDTH 9 0
BBX 9 9 0 0
BITMAP
3E00
6100
8080
8080
FF80
8080
C180
6300
3E00
ENDCHAR
STARTCHAR 01A0
ENCODING 416
SWIDTH 750 0
DWIDTH 9 0
BBX 10 9 0 1
BITMAP
3E40
63C0
C180
8080
8080
8080
C180
6300
3E00
ENDCHAR
STARTCHAR 01A1
ENCODING 417
SWIDTH 583 0
DWIDTH 7 0
BBX 7 8 0 1
BITMAP
02
7E
CC
84
84
84
CC
78
ENDCHAR
STARTCHAR 01A2
ENCODING 418
SWIDTH 1000 0
DWIDTH 12 0
BBX 11 9 0 1
BITMAP
3EC0
6320
C1A0
80A0
80A0
80A0
C1A0
6320
3E20
ENDCHAR
STARTCHAR 01A3
ENCODING 419
SWIDTH 750 0
DWIDTH 9 0
BBX 8 8 0 -1
BITMAP
7F
CD
85
85
85
CD
79
01
ENDCHAR
STARTCHAR 01A4
ENCODING 420
SWIDTH 833 0
DWIDTH 10 0
BBX 9 9 0 0
BITMAP
FF00
9080
D080
1180
1F00
1000
1000
1000
1000
ENDCHAR
STARTCHAR 01A5
ENCODING 421
SWIDTH 583 0
DWIDTH 7 0
BBX 5 11 1 -3
BITMAP
C0
80
F0
D8
88
88
88
D8
F0
80
80
ENDCHAR
STARTCHAR 01A6
ENCODING 422
SWIDTH 666 0
DWIDTH 8 0
BBX 6 10 1 -2
BITMAP
80
F8
84
84
84
F8
84
84
84
04
ENDCHAR
STARTCHAR 01A7
ENCODING 423
SWIDTH 666 0
DWIDTH 8 0
BBX 6 9 1 0
BITMAP
78
84
04
0C
78
C0
84
8C
78
ENDCHAR
STARTCHAR 01A8
ENCODING 424
SWIDTH 500 0
DWIDTH 6 0
BBX 5 7 0 0
BITMAP
70
88
08
38
C0
88
70
ENDCHAR
STARTCHAR 01A9
ENCODING 425
SWIDTH 583 0
DWIDTH 7 0
BBX 7 9 0 0
BITMAP
FE
40
60
30
10
30
60
40
FE
ENDCHAR
STARTCHAR 01AA
ENCODING 426
SWIDTH 333 0
DWIDTH 4 0
BBX 4 12 0 -3
BITMAP
60
A0
60
20
20
20
20
20
20
20
20
30
ENDCHAR
STARTCHAR 01AB
ENCODING 427
SWIDTH 250 0
DWIDTH 3 0
BBX 3 12 0 -3
BITMAP
40
40
E0
40
40
40
40
40
60
20
20
60
ENDCHAR
STARTCHAR 01AC
ENCODING 428
SWIDTH 666 0
DWIDTH 8 0
BBX 6 9 0 0
BITMAP
FC
90
D0
10
10
10
10
10
10
ENDCHAR
STARTCHAR 01AD
ENCODING 429
SWIDTH 250 0
DWIDTH 3 0
BBX 3 9 0 0
BITMAP
60
40
E0
40
40
40
40
40
60
ENDCHAR
STARTCHAR 01AE
ENCODING 430
SWIDTH 666 0
DWIDTH 8 0
BBX 6 12 0 -3
BITMAP
FC
10
10
10
10
10
10
10
10
10
10
18
ENDCHAR
STARTCHAR 01AF
ENCODING 431
SWIDTH 750 0
DWIDTH 9 0
BBX 8 10 1 1
BITMAP
01
83
82
82
82
82
82
82
C6
7C
ENDCHAR
STARTCHAR 01B0
ENCODING 432
SWIDTH 583 0
DWIDTH 7 0
BBX 6 8 1 1
BITMAP
04
8C
88
88
88
88
98
68
ENDCHAR
STARTCHAR 01B1
ENCODING 433
SWIDTH 750 0
DWIDTH 9 0
BBX 9 9 0 -1
BITMAP
F380
2200
4100
8080
8080
8080
8080
4100
3E00
ENDCHAR
STARTCHAR 01B2
ENCODING 434
SWIDTH 666 0
DWIDTH 8 0
BBX 7 9 1 0
BITMAP
8C
84
82
82
82
82
82
84
78
ENDCHAR
STARTCHAR 01B3
ENCODING 435
SWIDTH 750 0
DWIDTH 9 0
BBX 8 9 1 0
BITMAP
83
44
44
28
38
10
10
10
10
ENDCHAR
STARTCHAR 01B4
ENCODING 436
SWIDTH 583 0
DWIDTH 7 0
BBX 8 12 0 -3
BITMAP
03
04
84
48
48
48
30
30
30
20
20
60
ENDCHAR
STARTCHAR 01B5
ENCODING 437
SWIDTH 583 0
DWIDTH 7 0
BBX 7 9 0 0
BITMAP
7E
06
0C
08
3C
30
20
40
FE
ENDCHAR
STARTCHAR 01B6
ENCODING 438
SWIDTH 500 0
DWIDTH 6 0
BBX 5 7 0 0
BITMAP
78
08
10
78
20
40
F8
ENDCHAR
STARTCHAR 01B7
ENCODING 439
SWIDTH 583 0
DWIDTH 7 0
BBX 7 9 0 0
BITMAP
7E
06
0C
1C
06
02
02
86
7C
ENDCHAR
STARTCHAR 01B8
ENCODING 440
SWIDTH 583 0
DWIDTH 7 0
BBX 7 9 0 0
BITMAP
FC
C0
40
60
C0
80
80
C2
7C
ENDCHAR
STARTCHAR 01B9
ENCODING 441
SWIDTH 500 0
DWIDTH 6 0
BBX 6 9 0 -2
BITMAP
FC
40
20
20
C0
80
80
C4
78
ENDCHAR
STARTCHAR 01BA
ENCODING 442
SWIDTH 500 0
DWIDTH 6 0
BBX 6 9 0 -2
BITMAP
F8
08
10
10
0C
04
04
F8
F8
ENDCHAR
STARTCHAR 01BB
ENCODING 443
SWIDTH 583 0
DWIDTH 7 0
BBX 5 9 1 0
BITMAP
70
88
08
08
50
30
C8
80
F8
ENDCHAR
STARTCHAR 01BE
ENCODING 446
SWIDTH 500 0
DWIDTH 6 0
BBX 6 9 0 0
BITMAP
20
20
70
20
30
0C
04
84
78
ENDCHAR
STARTCHAR 01BF
ENCODING 447
SWIDTH 583 0
DWIDTH 7 0
BBX 5 9 1 -2
BITMAP
F8
C8
88
88
90
A0
C0
80
80
ENDCHAR
STARTCHAR 01C0
ENCODING 448
SWIDTH 250 0
DWIDTH 3 0
BBX 1 11 1 -3
BITMAP
80
80
80
80
80
80
80
80
80
80
80
ENDCHAR
STARTCHAR 01C1
ENCODING 449
SWIDTH 333 0
DWIDTH 4 0
BBX 2 11 1 -3
BITMAP
C0
C0
C0
C0
C0
C0
C0
C0
C0
C0
C0
ENDCHAR
STARTCHAR 01C2
ENCODING 450
SWIDTH 583 0
DWIDTH 7 0
BBX 5 11 1 -2
BITMAP
20
20
20
20
20
F8
20
F8
20
20
20
ENDCHAR
STARTCHAR 01C3
ENCODING 451
SWIDTH 250 0
DWIDTH 3 0
BBX 1 9 2 0
BITMAP
80
80
80
80
80
80
80
00
80
ENDCHAR
STARTCHAR 01C4
ENCODING 452
SWIDTH 1250 0
DWIDTH 15 0
BBX 14 11 1 0
BITMAP
0030
0000
F8FC
840C
8218
8210
8220
8260
82C0
8480
F9FC
ENDCHAR
STARTCHAR 01C5
ENCODING 453
SWIDTH 1166 0
DWIDTH 14 0
BBX 13 9 1 0
BITMAP
F860
8400
82F8
8210
8220
8260
8240
8480
F8F8
ENDCHAR
STARTCHAR 01C6
ENCODING 454
SWIDTH 1000 0
DWIDTH 12 0
BBX 12 9 0 0
BITMAP
04C0
0400
7DF0
CC20
8420
8440
8480
CD00
75F0
ENDCHAR
STARTCHAR 01C7
ENCODING 455
SWIDTH 1083 0
DWIDTH 13 0
BBX 10 9 1 0
BITMAP
8040
8040
8040
8040
8040
8040
8440
8640
FB80
ENDCHAR
STARTCHAR 01C8
ENCODING 456
SWIDTH 750 0
DWIDTH 9 0
BBX 8 12 1 -3
BITMAP
81
80
81
81
81
81
81
81
F9
01
01
02
ENDCHAR
STARTCHAR 01C9
ENCODING 457
SWIDTH 416 0
DWIDTH 5 0
BBX 3 12 1 -3
BITMAP
A0
80
A0
A0
A0
A0
A0
A0
A0
20
20
60
ENDCHAR
STARTCHAR 01CA
ENCODING 458
SWIDTH 1250 0
DWIDTH 15 0
BBX 12 9 1 0
BITMAP
C210
C210
A210
A210
9210
9A10
8B10
8790
86E0
ENDCHAR
STARTCHAR 01CB
ENCODING 459
SWIDTH 916 0
DWIDTH 11 0
BBX 9 12 1 -3
BITMAP
C280
C200
A280
A280
9280
9A80
8A80
8680
8680
0080
0080
0180
ENDCHAR
STARTCHAR 01CC
ENCODING 460
SWIDTH 750 0
DWIDTH 9 0
BBX 7 12 1 -3
BITMAP
02
00
B2
CA
8A
8A
8A
8A
8A
02
02
06
ENDCHAR
STARTCHAR 01CD
ENCODING 461
SWIDTH 666 0
DWIDTH 8 0
BBX 8 11 0 0
BITMAP
1C
00
18
18
3C
24
24
7E
42
42
C3
ENDCHAR
STARTCHAR 01CE
ENCODING 462
SWIDTH 583 0
DWIDTH 7 0
BBX 7 9 0 0
BITMAP
10
20
78
84
04
3C
C4
8C
76
ENDCHAR
STARTCHAR 01CF
ENCODING 463
SWIDTH 333 0
DWIDTH 4 0
BBX 3 11 1 0
BITMAP
E0
00
80
80
80
80
80
80
80
80
80
ENDCHAR
STARTCHAR 01D0
ENCODING 464
SWIDTH 250 0
DWIDTH 3 0
BBX 2 9 0 0
BITMAP
C0
00
40
40
40
40
40
40
40
ENDCHAR
STARTCHAR 01D1
ENCODING 465
SWIDTH 750 0
DWIDTH 9 0
BBX 9 11 0 0
BITMAP
0E00
0000
3E00
6300
C180
8080
8080
8080
C180
6300
3E00
ENDCHAR
STARTCHAR 01D2
ENCODING 466
SWIDTH 500 0
DWIDTH 6 0
BBX 6 9 0 0
BITMAP
10
20
78
CC
84
84
84
CC
78
ENDCHAR
STARTCHAR 01D3
ENCODING 467
SWIDTH 750 0
DWIDTH 9 0
BBX 7 11 1 0
BITMAP
38
00
82
82
82
82
82
82
82
C6
7C
ENDCHAR
STARTCHAR 01D4
ENCODING 468
SWIDTH 500 0
DWIDTH 6 0
BBX 5 9 1 0
BITMAP
20
40
88
88
88
88
88
98
68
ENDCHAR
STARTCHAR 01D5
ENCODING 469
SWIDTH 750 0
DWIDTH 9 0
BBX 7 12 1 1
BITMAP
70
00
50
82
82
82
82
82
82
82
C6
7C
ENDCHAR
STARTCHAR 01D6
ENCODING 470
SWIDTH 500 0
DWIDTH 6 0
BBX 5 10 1 1
BITMAP
E0
00
A0
88
88
88
88
88
98
68
ENDCHAR
STARTCHAR 01D7
ENCODING 471
SWIDTH 750 0
DWIDTH 9 0
BBX 7 11 1 0
BITMAP
10
50
82
82
82
82
82
82
82
C6
7C
ENDCHAR
STARTCHAR 01D8
ENCODING 472
SWIDTH 500 0
DWIDTH 6 0
BBX 5 11 1 0
BITMAP
20
00
00
A0
88
88
88
88
88
98
68
ENDCHAR
STARTCHAR 01D9
ENCODING 473
SWIDTH 750 0
DWIDTH 9 0
BBX 7 12 1 0
BITMAP
38
00
00
D2
82
82
82
82
82
82
C6
7C
ENDCHAR
STARTCHAR 01DA
ENCODING 474
SWIDTH 500 0
DWIDTH 6 0
BBX 5 11 1 0
BITMAP
60
00
00
A0
88
88
88
88
88
98
68
ENDCHAR
STARTCHAR 01DB
ENCODING 475
SWIDTH 750 0
DWIDTH 9 0
BBX 7 11 1 0
BITMAP
20
50
82
82
82
82
82
82
82
C6
7C
ENDCHAR
STARTCHAR 01DC
ENCODING 476
SWIDTH 500 0
DWIDTH 6 0
BBX 5 11 1 0
BITMAP
80
00
00
A0
88
88
88
88
88
98
68
ENDCHAR
STARTCHAR 01DD
ENCODING 477
SWIDTH 500 0
DWIDTH 6 0
BBX 6 7 0 0
BITMAP
78
44
04
FC
84
4C
38
ENDCHAR
STARTCHAR 01DE
ENCODING 478
SWIDTH 666 0
DWIDTH 8 0
BBX 8 12 0 1
BITMAP
38
00
28
18
18
3C
24
24
7E
42
42
C3
ENDCHAR
STARTCHAR 01DF
ENCODING 479
SWIDTH 583 0
DWIDTH 7 0
BBX 7 10 0 1
BITMAP
70
00
50
78
84
04
3C
C4
8C
76
ENDCHAR
STARTCHAR 01E0
ENCODING 480
SWIDTH 666 0
DWIDTH 8 0
BBX 8 12 0 1
BITMAP
38
00
10
18
18
3C
24
24
7E
42
42
C3
ENDCHAR
STARTCHAR 01E1
ENCODING 481
SWIDTH 583 0
DWIDTH 7 0
BBX 7 10 0 1
BITMAP
70
00
20
78
84
04
3C
C4
8C
76
ENDCHAR
STARTCHAR 01E2
ENCODING 482
SWIDTH 1000 0
DWIDTH 12 0
BBX 10 11 1 1
BITMAP
0E00
0000
1FC0
1400
2400
2400
47C0
7C00
4400
8400
87C0
ENDCHAR
STARTCHAR 01E3
ENCODING 483
SWIDTH 833 0
DWIDTH 10 0
BBX 10 9 0 0
BITMAP
1C00
0000
7B80
8640
0440
7FC0
8400
8C40
7380
ENDCHAR
STARTCHAR 01E4
ENCODING 484
SWIDTH 750 0
DWIDTH 9 0
BBX 9 9 0 0
BITMAP
3E00
4100
8000
8000
8700
8100
C780
6300
3D00
ENDCHAR
STARTCHAR 01E5
ENCODING 485
SWIDTH 583 0
DWIDTH 7 0
BBX 7 10 0 -3
BITMAP
74
CC
84
84
84
CC
74
9E
C8
78
ENDCHAR
STARTCHAR 01E6
ENCODING 486
SWIDTH 750 0
DWIDTH 9 0
BBX 8 11 0 0
BITMAP
0E
00
3E
41
80
80
87
81
C1
63
3D
ENDCHAR
STARTCHAR 01E7
ENCODING 487
SWIDTH 583 0
DWIDTH 7 0
BBX 6 12 0 -3
BITMAP
50
20
74
CC
84
84
84
CC
74
04
8C
78
ENDCHAR
STARTCHAR 01E8
ENCODING 488
SWIDTH 666 0
DWIDTH 8 0
BBX 6 11 1 0
BITMAP
38
00
84
88
90
A0
F0
90
88
84
84
ENDCHAR
STARTCHAR 01E9
ENCODING 489
SWIDTH 500 0
DWIDTH 6 0
BBX 5 11 1 0
BITMAP
20
40
80
80
90
B0
E0
E0
90
90
88
ENDCHAR
STARTCHAR 01EA
ENCODING 490
SWIDTH 750 0
DWIDTH 9 0
BBX 9 12 0 -3
BITMAP
3E00
6100
C180
8080
8080
8080
C080
4100
3E00
1000
1000
1C00
ENDCHAR
STARTCHAR 01EB
ENCODING 491
SWIDTH 500 0
DWIDTH 6 0
BBX 6 10 0 -3
BITMAP
38
44
84
84
84
C4
78
20
20
30
ENDCHAR
STARTCHAR 01EC
ENCODING 492
SWIDTH 750 0
DWIDTH 9 0
BBX 9 14 0 -2
BITMAP
1C00
0000
3E00
6100
C180
8080
8080
8080
C080
4100
3E00
1000
1000
1C00
ENDCHAR
STARTCHAR 01ED
ENCODING 493
SWIDTH 500 0
DWIDTH 6 0
BBX 6 11 0 -2
BITMAP
70
38
44
84
84
84
C4
78
20
20
30
ENDCHAR
STARTCHAR 01EE
ENCODING 494
SWIDTH 583 0
DWIDTH 7 0
BBX 7 11 0 0
BITMAP
1C
00
7E
06
0C
1C
06
02
02
86
7C
ENDCHAR
STARTCHAR 01EF
ENCODING 495
SWIDTH 500 0
DWIDTH 6 0
BBX 6 11 0 -2
BITMAP
50
20
FC
08
10
10
0C
04
04
8C
78
ENDCHAR
STARTCHAR 01F0
ENCODING 496
SWIDTH 250 0
DWIDTH 3 0
BBX 2 12 0 -3
BITMAP
40
80
40
40
40
40
40
40
40
40
40
C0
ENDCHAR
STARTCHAR 01F1
ENCODING 497
SWIDTH 1333 0
DWIDTH 16 0
BBX 14 9 1 0
BITMAP
F8FC
840C
8208
8210
8230
8260
8240
8480
F8FC
ENDCHAR
STARTCHAR 01F2
ENCODING 498
SWIDTH 1166 0
DWIDTH 14 0
BBX 13 9 1 0
BITMAP
F800
8400
82F8
8210
8220
8220
8240
8480
F8F8
ENDCHAR
STARTCHAR 01F3
ENCODING 499
SWIDTH 1083 0
DWIDTH 13 0
BBX 12 9 0 0
BITMAP
0400
0400
7DF0
CC30
8420
8440
8480
CD80
75F0
ENDCHAR
STARTCHAR 01F4
ENCODING 500
SWIDTH 750 0
DWIDTH 9 0
BBX 8 10 0 0
BITMAP
04
3E
41
80
80
87
81
C1
63
3D
ENDCHAR
STARTCHAR 01F5
ENCODING 501
SWIDTH 583 0
DWIDTH 7 0
BBX 6 12 0 -3
BITMAP
10
00
74
CC
84
84
84
CC
74
04
8C
78
ENDCHAR
STARTCHAR 01F7
ENCODING 503
SWIDTH 583 0
DWIDTH 7 0
BBX 6 9 1 0
BITMAP
B8
C4
84
8C
88
B0
E0
80
80
ENDCHAR
STARTCHAR 01F8
ENCODING 504
SWIDTH 750 0
DWIDTH 9 0
BBX 7 10 1 0
BITMAP
10
82
C2
A2
A2
92
9A
8A
86
86
ENDCHAR
STARTCHAR 01F9
ENCODING 505
SWIDTH 500 0
DWIDTH 6 0
BBX 5 9 1 0
BITMAP
40
00
B0
C8
88
88
88
88
88
ENDCHAR
STARTCHAR 01FA
ENCODING 506
SWIDTH 666 0
DWIDTH 8 0
BBX 8 10 0 1
BITMAP
1C
14
08
18
18
24
24
7E
42
C3
ENDCHAR
STARTCHAR 01FB
ENCODING 507
SWIDTH 583 0
DWIDTH 7 0
BBX 7 10 0 0
BITMAP
18
28
18
78
84
04
3C
C4
8C
76
ENDCHAR
STARTCHAR 01FC
ENCODING 508
SWIDTH 1000 0
DWIDTH 12 0
BBX 10 10 1 0
BITMAP
0200
1FC0
1400
2400
2400
47C0
7C00
4400
8400
87C0
ENDCHAR
STARTCHAR 01FD
ENCODING 509
SWIDTH 833 0
DWIDTH 10 0
BBX 10 9 0 0
BITMAP
0400
0000
7B80
8640
0440
7FC0
8400
8C40
7380
ENDCHAR
STARTCHAR 01FE
ENCODING 510
SWIDTH 750 0
DWIDTH 9 0
BBX 9 10 0 0
BITMAP
0400
3E80
6300
C380
8480
8880
9080
E180
6300
BE00
ENDCHAR
STARTCHAR 01FF
ENCODING 511
SWIDTH 583 0
DWIDTH 7 0
BBX 6 9 0 -1
BITMAP
10
00
7C
CC
94
A4
C4
CC
F8
ENDCHAR
STARTCHAR 0200
ENCODING 512
SWIDTH 666 0
DWIDTH 8 0
BBX 8 10 0 0
BITMAP
28
18
18
3C
24
24
7E
42
42
C3
ENDCHAR
STARTCHAR 0201
ENCODING 513
SWIDTH 583 0
DWIDTH 7 0
BBX 7 9 0 0
BITMAP
50
00
78
84
04
3C
C4
8C
76
ENDCHAR
STARTCHAR 0202
ENCODING 514
SWIDTH 666 0
DWIDTH 8 0
BBX 8 11 0 0
BITMAP
18
24
18
18
3C
24
24
7E
42
42
C3
ENDCHAR
STARTCHAR 0203
ENCODING 515
SWIDTH 583 0
DWIDTH 7 0
BBX 7 9 0 0
BITMAP
30
68
78
84
04
3C
C4
8C
76
ENDCHAR
STARTCHAR 0204
ENCODING 516
SWIDTH 666 0
DWIDTH 8 0
BBX 6 10 1 0
BITMAP
28
FC
80
80
80
F8
80
80
80
FC
ENDCHAR
STARTCHAR 0205
ENCODING 517
SWIDTH 500 0
DWIDTH 6 0
BBX 6 9 0 0
BITMAP
50
00
78
CC
84
FC
80
C4
78
ENDCHAR
STARTCHAR 0206
ENCODING 518
SWIDTH 666 0
DWIDTH 8 0
BBX 6 11 1 0
BITMAP
30
48
FC
80
80
80
F8
80
80
80
FC
ENDCHAR
STARTCHAR 0207
ENCODING 519
SWIDTH 500 0
DWIDTH 6 0
BBX 6 9 0 0
BITMAP
30
68
78
CC
84
FC
80
C4
78
ENDCHAR
STARTCHAR 0208
ENCODING 520
SWIDTH 333 0
DWIDTH 4 0
BBX 3 10 1 0
BITMAP
A0
80
80
80
80
80
80
80
80
80
ENDCHAR
STARTCHAR 0209
ENCODING 521
SWIDTH 250 0
DWIDTH 3 0
BBX 3 9 0 0
BITMAP
A0
00
40
40
40
40
40
40
40
ENDCHAR
STARTCHAR 020A
ENCODING 522
SWIDTH 333 0
DWIDTH 4 0
BBX 4 11 0 0
BITMAP
E0
90
40
40
40
40
40
40
40
40
40
ENDCHAR
STARTCHAR 020B
ENCODING 523
SWIDTH 250 0
DWIDTH 3 0
BBX 3 9 0 0
BITMAP
60
A0
40
40
40
40
40
40
40
ENDCHAR
STARTCHAR 020C
ENCODING 524
SWIDTH 750 0
DWIDTH 9 0
BBX 9 10 0 0
BITMAP
1400
3E00
6300
C180
8080
8080
8080
C180
6300
3E00
ENDCHAR
STARTCHAR 020D
ENCODING 525
SWIDTH 500 0
DWIDTH 6 0
BBX 6 9 0 0
BITMAP
50
00
78
CC
84
84
84
CC
78
ENDCHAR
STARTCHAR 020E
ENCODING 526
SWIDTH 750 0
DWIDTH 9 0
BBX 9 11 0 0
BITMAP
1C00
1200
3E00
6300
C180
8080
8080
8080
C180
6300
3E00
ENDCHAR
STARTCHAR 020F
ENCODING 527
SWIDTH 500 0
DWIDTH 6 0
BBX 6 9 0 0
BITMAP
30
68
78
CC
84
84
84
CC
78
ENDCHAR
STARTCHAR 0210
ENCODING 528
SWIDTH 750 0
DWIDTH 9 0
BBX 7 10 1 0
BITMAP
50
F8
84
84
84
F8
84
84
84
86
ENDCHAR
STARTCHAR 0211
ENCODING 529
SWIDTH 333 0
DWIDTH 4 0
BBX 4 9 0 0
BITMAP
A0
00
50
60
40
40
40
40
40
ENDCHAR
STARTCHAR 0212
ENCODING 530
SWIDTH 750 0
DWIDTH 9 0
BBX 7 11 1 0
BITMAP
38
48
F8
84
84
84
F8
84
84
84
86
ENDCHAR
STARTCHAR 0213
ENCODING 531
SWIDTH 333 0
DWIDTH 4 0
BBX 4 9 0 0
BITMAP
60
D0
50
60
40
40
40
40
40
ENDCHAR
STARTCHAR 0214
ENCODING 532
SWIDTH 750 0
DWIDTH 9 0
BBX 7 10 1 0
BITMAP
28
82
82
82
82
82
82
82
C6
7C
ENDCHAR
STARTCHAR 0215
ENCODING 533
SWIDTH 500 0
DWIDTH 6 0
BBX 5 9 1 0
BITMAP
70
00
88
88
88
88
88
98
68
ENDCHAR
STARTCHAR 0216
ENCODING 534
SWIDTH 750 0
DWIDTH 9 0
BBX 7 11 1 0
BITMAP
38
68
82
82
82
82
82
82
82
C6
7C
ENDCHAR
STARTCHAR 0217
ENCODING 535
SWIDTH 500 0
DWIDTH 6 0
BBX 5 9 1 0
BITMAP
60
D0
88
88
88
88
88
98
68
ENDCHAR
STARTCHAR 0218
ENCODING 536
SWIDTH 666 0
DWIDTH 8 0
BBX 6 13 1 -4
BITMAP
78
84
80
C0
78
0C
84
C4
78
00
10
10
10
ENDCHAR
STARTCHAR 0219
ENCODING 537
SWIDTH 500 0
DWIDTH 6 0
BBX 4 11 1 -4
BITMAP
60
90
80
E0
10
90
60
00
20
20
20
ENDCHAR
STARTCHAR 021A
ENCODING 538
SWIDTH 666 0
DWIDTH 8 0
BBX 6 13 0 -4
BITMAP
FC
10
10
10
10
10
10
10
10
00
10
10
10
ENDCHAR
STARTCHAR 021B
ENCODING 539
SWIDTH 250 0
DWIDTH 3 0
BBX 3 12 0 -4
BITMAP
40
E0
40
40
40
40
40
60
00
40
40
40
ENDCHAR
STARTCHAR 021C
ENCODING 540
SWIDTH 500 0
DWIDTH 6 0
BBX 6 10 0 -1
BITMAP
78
84
04
0C
38
04
04
08
70
80
ENDCHAR
STARTCHAR 021D
ENCODING 541
SWIDTH 416 0
DWIDTH 5 0
BBX 4 8 0 -1
BITMAP
60
90
10
70
10
10
60
80
ENDCHAR
STARTCHAR 021E
ENCODING 542
SWIDTH 750 0
DWIDTH 9 0
BBX 7 11 1 0
BITMAP
38
00
82
82
82
82
FE
82
82
82
82
ENDCHAR
STARTCHAR 021F
ENCODING 543
SWIDTH 500 0
DWIDTH 6 0
BBX 5 11 1 0
BITMAP
60
00
80
80
B0
C8
88
88
88
88
88
ENDCHAR
STARTCHAR 0220
ENCODING 544
SWIDTH 750 0
DWIDTH 9 0
BBX 7 12 1 -3
BITMAP
FC
C6
82
82
82
82
82
82
82
02
02
02
ENDCHAR
STARTCHAR 0224
ENCODING 548
SWIDTH 583 0
DWIDTH 7 0
BBX 6 12 1 -3
BITMAP
FC
0C
08
10
20
20
40
80
FC
04
04
0C
ENDCHAR
STARTCHAR 0225
ENCODING 549
SWIDTH 500 0
DWIDTH 6 0
BBX 5 10 0 -3
BITMAP
F8
10
10
20
40
80
F8
08
08
18
ENDCHAR
STARTCHAR 0226
ENCODING 550
SWIDTH 666 0
DWIDTH 8 0
BBX 8 10 0 1
BITMAP
10
18
18
3C
24
24
7E
42
42
C3
ENDCHAR
STARTCHAR 0227
ENCODING 551
SWIDTH 583 0
DWIDTH 7 0
BBX 7 8 0 1
BITMAP
20
78
84
04
3C
C4
8C
76
ENDCHAR
STARTCHAR 0228
ENCODING 552
SWIDTH 666 0
DWIDTH 8 0
BBX 6 11 1 -2
BITMAP
FC
80
80
80
F8
80
80
80
FC
30
70
ENDCHAR
STARTCHAR 0229
ENCODING 553
SWIDTH 500 0
DWIDTH 6 0
BBX 6 10 0 -3
BITMAP
38
C4
84
FC
80
4C
30
18
08
78
ENDCHAR
STARTCHAR 022A
ENCODING 554
SWIDTH 750 0
DWIDTH 9 0
BBX 9 12 0 1
BITMAP
1C00
0000
1400
3E00
6300
C180
8080
8080
8080
C180
6300
3E00
ENDCHAR
STARTCHAR 022B
ENCODING 555
SWIDTH 500 0
DWIDTH 6 0
BBX 6 10 0 1
BITMAP
70
00
50
78
CC
84
84
84
CC
78
ENDCHAR
STARTCHAR 022C
ENCODING 556
SWIDTH 750 0
DWIDTH 9 0
BBX 9 13 0 0
BITMAP
1C00
0000
1A00
1400
3E00
6300
C180
8080
8080
8080
C180
6300
3E00
ENDCHAR
STARTCHAR 022D
ENCODING 557
SWIDTH 500 0
DWIDTH 6 0
BBX 6 10 0 1
BITMAP
70
20
58
78
CC
84
84
84
CC
78
ENDCHAR
STARTCHAR 022E
ENCODING 558
SWIDTH 750 0
DWIDTH 9 0
BBX 9 10 0 1
BITMAP
0800
3E00
6300
C180
8080
8080
8080
C180
6300
3E00
ENDCHAR
STARTCHAR 022F
ENCODING 559
SWIDTH 500 0
DWIDTH 6 0
BBX 6 8 0 0
BITMAP
20
78
CC
84
84
84
CC
78
ENDCHAR
STARTCHAR 0230
ENCODING 560
SWIDTH 750 0
DWIDTH 9 0
BBX 9 12 0 1
BITMAP
1C00
0000
0800
3E00
6300
C180
8080
8080
8080
C180
6300
3E00
ENDCHAR
STARTCHAR 0231
ENCODING 561
SWIDTH 500 0
DWIDTH 6 0
BBX 6 10 0 1
BITMAP
70
00
20
78
CC
84
84
84
CC
78
ENDCHAR
STARTCHAR 0232
ENCODING 562
SWIDTH 666 0
DWIDTH 8 0
BBX 7 11 1 0
BITMAP
70
00
82
44
44
28
38
10
10
10
10
ENDCHAR
STARTCHAR 0233
ENCODING 563
SWIDTH 500 0
DWIDTH 6 0
BBX 6 11 0 -2
BITMAP
70
84
48
48
48
30
30
30
20
20
60
ENDCHAR
STARTCHAR 0237
ENCODING 567
SWIDTH 250 0
DWIDTH 3 0
BBX 2 10 0 -3
BITMAP
40
40
40
40
40
40
40
40
40
C0
ENDCHAR
STARTCHAR 0238
ENCODING 568
SWIDTH 916 0
DWIDTH 11 0
BBX 11 9 0 0
BITMAP
0400
0400
7DC0
CE60
8420
8420
8420
CE60
75C0
ENDCHAR
STARTCHAR 0239
ENCODING 569
SWIDTH 916 0
DWIDTH 11 0
BBX 11 9 0 -2
BITMAP
75C0
CE60
8420
8420
8420
CE60
75C0
0400
0400
ENDCHAR
STARTCHAR 0250
ENCODING 592
SWIDTH 583 0
DWIDTH 7 0
BBX 6 7 0 0
BITMAP
BC
44
4C
70
40
44
38
ENDCHAR
STARTCHAR 0251
ENCODING 593
SWIDTH 583 0
DWIDTH 7 0
BBX 7 7 0 0
BITMAP
74
CC
84
84
84
CC
76
ENDCHAR
STARTCHAR 0252
ENCODING 594
SWIDTH 583 0
DWIDTH 7 0
BBX 7 7 0 0
BITMAP
FC
46
42
42
42
64
58
ENDCHAR
STARTCHAR 0253
ENCODING 595
SWIDTH 583 0
DWIDTH 7 0
BBX 5 9 1 0
BITMAP
C0
80
F0
D8
88
88
88
D8
F0
ENDCHAR
STARTCHAR 0254
ENCODING 596
SWIDTH 500 0
DWIDTH 6 0
BBX 6 7 0 0
BITMAP
78
84
04
04
04
C8
70
ENDCHAR
STARTCHAR 0255
ENCODING 597
SWIDTH 500 0
DWIDTH 6 0
BBX 6 7 0 -1
BITMAP
78
44
80
80
9C
E4
F8
ENDCHAR
STARTCHAR 0256
ENCODING 598
SWIDTH 583 0
DWIDTH 7 0
BBX 7 12 0 -3
BITMAP
04
04
7C
CC
84
84
84
CC
74
04
04
06
ENDCHAR
STARTCHAR 0257
ENCODING 599
SWIDTH 583 0
DWIDTH 7 0
BBX 7 9 0 0
BITMAP
06
04
7C
CC
84
84
84
CC
74
ENDCHAR
STARTCHAR 0258
ENCODING 600
SWIDTH 500 0
DWIDTH 6 0
BBX 6 7 0 0
BITMAP
78
CC
84
FC
04
8C
78
ENDCHAR
STARTCHAR 0259
ENCODING 601
SWIDTH 500 0
DWIDTH 6 0
BBX 6 7 0 0
BITMAP
78
44
04
FC
84
4C
38
ENDCHAR
STARTCHAR 025A
ENCODING 602
SWIDTH 750 0
DWIDTH 9 0
BBX 9 8 0 0
BITMAP
0200
7E00
8D00
0500
FD80
8400
CC00
7800
ENDCHAR
STARTCHAR 025B
ENCODING 603
SWIDTH 500 0
DWIDTH 6 0
BBX 4 7 1 0
BITMAP
60
90
80
40
80
90
60
ENDCHAR
STARTCHAR 025C
ENCODING 604
SWIDTH 500 0
DWIDTH 6 0
BBX 5 7 0 0
BITMAP
70
88
08
10
08
88
70
ENDCHAR
STARTCHAR 025D
ENCODING 605
SWIDTH 750 0
DWIDTH 9 0
BBX 8 8 0 0
BITMAP
04
7E
8A
0A
11
08
88
70
ENDCHAR
STARTCHAR 025E
ENCODING 606
SWIDTH 500 0
DWIDTH 6 0
BBX 5 7 0 0
BITMAP
70
88
88
90
88
88
70
ENDCHAR
STARTCHAR 025F
ENCODING 607
SWIDTH 250 0
DWIDTH 3 0
BBX 3 10 0 -3
BITMAP
40
40
40
E0
40
40
40
40
40
C0
ENDCHAR
STARTCHAR 0260
ENCODING 608
SWIDTH 583 0
DWIDTH 7 0
BBX 7 11 0 -3
BITMAP
06
74
CC
84
84
84
CC
74
04
8C
78
ENDCHAR
STARTCHAR 0261
ENCODING 609
SWIDTH 583 0
DWIDTH 7 0
BBX 7 10 0 -3
BITMAP
7E
CC
84
84
84
CC
74
04
8C
78
ENDCHAR
STARTCHAR 0262
ENCODING 610
SWIDTH 583 0
DWIDTH 7 0
BBX 6 7 0 0
BITMAP
78
C4
80
8C
84
CC
74
ENDCHAR
STARTCHAR 0263
ENCODING 611
SWIDTH 500 0
DWIDTH 6 0
BBX 5 10 0 -3
BITMAP
88
88
50
50
20
20
20
50
50
70
ENDCHAR
STARTCHAR 0264
ENCODING 612
SWIDTH 583 0
DWIDTH 7 0
BBX 7 7 0 0
BITMAP
6C
92
30
28
28
28
18
ENDCHAR
STARTCHAR 0265
ENCODING 613
SWIDTH 500 0
DWIDTH 6 0
BBX 5 9 0 -2
BITMAP
88
88
88
88
88
48
78
08
08
ENDCHAR
STARTCHAR 0266
ENCODING 614
SWIDTH 500 0
DWIDTH 6 0
BBX 5 9 1 0
BITMAP
C0
80
B0
C8
88
88
88
88
88
ENDCHAR
STARTCHAR 0267
ENCODING 615
SWIDTH 500 0
DWIDTH 6 0
BBX 5 12 1 -3
BITMAP
C0
80
B0
C8
88
88
88
88
88
08
08
18
ENDCHAR
STARTCHAR 0268
ENCODING 616
SWIDTH 250 0
DWIDTH 3 0
BBX 3 9 0 0
BITMAP
40
00
40
40
40
E0
40
40
40
ENDCHAR
STARTCHAR 0269
ENCODING 617
SWIDTH 250 0
DWIDTH 3 0
BBX 2 7 1 0
BITMAP
80
80
80
80
80
80
C0
ENDCHAR
STARTCHAR 026A
ENCODING 618
SWIDTH 250 0
DWIDTH 3 0
BBX 3 7 0 0
BITMAP
E0
40
40
40
40
40
E0
ENDCHAR
STARTCHAR 026B
ENCODING 619
SWIDTH 500 0
DWIDTH 6 0
BBX 6 9 0 0
BITMAP
20
20
20
E0
B4
3C
20
20
20
ENDCHAR
STARTCHAR 026C
ENCODING 620
SWIDTH 416 0
DWIDTH 5 0
BBX 4 9 0 0
BITMAP
20
20
20
E0
A0
F0
20
20
20
ENDCHAR
STARTCHAR 026D
ENCODING 621
SWIDTH 250 0
DWIDTH 3 0
BBX 2 12 1 -3
BITMAP
80
80
80
80
80
80
80
80
80
80
80
C0
ENDCHAR
STARTCHAR 026E
ENCODING 622
SWIDTH 583 0
DWIDTH 7 0
BBX 6 11 1 -2
BITMAP
80
80
F8
88
90
98
8C
84
84
44
38
ENDCHAR
STARTCHAR 026F
ENCODING 623
SWIDTH 833 0
DWIDTH 10 0
BBX 8 7 1 0
BITMAP
89
89
89
89
89
9B
65
ENDCHAR
STARTCHAR 0270
ENCODING 624
SWIDTH 833 0
DWIDTH 10 0
BBX 8 9 1 -2
BITMAP
91
91
91
91
91
93
ED
01
01
ENDCHAR
STARTCHAR 0271
ENCODING 625
SWIDTH 833 0
DWIDTH 10 0
BBX 8 10 1 -3
BITMAP
F7
99
91
91
91
91
91
01
01
03
ENDCHAR
STARTCHAR 0272
ENCODING 626
SWIDTH 583 0
DWIDTH 7 0
BBX 6 10 0 -3
BITMAP
58
64
44
44
44
44
44
40
40
C0
ENDCHAR
STARTCHAR 0273
ENCODING 627
SWIDTH 583 0
DWIDTH 7 0
BBX 6 10 1 -3
BITMAP
B0
C8
88
88
88
88
88
08
08
0C
ENDCHAR
STARTCHAR 0274
ENCODING 628
SWIDTH 583 0
DWIDTH 7 0
BBX 5 7 1 0
BITMAP
C8
C8
C8
A8
A8
98
98
ENDCHAR
STARTCHAR 0275
ENCODING 629
SWIDTH 500 0
DWIDTH 6 0
BBX 6 7 0 0
BITMAP
78
CC
84
FC
84
CC
78
ENDCHAR
STARTCHAR 0276
ENCODING 630
SWIDTH 750 0
DWIDTH 9 0
BBX 9 7 0 0
BITMAP
7F80
C400
8400
8700
8400
C400
7F80
ENDCHAR
STARTCHAR 0277
ENCODING 631
SWIDTH 750 0
DWIDTH 9 0
BBX 8 7 0 0
BITMAP
3E
42
89
89
89
89
76
ENDCHAR
STARTCHAR 0278
ENCODING 632
SWIDTH 666 0
DWIDTH 8 0
BBX 8 11 0 -2
BITMAP
08
08
3E
CA
89
89
89
4B
3E
08
08
ENDCHAR
STARTCHAR 0279
ENCODING 633
SWIDTH 333 0
DWIDTH 4 0
BBX 3 7 0 0
BITMAP
20
20
20
20
20
60
A0
ENDCHAR
STARTCHAR 027A
ENCODING 634
SWIDTH 333 0
DWIDTH 4 0
BBX 3 9 0 -1
BITMAP
20
20
20
20
20
20
20
20
E0
ENDCHAR
STARTCHAR 027B
ENCODING 635
SWIDTH 416 0
DWIDTH 5 0
BBX 4 10 0 -3
BITMAP
20
20
20
20
20
60
A0
20
20
30
ENDCHAR
STARTCHAR 027C
ENCODING 636
SWIDTH 333 0
DWIDTH 4 0
BBX 3 9 1 -2
BITMAP
E0
80
80
80
80
80
80
80
80
ENDCHAR
STARTCHAR 027D
ENCODING 637
SWIDTH 333 0
DWIDTH 4 0
BBX 3 10 1 -3
BITMAP
A0
C0
80
80
80
80
80
80
80
C0
ENDCHAR
STARTCHAR 027E
ENCODING 638
SWIDTH 333 0
DWIDTH 4 0
BBX 3 7 1 0
BITMAP
E0
A0
80
80
80
80
80
ENDCHAR
STARTCHAR 027F
ENCODING 639
SWIDTH 333 0
DWIDTH 4 0
BBX 4 8 0 -1
BITMAP
F0
90
10
10
10
10
10
10
ENDCHAR
STARTCHAR 0280
ENCODING 640
SWIDTH 500 0
DWIDTH 6 0
BBX 4 7 1 0
BITMAP
F0
90
90
E0
A0
90
90
ENDCHAR
STARTCHAR 0281
ENCODING 641
SWIDTH 500 0
DWIDTH 6 0
BBX 5 7 0 0
BITMAP
88
98
B0
F8
88
88
F0
ENDCHAR
STARTCHAR 0282
ENCODING 642
SWIDTH 500 0
DWIDTH 6 0
BBX 5 10 0 -3
BITMAP
70
88
80
70
08
88
F0
80
80
C0
ENDCHAR
STARTCHAR 0283
ENCODING 643
SWIDTH 333 0
DWIDTH 4 0
BBX 3 12 0 -3
BITMAP
60
40
40
40
40
40
40
40
40
40
40
C0
ENDCHAR
STARTCHAR 0284
ENCODING 644
SWIDTH 333 0
DWIDTH 4 0
BBX 3 12 0 -3
BITMAP
60
40
40
40
40
E0
40
40
40
40
40
C0
ENDCHAR
STARTCHAR 0285
ENCODING 645
SWIDTH 333 0
DWIDTH 4 0
BBX 3 10 0 -3
BITMAP
C0
40
40
40
40
40
40
40
40
60
ENDCHAR
STARTCHAR 0286
ENCODING 646
SWIDTH 500 0
DWIDTH 6 0
BBX 5 12 0 -3
BITMAP
18
10
10
10
10
10
10
10
10
F0
98
F0
ENDCHAR
STARTCHAR 0287
ENCODING 647
SWIDTH 250 0
DWIDTH 3 0
BBX 3 8 0 1
BITMAP
C0
40
40
40
40
40
E0
40
ENDCHAR
STARTCHAR 0288
ENCODING 648
SWIDTH 250 0
DWIDTH 3 0
BBX 3 11 0 -3
BITMAP
40
E0
40
40
40
40
40
40
40
40
60
ENDCHAR
STARTCHAR 0289
ENCODING 649
SWIDTH 583 0
DWIDTH 7 0
BBX 7 7 0 0
BITMAP
44
44
44
FE
44
44
7C
ENDCHAR
STARTCHAR 028A
ENCODING 650
SWIDTH 583 0
DWIDTH 7 0
BBX 7 7 0 0
BITMAP
EE
44
82
82
82
44
38
ENDCHAR
STARTCHAR 028B
ENCODING 651
SWIDTH 500 0
DWIDTH 6 0
BBX 5 7 1 0
BITMAP
80
90
88
88
88
90
E0
ENDCHAR
STARTCHAR 028C
ENCODING 652
SWIDTH 500 0
DWIDTH 6 0
BBX 6 7 0 0
BITMAP
30
30
30
48
48
48
84
ENDCHAR
STARTCHAR 028D
ENCODING 653
SWIDTH 750 0
DWIDTH 9 0
BBX 9 7 0 0
BITMAP
2200
5600
5500
5500
5900
8900
8880
ENDCHAR
STARTCHAR 028E
ENCODING 654
SWIDTH 500 0
DWIDTH 6 0
BBX 6 10 0 0
BITMAP
18
10
20
30
30
50
58
48
88
8C
ENDCHAR
STARTCHAR 028F
ENCODING 655
SWIDTH 500 0
DWIDTH 6 0
BBX 5 7 1 0
BITMAP
88
D8
50
20
20
20
20
ENDCHAR
STARTCHAR 0290
ENCODING 656
SWIDTH 583 0
DWIDTH 7 0
BBX 6 9 0 -3
BITMAP
F8
10
20
60
C0
F8
08
08
0C
ENDCHAR
STARTCHAR 0291
ENCODING 657
SWIDTH 500 0
DWIDTH 6 0
BBX 6 8 0 -1
BITMAP
7C
08
10
30
3C
54
FC
10
ENDCHAR
STARTCHAR 0292
ENCODING 658
SWIDTH 500 0
DWIDTH 6 0
BBX 6 9 0 -2
BITMAP
FC
08
10
10
0C
04
04
8C
78
ENDCHAR
STARTCHAR 0293
ENCODING 659
SWIDTH 500 0
DWIDTH 6 0
BBX 5 9 0 -2
BITMAP
F8
10
10
20
18
08
78
48
70
ENDCHAR
STARTCHAR 0294
ENCODING 660
SWIDTH 500 0
DWIDTH 6 0
BBX 6 9 0 0
BITMAP
78
8C
04
04
38
20
20
20
20
ENDCHAR
STARTCHAR 0295
ENCODING 661
SWIDTH 500 0
DWIDTH 6 0
BBX 6 9 0 0
BITMAP
78
C4
80
80
70
10
10
10
10
ENDCHAR
STARTCHAR 0296
ENCODING 662
SWIDTH 500 0
DWIDTH 6 0
BBX 6 9 0 -1
BITMAP
10
10
10
10
10
70
80
84
7C
ENDCHAR
STARTCHAR 0297
ENCODING 663
SWIDTH 666 0
DWIDTH 8 0
BBX 8 12 0 -3
BITMAP
3E
41
C0
80
80
80
80
80
80
C1
43
3E
ENDCHAR
STARTCHAR 0298
ENCODING 664
SWIDTH 750 0
DWIDTH 9 0
BBX 9 9 0 0
BITMAP
3E00
6300
C180
8880
8080
8080
C180
6300
3E00
ENDCHAR
STARTCHAR 0299
ENCODING 665
SWIDTH 500 0
DWIDTH 6 0
BBX 4 6 1 1
BITMAP
F0
90
F0
90
90
F0
ENDCHAR
STARTCHAR 029A
ENCODING 666
SWIDTH 500 0
DWIDTH 6 0
BBX 5 7 1 0
BITMAP
70
88
88
48
88
88
70
ENDCHAR
STARTCHAR 029B
ENCODING 667
SWIDTH 583 0
DWIDTH 7 0
BBX 7 7 0 1
BITMAP
7E
C4
80
8C
84
CC
74
ENDCHAR
STARTCHAR 029C
ENCODING 668
SWIDTH 500 0
DWIDTH 6 0
BBX 5 7 1 0
BITMAP
88
88
88
F8
88
88
88
ENDCHAR
STARTCHAR 029D
ENCODING 669
SWIDTH 500 0
DWIDTH 6 0
BBX 5 12 0 -3
BITMAP
10
00
10
10
10
10
10
10
10
F0
98
F0
ENDCHAR
STARTCHAR 029E
ENCODING 670
SWIDTH 500 0
DWIDTH 6 0
BBX 5 9 0 -2
BITMAP
C8
48
68
38
28
68
C8
08
08
ENDCHAR
STARTCHAR 029F
ENCODING 671
SWIDTH 416 0
DWIDTH 5 0
BBX 3 7 1 0
BITMAP
80
80
80
80
80
80
E0
ENDCHAR
STARTCHAR 02A0
ENCODING 672
SWIDTH 583 0
DWIDTH 7 0
BBX 7 10 0 -2
BITMAP
06
7C
CC
84
84
84
CC
74
04
04
ENDCHAR
STARTCHAR 02A1
ENCODING 673
SWIDTH 500 0
DWIDTH 6 0
BBX 6 9 0 0
BITMAP
78
8C
04
04
38
70
20
20
20
ENDCHAR
STARTCHAR 02A2
ENCODING 674
SWIDTH 500 0
DWIDTH 6 0
BBX 6 9 0 0
BITMAP
78
C4
80
80
70
38
10
10
10
ENDCHAR
STARTCHAR 02A3
ENCODING 675
SWIDTH 916 0
DWIDTH 11 0
BBX 10 9 0 0
BITMAP
0400
0400
7FC0
CC40
8480
8500
8600
CE00
7FC0
ENDCHAR
STARTCHAR 02A4
ENCODING 676
SWIDTH 1000 0
DWIDTH 12 0
BBX 11 11 0 -2
BITMAP
0400
0400
7FC0
CC40
8480
84C0
8420
CC20
7420
0260
01C0
ENDCHAR
STARTCHAR 02A5
ENCODING 677
SWIDTH 916 0
DWIDTH 11 0
BBX 11 10 0 -1
BITMAP
0400
0400
7FC0
CC40
8480
8500
85E0
CEA0
7FE0
0080
ENDCHAR
STARTCHAR 02A6
ENCODING 678
SWIDTH 666 0
DWIDTH 8 0
BBX 8 8 0 0
BITMAP
40
EE
51
50
4C
43
41
7E
ENDCHAR
STARTCHAR 02A7
ENCODING 679
SWIDTH 500 0
DWIDTH 6 0
BBX 6 12 0 -3
BITMAP
0C
48
F8
48
48
48
48
48
78
08
08
18
ENDCHAR
STARTCHAR 02A8
ENCODING 680
SWIDTH 750 0
DWIDTH 9 0
BBX 9 9 0 -1
BITMAP
4000
EF00
5880
5000
5000
5380
5A80
7F80
0200
ENDCHAR
STARTCHAR 02A9
ENCODING 681
SWIDTH 833 0
DWIDTH 10 0
BBX 9 11 0 -2
BITMAP
6000
4000
FB00
4C80
4880
4880
4880
4880
4880
0080
0180
ENDCHAR
STARTCHAR 02AA
ENCODING 682
SWIDTH 666 0
DWIDTH 8 0
BBX 6 9 1 0
BITMAP
80
80
98
A4
A0
B8
84
C4
B8
ENDCHAR
STARTCHAR 02AB
ENCODING 683
SWIDTH 583 0
DWIDTH 7 0
BBX 5 9 1 0
BITMAP
80
80
F8
88
90
A0
C0
C0
F8
ENDCHAR
STARTCHAR 02AC
ENCODING 684
SWIDTH 500 0
DWIDTH 6 0
BBX 6 10 1 0
BITMAP
A4
A8
B8
D8
50
A4
A8
B8
D8
50
ENDCHAR
STARTCHAR 02AD
ENCODING 685
SWIDTH 500 0
DWIDTH 6 0
BBX 6 6 0 2
BITMAP
FC
00
00
00
00
FC
ENDCHAR
STARTCHAR 02AE
ENCODING 686
SWIDTH 583 0
DWIDTH 7 0
BBX 6 10 0 -1
BITMAP
C0
40
44
44
44
44
44
4C
34
04
ENDCHAR
STARTCHAR 02AF
ENCODING 687
SWIDTH 583 0
DWIDTH 7 0
BBX 7 12 0 -3
BITMAP
C0
40
40
44
44
44
44
44
3C
04
04
06
ENDCHAR
STARTCHAR 02B0
ENCODING 688
SWIDTH 333 0
DWIDTH 4 0
BBX 4 5 0 6
BITMAP
A0
50
90
90
10
ENDCHAR
STARTCHAR 02B1
ENCODING 689
SWIDTH 333 0
DWIDTH 4 0
BBX 4 6 0 5
BITMAP
40
A0
50
90
90
10
ENDCHAR
STARTCHAR 02B2
ENCODING 690
SWIDTH 166 0
DWIDTH 2 0
BBX 1 6 0 5
BITMAP
80
80
80
80
80
80
ENDCHAR
STARTCHAR 02B3
ENCODING 691
SWIDTH 250 0
DWIDTH 3 0
BBX 3 4 0 5
BITMAP
20
40
80
80
ENDCHAR
STARTCHAR 02B4
ENCODING 692
SWIDTH 250 0
DWIDTH 3 0
BBX 2 4 0 5
BITMAP
40
40
40
80
ENDCHAR
STARTCHAR 02B5
ENCODING 693
SWIDTH 250 0
DWIDTH 3 0
BBX 3 6 1 3
BITMAP
40
40
40
C0
40
60
ENDCHAR
STARTCHAR 02B6
ENCODING 694
SWIDTH 333 0
DWIDTH 4 0
BBX 4 5 0 4
BITMAP
90
A0
E0
90
E0
ENDCHAR
STARTCHAR 02B7
ENCODING 695
SWIDTH 500 0
DWIDTH 6 0
BBX 6 5 0 5
BITMAP
A4
A8
B8
D8
50
ENDCHAR
STARTCHAR 02B8
ENCODING 696
SWIDTH 333 0
DWIDTH 4 0
BBX 4 7 0 3
BITMAP
90
A0
A0
60
40
40
C0
ENDCHAR
STARTCHAR 02B9
ENCODING 697
SWIDTH 250 0
DWIDTH 3 0
BBX 2 3 1 5
BITMAP
40
80
80
ENDCHAR
STARTCHAR 02BA
ENCODING 698
SWIDTH 416 0
DWIDTH 5 0
BBX 5 3 1 5
BITMAP
48
90
90
ENDCHAR
STARTCHAR 02BB
ENCODING 699
SWIDTH 250 0
DWIDTH 3 0
BBX 1 4 1 6
BITMAP
80
80
80
80
ENDCHAR
STARTCHAR 02BC
ENCODING 700
SWIDTH 250 0
DWIDTH 3 0
BBX 1 4 1 5
BITMAP
80
80
80
80
ENDCHAR
STARTCHAR 02BD
ENCODING 701
SWIDTH 250 0
DWIDTH 3 0
BBX 1 4 1 5
BITMAP
80
80
80
80
ENDCHAR
STARTCHAR 02BE
ENCODING 702
SWIDTH 250 0
DWIDTH 3 0
BBX 2 3 0 6
BITMAP
80
40
80
ENDCHAR
STARTCHAR 02BF
ENCODING 703
SWIDTH 250 0
DWIDTH 3 0
BBX 2 3 1 7
BITMAP
40
80
40
ENDCHAR
STARTCHAR 02C0
ENCODING 704
SWIDTH 333 0
DWIDTH 4 0
BBX 4 5 0 5
BITMAP
60
90
10
20
20
ENDCHAR
STARTCHAR 02C1
ENCODING 705
SWIDTH 333 0
DWIDTH 4 0
BBX 4 5 0 5
BITMAP
60
90
80
60
20
ENDCHAR
STARTCHAR 02C2
ENCODING 706
SWIDTH 333 0
DWIDTH 4 0
BBX 2 2 1 7
BITMAP
40
C0
ENDCHAR
STARTCHAR 02C3
ENCODING 707
SWIDTH 333 0
DWIDTH 4 0
BBX 2 2 1 7
BITMAP
80
C0
ENDCHAR
STARTCHAR 02C4
ENCODING 708
SWIDTH 333 0
DWIDTH 4 0
BBX 3 2 1 7
BITMAP
C0
A0
ENDCHAR
STARTCHAR 02C5
ENCODING 709
SWIDTH 333 0
DWIDTH 4 0
BBX 3 2 0 7
BITMAP
A0
C0
ENDCHAR
STARTCHAR 02C6
ENCODING 710
SWIDTH 333 0
DWIDTH 4 0
BBX 3 1 0 8
BITMAP
E0
ENDCHAR
STARTCHAR 02C7
ENCODING 711
SWIDTH 333 0
DWIDTH 4 0
BBX 1 1 0 8
BITMAP
80
ENDCHAR
STARTCHAR 02C8
ENCODING 712
SWIDTH 250 0
DWIDTH 3 0
BBX 1 2 2 7
BITMAP
80
80
ENDCHAR
STARTCHAR 02C9
ENCODING 713
SWIDTH 333 0
DWIDTH 4 0
BBX 3 1 0 8
BITMAP
E0
ENDCHAR
STARTCHAR 02CA
ENCODING 714
SWIDTH 333 0
DWIDTH 4 0
BBX 1 1 1 9
BITMAP
80
ENDCHAR
STARTCHAR 02CB
ENCODING 715
SWIDTH 333 0
DWIDTH 4 0
BBX 1 1 1 8
BITMAP
80
ENDCHAR
STARTCHAR 02CC
ENCODING 716
SWIDTH 250 0
DWIDTH 3 0
BBX 1 2 1 -3
BITMAP
80
80
ENDCHAR
STARTCHAR 02CD
ENCODING 717
SWIDTH 333 0
DWIDTH 4 0
BBX 3 1 0 -1
BITMAP
E0
ENDCHAR
STARTCHAR 02CE
ENCODING 718
SWIDTH 333 0
DWIDTH 4 0
BBX 1 1 2 -1
BITMAP
80
ENDCHAR
STARTCHAR 02CF
ENCODING 719
SWIDTH 333 0
DWIDTH 4 0
BBX 1 1 0 -1
BITMAP
80
ENDCHAR
STARTCHAR 02D0
ENCODING 720
SWIDTH 333 0
DWIDTH 4 0
BBX 2 5 1 1
BITMAP
80
00
00
00
40
ENDCHAR
STARTCHAR 02D1
ENCODING 721
SWIDTH 333 0
DWIDTH 4 0
BBX 1 1 1 5
BITMAP
80
ENDCHAR
STARTCHAR 02D2
ENCODING 722
SWIDTH 250 0
DWIDTH 3 0
BBX 2 3 0 -1
BITMAP
80
40
80
ENDCHAR
STARTCHAR 02D3
ENCODING 723
SWIDTH 250 0
DWIDTH 3 0
BBX 2 3 1 0
BITMAP
40
80
40
ENDCHAR
STARTCHAR 02D4
ENCODING 724
SWIDTH 333 0
DWIDTH 4 0
BBX 3 3 1 2
BITMAP
40
40
E0
ENDCHAR
STARTCHAR 02D5
ENCODING 725
SWIDTH 333 0
DWIDTH 4 0
BBX 3 3 0 2
BITMAP
E0
40
40
ENDCHAR
STARTCHAR 02D6
ENCODING 726
SWIDTH 333 0
DWIDTH 4 0
BBX 3 3 1 2
BITMAP
40
E0
40
ENDCHAR
STARTCHAR 02D7
ENCODING 727
SWIDTH 333 0
DWIDTH 4 0
BBX 3 1 0 3
BITMAP
E0
ENDCHAR
STARTCHAR 02D8
ENCODING 728
SWIDTH 333 0
DWIDTH 4 0
BBX 4 2 0 7
BITMAP
90
60
ENDCHAR
STARTCHAR 02D9
ENCODING 729
SWIDTH 333 0
DWIDTH 4 0
BBX 1 1 1 7
BITMAP
80
ENDCHAR
STARTCHAR 02DA
ENCODING 730
SWIDTH 333 0
DWIDTH 4 0
BBX 3 3 1 7
BITMAP
E0
A0
E0
ENDCHAR
STARTCHAR 02DB
ENCODING 731
SWIDTH 333 0
DWIDTH 4 0
BBX 3 2 1 -2
BITMAP
80
E0
ENDCHAR
STARTCHAR 02DC
ENCODING 732
SWIDTH 333 0
DWIDTH 4 0
BBX 4 2 0 7
BITMAP
D0
B0
ENDCHAR
STARTCHAR 02DD
ENCODING 733
SWIDTH 333 0
DWIDTH 4 0
BBX 3 1 0 8
BITMAP
A0
ENDCHAR
STARTCHAR 02DE
ENCODING 734
SWIDTH 333 0
DWIDTH 4 0
BBX 4 4 0 3
BITMAP
C0
C0
20
30
ENDCHAR
STARTCHAR 02DF
ENCODING 735
SWIDTH 333 0
DWIDTH 4 0
BBX 3 2 0 8
BITMAP
40
A0
ENDCHAR
STARTCHAR 02E0
ENCODING 736
SWIDTH 333 0
DWIDTH 4 0
BBX 3 7 0 3
BITMAP
80
A0
A0
40
40
A0
40
ENDCHAR
STARTCHAR 02E1
ENCODING 737
SWIDTH 166 0
DWIDTH 2 0
BBX 1 4 0 6
BITMAP
80
80
80
80
ENDCHAR
STARTCHAR 02E2
ENCODING 738
SWIDTH 333 0
DWIDTH 4 0
BBX 3 4 0 6
BITMAP
C0
40
20
60
ENDCHAR
STARTCHAR 02E3
ENCODING 739
SWIDTH 333 0
DWIDTH 4 0
BBX 4 5 0 5
BITMAP
90
60
40
60
80
ENDCHAR
STARTCHAR 02E4
ENCODING 740
SWIDTH 333 0
DWIDTH 4 0
BBX 3 6 0 5
BITMAP
60
80
80
60
20
20
ENDCHAR
STARTCHAR 02E5
ENCODING 741
SWIDTH 500 0
DWIDTH 6 0
BBX 4 10 2 0
BITMAP
F0
10
10
10
10
10
10
10
10
10
ENDCHAR
STARTCHAR 02E6
ENCODING 742
SWIDTH 500 0
DWIDTH 6 0
BBX 4 9 2 0
BITMAP
10
F0
10
10
10
10
10
10
10
ENDCHAR
STARTCHAR 02E7
ENCODING 743
SWIDTH 500 0
DWIDTH 6 0
BBX 4 9 2 0
BITMAP
10
10
10
10
F0
10
10
10
10
ENDCHAR
STARTCHAR 02E8
ENCODING 744
SWIDTH 500 0
DWIDTH 6 0
BBX 4 9 2 0
BITMAP
10
10
10
10
10
10
F0
10
10
ENDCHAR
STARTCHAR 02E9
ENCODING 745
SWIDTH 500 0
DWIDTH 6 0
BBX 4 9 2 0
BITMAP
10
10
10
10
10
10
10
10
F0
ENDCHAR
STARTCHAR 02EA
ENCODING 746
SWIDTH 500 0
DWIDTH 6 0
BBX 4 7 1 0
BITMAP
80
80
80
80
80
80
F0
ENDCHAR
STARTCHAR 02EB
ENCODING 747
SWIDTH 500 0
DWIDTH 6 0
BBX 4 7 1 0
BITMAP
80
80
80
F0
80
80
80
ENDCHAR
STARTCHAR 02EC
ENCODING 748
SWIDTH 333 0
DWIDTH 4 0
BBX 1 1 0 -1
BITMAP
80
ENDCHAR
STARTCHAR 02ED
ENCODING 749
SWIDTH 333 0
DWIDTH 4 0
BBX 3 2 0 8
BITMAP
E0
E0
ENDCHAR
STARTCHAR 02EE
ENCODING 750
SWIDTH 416 0
DWIDTH 5 0
BBX 3 3 1 6
BITMAP
A0
A0
A0
ENDCHAR
STARTCHAR 02EF
ENCODING 751
SWIDTH 333 0
DWIDTH 4 0
BBX 3 2 0 -2
BITMAP
A0
C0
ENDCHAR
STARTCHAR 02F0
ENCODING 752
SWIDTH 333 0
DWIDTH 4 0
BBX 3 2 1 -2
BITMAP
C0
A0
ENDCHAR
STARTCHAR 02F1
ENCODING 753
SWIDTH 333 0
DWIDTH 4 0
BBX 2 2 1 -2
BITMAP
40
C0
ENDCHAR
STARTCHAR 02F2
ENCODING 754
SWIDTH 333 0
DWIDTH 4 0
BBX 2 2 1 -2
BITMAP
80
C0
ENDCHAR
STARTCHAR 02F3
ENCODING 755
SWIDTH 333 0
DWIDTH 4 0
BBX 3 3 1 -3
BITMAP
E0
A0
E0
ENDCHAR
STARTCHAR 02F4
ENCODING 756
SWIDTH 250 0
DWIDTH 3 0
BBX 1 1 1 5
BITMAP
80
ENDCHAR
STARTCHAR 02F5
ENCODING 757
SWIDTH 333 0
DWIDTH 4 0
BBX 3 1 1 5
BITMAP
A0
ENDCHAR
STARTCHAR 02F6
ENCODING 758
SWIDTH 333 0
DWIDTH 4 0
BBX 3 1 0 5
BITMAP
A0
ENDCHAR
STARTCHAR 02F7
ENCODING 759
SWIDTH 333 0
DWIDTH 4 0
BBX 4 2 0 -2
BITMAP
D0
B0
ENDCHAR
STARTCHAR 02F8
ENCODING 760
SWIDTH 250 0
DWIDTH 3 0
BBX 1 7 1 1
BITMAP
80
00
00
00
00
00
80
ENDCHAR
STARTCHAR 02F9
ENCODING 761
SWIDTH 166 0
DWIDTH 2 0
BBX 2 2 0 7
BITMAP
C0
80
ENDCHAR
STARTCHAR 02FA
ENCODING 762
SWIDTH 166 0
DWIDTH 2 0
BBX 2 2 0 7
BITMAP
C0
40
ENDCHAR
STARTCHAR 02FB
ENCODING 763
SWIDTH 166 0
DWIDTH 2 0
BBX 2 2 0 -1
BITMAP
80
C0
ENDCHAR
STARTCHAR 02FC
ENCODING 764
SWIDTH 166 0
DWIDTH 2 0
BBX 2 2 0 -1
BITMAP
40
C0
ENDCHAR
STARTCHAR 02FD
ENCODING 765
SWIDTH 333 0
DWIDTH 4 0
BBX 4 2 0 -2
BITMAP
90
F0
ENDCHAR
STARTCHAR 02FE
ENCODING 766
SWIDTH 333 0
DWIDTH 4 0
BBX 3 2 0 -2
BITMAP
80
E0
ENDCHAR
STARTCHAR 02FF
ENCODING 767
SWIDTH 333 0
DWIDTH 4 0
BBX 4 1 0 -3
BITMAP
F0
ENDCHAR
STARTCHAR 0300
ENCODING 768
SWIDTH 0 0
DWIDTH 0 0
BBX 1 1 -3 8
BITMAP
80
ENDCHAR
STARTCHAR 0301
ENCODING 769
SWIDTH 0 0
DWIDTH 0 0
BBX 1 1 -3 8
BITMAP
80
ENDCHAR
STARTCHAR 0302
ENCODING 770
SWIDTH 0 0
DWIDTH 0 0
BBX 3 1 -4 8
BITMAP
E0
ENDCHAR
STARTCHAR 0303
ENCODING 771
SWIDTH 0 0
DWIDTH 0 0
BBX 4 2 -4 7
BITMAP
D0
B0
ENDCHAR
STARTCHAR 0304
ENCODING 772
SWIDTH 0 0
DWIDTH 0 0
BBX 3 1 -4 8
BITMAP
E0
ENDCHAR
STARTCHAR 0305
ENCODING 773
SWIDTH 0 0
DWIDTH 0 0
BBX 6 1 -5 8
BITMAP
FC
ENDCHAR
STARTCHAR 0306
ENCODING 774
SWIDTH 0 0
DWIDTH 0 0
BBX 4 2 -4 7
BITMAP
90
60
ENDCHAR
STARTCHAR 0307
ENCODING 775
SWIDTH 0 0
DWIDTH 0 0
BBX 1 1 -3 7
BITMAP
80
ENDCHAR
STARTCHAR 0308
ENCODING 776
SWIDTH 0 0
DWIDTH 0 0
BBX 3 1 -4 7
BITMAP
A0
ENDCHAR
STARTCHAR 0309
ENCODING 777
SWIDTH 0 0
DWIDTH 0 0
BBX 2 3 -3 7
BITMAP
C0
40
C0
ENDCHAR
STARTCHAR 030A
ENCODING 778
SWIDTH 0 0
DWIDTH 0 0
BBX 3 3 -3 7
BITMAP
E0
A0
E0
ENDCHAR
STARTCHAR 030B
ENCODING 779
SWIDTH 0 0
DWIDTH 0 0
BBX 2 1 -3 9
BITMAP
C0
ENDCHAR
STARTCHAR 030C
ENCODING 780
SWIDTH 0 0
DWIDTH 0 0
BBX 1 1 -4 8
BITMAP
80
ENDCHAR
STARTCHAR 030D
ENCODING 781
SWIDTH 0 0
DWIDTH 0 0
BBX 1 2 -2 7
BITMAP
80
80
ENDCHAR
STARTCHAR 030E
ENCODING 782
SWIDTH 0 0
DWIDTH 0 0
BBX 3 2 -3 7
BITMAP
A0
A0
ENDCHAR
STARTCHAR 030F
ENCODING 783
SWIDTH 0 0
DWIDTH 0 0
BBX 3 1 -4 8
BITMAP
A0
ENDCHAR
STARTCHAR 0310
ENCODING 784
SWIDTH 0 0
DWIDTH 0 0
BBX 4 2 -4 8
BITMAP
D0
60
ENDCHAR
STARTCHAR 0311
ENCODING 785
SWIDTH 0 0
DWIDTH 0 0
BBX 4 2 -4 6
BITMAP
60
90
ENDCHAR
STARTCHAR 0312
ENCODING 786
SWIDTH 0 0
DWIDTH 0 0
BBX 1 2 -3 6
BITMAP
80
80
ENDCHAR
STARTCHAR 0313
ENCODING 787
SWIDTH 0 0
DWIDTH 0 0
BBX 1 2 -2 7
BITMAP
80
80
ENDCHAR
STARTCHAR 0314
ENCODING 788
SWIDTH 0 0
DWIDTH 0 0
BBX 1 2 -3 7
BITMAP
80
80
ENDCHAR
STARTCHAR 0315
ENCODING 789
SWIDTH 0 0
DWIDTH 0 0
BBX 1 2 0 8
BITMAP
80
80
ENDCHAR
STARTCHAR 0316
ENCODING 790
SWIDTH 0 0
DWIDTH 0 0
BBX 2 2 -4 -2
BITMAP
80
40
ENDCHAR
STARTCHAR 0317
ENCODING 791
SWIDTH 0 0
DWIDTH 0 0
BBX 1 1 -2 -2
BITMAP
80
ENDCHAR
STARTCHAR 0318
ENCODING 792
SWIDTH 0 0
DWIDTH 0 0
BBX 2 3 -3 -3
BITMAP
40
C0
40
ENDCHAR
STARTCHAR 0319
ENCODING 793
SWIDTH 0 0
DWIDTH 0 0
BBX 2 3 -3 -4
BITMAP
80
C0
80
ENDCHAR
STARTCHAR 031A
ENCODING 794
SWIDTH 0 0
DWIDTH 0 0
BBX 3 3 -2 6
BITMAP
E0
20
20
ENDCHAR
STARTCHAR 031B
ENCODING 795
SWIDTH 0 0
DWIDTH 0 0
BBX 2 2 -1 7
BITMAP
40
C0
ENDCHAR
STARTCHAR 031C
ENCODING 796
SWIDTH 0 0
DWIDTH 0 0
BBX 2 3 -3 -3
BITMAP
40
80
40
ENDCHAR
STARTCHAR 031D
ENCODING 797
SWIDTH 0 0
DWIDTH 0 0
BBX 3 2 -3 -2
BITMAP
40
E0
ENDCHAR
STARTCHAR 031E
ENCODING 798
SWIDTH 0 0
DWIDTH 0 0
BBX 3 2 -3 -2
BITMAP
E0
40
ENDCHAR
STARTCHAR 031F
ENCODING 799
SWIDTH 0 0
DWIDTH 0 0
BBX 3 3 -3 -3
BITMAP
40
E0
40
ENDCHAR
STARTCHAR 0320
ENCODING 800
SWIDTH 0 0
DWIDTH 0 0
BBX 3 1 -5 -2
BITMAP
E0
ENDCHAR
STARTCHAR 0321
ENCODING 801
SWIDTH 0 0
DWIDTH 0 0
BBX 2 3 -2 -3
BITMAP
40
40
C0
ENDCHAR
STARTCHAR 0322
ENCODING 802
SWIDTH 0 0
DWIDTH 0 0
BBX 2 3 -1 -3
BITMAP
80
80
C0
ENDCHAR
STARTCHAR 0323
ENCODING 803
SWIDTH 0 0
DWIDTH 0 0
BBX 1 1 -4 -3
BITMAP
80
ENDCHAR
STARTCHAR 0324
ENCODING 804
SWIDTH 0 0
DWIDTH 0 0
BBX 3 1 -5 -3
BITMAP
A0
ENDCHAR
STARTCHAR 0325
ENCODING 805
SWIDTH 0 0
DWIDTH 0 0
BBX 3 3 -4 -2
BITMAP
E0
A0
60
ENDCHAR
STARTCHAR 0326
ENCODING 806
SWIDTH 0 0
DWIDTH 0 0
BBX 1 3 -3 -4
BITMAP
80
80
80
ENDCHAR
STARTCHAR 0327
ENCODING 807
SWIDTH 0 0
DWIDTH 0 0
BBX 3 3 -4 -3
BITMAP
60
20
E0
ENDCHAR
STARTCHAR 0328
ENCODING 808
SWIDTH 0 0
DWIDTH 0 0
BBX 3 2 -3 -2
BITMAP
80
E0
ENDCHAR
STARTCHAR 0329
ENCODING 809
SWIDTH 0 0
DWIDTH 0 0
BBX 1 2 -3 -3
BITMAP
80
80
ENDCHAR
STARTCHAR 032A
ENCODING 810
SWIDTH 0 0
DWIDTH 0 0
BBX 4 1 -4 -2
BITMAP
F0
ENDCHAR
STARTCHAR 032B
ENCODING 811
SWIDTH 0 0
DWIDTH 0 0
BBX 4 2 -4 -2
BITMAP
B0
D0
ENDCHAR
STARTCHAR 032C
ENCODING 812
SWIDTH 0 0
DWIDTH 0 0
BBX 3 2 -4 -2
BITMAP
A0
40
ENDCHAR
STARTCHAR 032D
ENCODING 813
SWIDTH 0 0
DWIDTH 0 0
BBX 3 1 -3 -2
BITMAP
E0
ENDCHAR
STARTCHAR 032E
ENCODING 814
SWIDTH 0 0
DWIDTH 0 0
BBX 4 2 -4 -2
BITMAP
F0
60
ENDCHAR
STARTCHAR 032F
ENCODING 815
SWIDTH 0 0
DWIDTH 0 0
BBX 4 2 -4 -2
BITMAP
F0
90
ENDCHAR
STARTCHAR 0330
ENCODING 816
SWIDTH 0 0
DWIDTH 0 0
BBX 4 2 -5 -2
BITMAP
70
90
ENDCHAR
STARTCHAR 0331
ENCODING 817
SWIDTH 0 0
DWIDTH 0 0
BBX 3 1 -5 -2
BITMAP
E0
ENDCHAR
STARTCHAR 0332
ENCODING 818
SWIDTH 0 0
DWIDTH 0 0
BBX 7 1 -7 -2
BITMAP
FE
ENDCHAR
STARTCHAR 0333
ENCODING 819
SWIDTH 0 0
DWIDTH 0 0
BBX 7 2 -7 -3
BITMAP
FE
FE
ENDCHAR
STARTCHAR 0334
ENCODING 820
SWIDTH 0 0
DWIDTH 0 0
BBX 4 2 -5 2
BITMAP
D0
B0
ENDCHAR
STARTCHAR 0335
ENCODING 821
SWIDTH 0 0
DWIDTH 0 0
BBX 3 1 -5 4
BITMAP
E0
ENDCHAR
STARTCHAR 0336
ENCODING 822
SWIDTH 0 0
DWIDTH 0 0
BBX 7 1 -8 3
BITMAP
FE
ENDCHAR
STARTCHAR 0337
ENCODING 823
SWIDTH 0 0
DWIDTH 0 0
BBX 7 7 -8 1
BITMAP
02
04
08
10
20
40
80
ENDCHAR
STARTCHAR 0338
ENCODING 824
SWIDTH 0 0
DWIDTH 0 0
BBX 7 9 -8 0
BITMAP
02
04
08
10
10
20
40
80
80
ENDCHAR
STARTCHAR 0339
ENCODING 825
SWIDTH 0 0
DWIDTH 0 0
BBX 2 3 -4 -4
BITMAP
80
40
80
ENDCHAR
STARTCHAR 033A
ENCODING 826
SWIDTH 0 0
DWIDTH 0 0
BBX 4 1 -5 -2
BITMAP
F0
ENDCHAR
STARTCHAR 033B
ENCODING 827
SWIDTH 0 0
DWIDTH 0 0
BBX 3 4 -4 -4
BITMAP
E0
A0
A0
E0
ENDCHAR
STARTCHAR 033C
ENCODING 828
SWIDTH 0 0
DWIDTH 0 0
BBX 5 2 -5 -2
BITMAP
D8
A8
ENDCHAR
STARTCHAR 033D
ENCODING 829
SWIDTH 0 0
DWIDTH 0 0
BBX 3 2 -4 7
BITMAP
A0
E0
ENDCHAR
STARTCHAR 033E
ENCODING 830
SWIDTH 0 0
DWIDTH 0 0
BBX 2 4 -3 7
BITMAP
40
80
40
80
ENDCHAR
STARTCHAR 033F
ENCODING 831
SWIDTH 0 0
DWIDTH 0 0
BBX 7 2 -7 7
BITMAP
FE
FE
ENDCHAR
STARTCHAR 0340
ENCODING 832
SWIDTH 0 0
DWIDTH 0 0
BBX 1 1 -3 9
BITMAP
80
ENDCHAR
STARTCHAR 0341
ENCODING 833
SWIDTH 0 0
DWIDTH 0 0
BBX 1 1 -3 8
BITMAP
80
ENDCHAR
STARTCHAR 0342
ENCODING 834
SWIDTH 0 0
DWIDTH 0 0
BBX 4 2 -4 7
BITMAP
D0
B0
ENDCHAR
STARTCHAR 0343
ENCODING 835
SWIDTH 0 0
DWIDTH 0 0
BBX 1 2 -2 7
BITMAP
80
80
ENDCHAR
STARTCHAR 0344
ENCODING 836
SWIDTH 0 0
DWIDTH 0 0
BBX 4 2 -4 7
BITMAP
20
90
ENDCHAR
STARTCHAR 0345
ENCODING 837
SWIDTH 0 0
DWIDTH 0 0
BBX 2 2 -3 -1
BITMAP
C0
80
ENDCHAR
STARTCHAR 0346
ENCODING 838
SWIDTH 0 0
DWIDTH 0 0
BBX 4 1 -4 7
BITMAP
F0
ENDCHAR
STARTCHAR 0347
ENCODING 839
SWIDTH 0 0
DWIDTH 0 0
BBX 3 3 -5 -3
BITMAP
E0
00
E0
ENDCHAR
STARTCHAR 0348
ENCODING 840
SWIDTH 0 0
DWIDTH 0 0
BBX 3 2 -4 -3
BITMAP
A0
A0
ENDCHAR
STARTCHAR 0349
ENCODING 841
SWIDTH 0 0
DWIDTH 0 0
BBX 2 2 -3 -3
BITMAP
C0
40
ENDCHAR
STARTCHAR 034A
ENCODING 842
SWIDTH 0 0
DWIDTH 0 0
BBX 4 3 -4 7
BITMAP
20
F0
40
ENDCHAR
STARTCHAR 034B
ENCODING 843
SWIDTH 0 0
DWIDTH 0 0
BBX 4 4 -5 7
BITMAP
70
B0
00
80
ENDCHAR
STARTCHAR 034C
ENCODING 844
SWIDTH 0 0
DWIDTH 0 0
BBX 4 3 -4 7
BITMAP
C0
30
E0
ENDCHAR
STARTCHAR 034D
ENCODING 845
SWIDTH 0 0
DWIDTH 0 0
BBX 6 2 -7 -2
BITMAP
FC
40
ENDCHAR
STARTCHAR 034E
ENCODING 846
SWIDTH 0 0
DWIDTH 0 0
BBX 1 3 -3 -4
BITMAP
80
80
80
ENDCHAR
STARTCHAR 034F
ENCODING 847
SWIDTH 0 0
DWIDTH 0 0
BBX 0 0 0 0
BITMAP
ENDCHAR
STARTCHAR 0350
ENCODING 848
SWIDTH 0 0
DWIDTH 0 0
BBX 2 2 -3 7
BITMAP
80
C0
ENDCHAR
STARTCHAR 0351
ENCODING 849
SWIDTH 0 0
DWIDTH 0 0
BBX 2 3 -3 7
BITMAP
40
80
40
ENDCHAR
STARTCHAR 0352
ENCODING 850
SWIDTH 0 0
DWIDTH 0 0
BBX 3 4 -4 6
BITMAP
E0
A0
00
40
ENDCHAR
STARTCHAR 0353
ENCODING 851
SWIDTH 0 0
DWIDTH 0 0
BBX 3 2 -6 -3
BITMAP
A0
E0
ENDCHAR
STARTCHAR 0354
ENCODING 852
SWIDTH 0 0
DWIDTH 0 0
BBX 2 2 -4 -2
BITMAP
40
C0
ENDCHAR
STARTCHAR 0355
ENCODING 853
SWIDTH 0 0
DWIDTH 0 0
BBX 2 2 -4 -2
BITMAP
80
C0
ENDCHAR
STARTCHAR 0356
ENCODING 854
SWIDTH 0 0
DWIDTH 0 0
BBX 5 2 -6 -3
BITMAP
C8
D0
ENDCHAR
STARTCHAR 0357
ENCODING 855
SWIDTH 0 0
DWIDTH 0 0
BBX 2 3 -3 6
BITMAP
80
40
80
ENDCHAR
STARTCHAR 0358
ENCODING 856
SWIDTH 0 0
DWIDTH 0 0
BBX 1 1 -4 8
BITMAP
80
ENDCHAR
STARTCHAR 0359
ENCODING 857
SWIDTH 0 0
DWIDTH 0 0
BBX 3 3 -5 -3
BITMAP
40
E0
A0
ENDCHAR
STARTCHAR 035A
ENCODING 858
SWIDTH 0 0
DWIDTH 0 0
BBX 6 3 -6 -3
BITMAP
CC
B4
DC
ENDCHAR
STARTCHAR 035B
ENCODING 859
SWIDTH 0 0
DWIDTH 0 0
BBX 3 1 -4 8
BITMAP
E0
ENDCHAR
STARTCHAR 035C
ENCODING 860
SWIDTH 0 0
DWIDTH 0 0
BBX 8 2 -4 -2
BITMAP
81
7E
ENDCHAR
STARTCHAR 035D
ENCODING 861
SWIDTH 0 0
DWIDTH 0 0
BBX 8 2 -4 8
BITMAP
81
7E
ENDCHAR
STARTCHAR 035E
ENCODING 862
SWIDTH 0 0
DWIDTH 0 0
BBX 8 1 -4 7
BITMAP
FF
ENDCHAR
STARTCHAR 035F
ENCODING 863
SWIDTH 0 0
DWIDTH 0 0
BBX 8 1 -4 -2
BITMAP
FF
ENDCHAR
STARTCHAR 0360
ENCODING 864
SWIDTH 0 0
DWIDTH 0 0
BBX 8 2 -4 7
BITMAP
E1
1E
ENDCHAR
STARTCHAR 0361
ENCODING 865
SWIDTH 0 0
DWIDTH 0 0
BBX 8 2 -4 7
BITMAP
7E
81
ENDCHAR
STARTCHAR 0362
ENCODING 866
SWIDTH 0 0
DWIDTH 0 0
BBX 8 3 -4 -3
BITMAP
02
FF
02
ENDCHAR
STARTCHAR 0363
ENCODING 867
SWIDTH 0 0
DWIDTH 0 0
BBX 2 3 -4 7
BITMAP
C0
40
C0
ENDCHAR
STARTCHAR 0364
ENCODING 868
SWIDTH 0 0
DWIDTH 0 0
BBX 2 3 -5 7
BITMAP
40
C0
80
ENDCHAR
STARTCHAR 0365
ENCODING 869
SWIDTH 0 0
DWIDTH 0 0
BBX 1 3 -4 8
BITMAP
80
80
80
ENDCHAR
STARTCHAR 0366
ENCODING 870
SWIDTH 0 0
DWIDTH 0 0
BBX 2 3 -5 7
BITMAP
40
C0
C0
ENDCHAR
STARTCHAR 0367
ENCODING 871
SWIDTH 0 0
DWIDTH 0 0
BBX 2 3 -4 7
BITMAP
80
C0
C0
ENDCHAR
STARTCHAR 0368
ENCODING 872
SWIDTH 0 0
DWIDTH 0 0
BBX 2 3 -4 7
BITMAP
40
80
80
ENDCHAR
STARTCHAR 0369
ENCODING 873
SWIDTH 0 0
DWIDTH 0 0
BBX 2 3 -4 8
BITMAP
40
C0
C0
ENDCHAR
STARTCHAR 036A
ENCODING 874
SWIDTH 0 0
DWIDTH 0 0
BBX 2 3 -4 8
BITMAP
C0
C0
80
ENDCHAR
STARTCHAR 036B
ENCODING 875
SWIDTH 0 0
DWIDTH 0 0
BBX 3 3 -5 7
BITMAP
E0
E0
80
ENDCHAR
STARTCHAR 036C
ENCODING 876
SWIDTH 0 0
DWIDTH 0 0
BBX 2 3 -4 7
BITMAP
C0
80
80
ENDCHAR
STARTCHAR 036D
ENCODING 877
SWIDTH 0 0
DWIDTH 0 0
BBX 1 3 -4 8
BITMAP
80
80
80
ENDCHAR
STARTCHAR 036E
ENCODING 878
SWIDTH 0 0
DWIDTH 0 0
BBX 2 3 -4 7
BITMAP
80
C0
80
ENDCHAR
STARTCHAR 036F
ENCODING 879
SWIDTH 0 0
DWIDTH 0 0
BBX 2 3 -4 7
BITMAP
80
80
C0
ENDCHAR
STARTCHAR 0374
ENCODING 884
SWIDTH 250 0
DWIDTH 3 0
BBX 2 3 1 5
BITMAP
40
80
80
ENDCHAR
STARTCHAR 0375
ENCODING 885
SWIDTH 166 0
DWIDTH 2 0
BBX 1 1 0 -1
BITMAP
80
ENDCHAR
STARTCHAR 037A
ENCODING 890
SWIDTH 333 0
DWIDTH 4 0
BBX 2 2 2 -2
BITMAP
C0
C0
ENDCHAR
STARTCHAR 037B
ENCODING 891
SWIDTH 500 0
DWIDTH 6 0
BBX 4 7 1 0
BITMAP
E0
30
10
10
10
30
E0
ENDCHAR
STARTCHAR 037C
ENCODING 892
SWIDTH 416 0
DWIDTH 5 0
BBX 4 7 0 -1
BITMAP
70
C0
80
80
90
C0
70
ENDCHAR
STARTCHAR 037D
ENCODING 893
SWIDTH 500 0
DWIDTH 6 0
BBX 4 7 1 0
BITMAP
E0
30
10
10
90
30
E0
ENDCHAR
STARTCHAR 037E
ENCODING 894
SWIDTH 250 0
DWIDTH 3 0
BBX 1 8 1 -2
BITMAP
80
00
00
00
00
80
80
80
ENDCHAR
STARTCHAR 0384
ENCODING 900
SWIDTH 333 0
DWIDTH 4 0
BBX 1 1 1 8
BITMAP
80
ENDCHAR
STARTCHAR 0385
ENCODING 901
SWIDTH 333 0
DWIDTH 4 0
BBX 4 2 0 7
BITMAP
20
90
ENDCHAR
STARTCHAR 0386
ENCODING 902
SWIDTH 666 0
DWIDTH 8 0
BBX 8 9 0 1
BITMAP
98
18
3C
24
24
7E
42
42
C3
ENDCHAR
STARTCHAR 0387
ENCODING 903
SWIDTH 250 0
DWIDTH 3 0
BBX 1 1 1 6
BITMAP
80
ENDCHAR
STARTCHAR 0388
ENCODING 904
SWIDTH 750 0
DWIDTH 9 0
BBX 9 9 0 0
BITMAP
9F80
1000
1000
1000
1F00
1000
1000
1000
1F80
ENDCHAR
STARTCHAR 0389
ENCODING 905
SWIDTH 833 0
DWIDTH 10 0
BBX 10 9 0 0
BITMAP
9040
1040
1040
1040
1FC0
1040
1040
1040
1040
ENDCHAR
STARTCHAR 038A
ENCODING 906
SWIDTH 416 0
DWIDTH 5 0
BBX 4 9 0 0
BITMAP
90
10
10
10
10
10
10
10
10
ENDCHAR
STARTCHAR 038C
ENCODING 908
SWIDTH 833 0
DWIDTH 10 0
BBX 10 9 0 0
BITMAP
9F00
3180
60C0
4040
4040
4040
60C0
3180
1F00
ENDCHAR
STARTCHAR 038E
ENCODING 910
SWIDTH 916 0
DWIDTH 11 0
BBX 11 9 0 1
BITMAP
8860
0840
0480
0680
0300
0100
0100
0100
0100
ENDCHAR
STARTCHAR 038F
ENCODING 911
SWIDTH 833 0
DWIDTH 10 0
BBX 9 9 0 0
BITMAP
BE00
6300
8080
8080
8080
8080
4100
6200
F780
ENDCHAR
STARTCHAR 0390
ENCODING 912
SWIDTH 250 0
DWIDTH 3 0
BBX 4 10 0 0
BITMAP
20
D0
00
40
40
40
40
40
40
60
ENDCHAR
STARTCHAR 0391
ENCODING 913
SWIDTH 666 0
DWIDTH 8 0
BBX 8 9 0 0
BITMAP
18
18
3C
24
24
7E
42
42
C3
ENDCHAR
STARTCHAR 0392
ENCODING 914
SWIDTH 666 0
DWIDTH 8 0
BBX 6 9 1 0
BITMAP
F8
84
84
84
F8
84
84
84
F8
ENDCHAR
STARTCHAR 0393
ENCODING 915
SWIDTH 583 0
DWIDTH 7 0
BBX 5 9 1 0
BITMAP
F8
80
80
80
80
80
80
80
80
ENDCHAR
STARTCHAR 0394
ENCODING 916
SWIDTH 666 0
DWIDTH 8 0
BBX 8 9 0 0
BITMAP
18
18
34
24
24
62
42
43
FF
ENDCHAR
STARTCHAR 0395
ENCODING 917
SWIDTH 666 0
DWIDTH 8 0
BBX 6 9 1 0
BITMAP
FC
80
80
80
F8
80
80
80
FC
ENDCHAR
STARTCHAR 0396
ENCODING 918
SWIDTH 583 0
DWIDTH 7 0
BBX 7 9 0 0
BITMAP
7E
06
0C
08
10
30
60
40
FE
ENDCHAR
STARTCHAR 0397
ENCODING 919
SWIDTH 750 0
DWIDTH 9 0
BBX 7 9 1 0
BITMAP
82
82
82
82
FE
82
82
82
82
ENDCHAR
STARTCHAR 0398
ENCODING 920
SWIDTH 750 0
DWIDTH 9 0
BBX 9 9 0 0
BITMAP
3E00
6300
C180
8080
BE80
8080
C180
6300
3E00
ENDCHAR
STARTCHAR 0399
ENCODING 921
SWIDTH 250 0
DWIDTH 3 0
BBX 1 9 1 0
BITMAP
80
80
80
80
80
80
80
80
80
ENDCHAR
STARTCHAR 039A
ENCODING 922
SWIDTH 666 0
DWIDTH 8 0
BBX 6 9 1 0
BITMAP
84
88
90
A0
F0
90
88
84
84
ENDCHAR
STARTCHAR 039B
ENCODING 923
SWIDTH 666 0
DWIDTH 8 0
BBX 8 9 0 0
BITMAP
18
18
3C
24
24
66
42
42
C3
ENDCHAR
STARTCHAR 039C
ENCODING 924
SWIDTH 833 0
DWIDTH 10 0
BBX 8 9 1 0
BITMAP
C3
C3
C3
A5
A5
A5
99
99
99
ENDCHAR
STARTCHAR 039D
ENCODING 925
SWIDTH 750 0
DWIDTH 9 0
BBX 7 9 1 0
BITMAP
C2
C2
A2
A2
92
9A
8A
86
86
ENDCHAR
STARTCHAR 039E
ENCODING 926
SWIDTH 666 0
DWIDTH 8 0
BBX 7 9 0 0
BITMAP
7E
00
00
00
7C
00
00
00
FE
ENDCHAR
STARTCHAR 039F
ENCODING 927
SWIDTH 750 0
DWIDTH 9 0
BBX 9 9 0 0
BITMAP
3E00
6300
C180
8080
8080
8080
C180
6300
3E00
ENDCHAR
STARTCHAR 03A0
ENCODING 928
SWIDTH 750 0
DWIDTH 9 0
BBX 7 9 1 0
BITMAP
FE
82
82
82
82
82
82
82
82
ENDCHAR
STARTCHAR 03A1
ENCODING 929
SWIDTH 666 0
DWIDTH 8 0
BBX 6 9 1 0
BITMAP
F8
84
84
84
F8
80
80
80
80
ENDCHAR
STARTCHAR 03A3
ENCODING 931
SWIDTH 666 0
DWIDTH 8 0
BBX 7 9 0 0
BITMAP
7E
60
20
10
18
30
20
40
FE
ENDCHAR
STARTCHAR 03A4
ENCODING 932
SWIDTH 666 0
DWIDTH 8 0
BBX 6 9 0 1
BITMAP
FC
10
10
10
10
10
10
10
10
ENDCHAR
STARTCHAR 03A5
ENCODING 933
SWIDTH 666 0
DWIDTH 8 0
BBX 7 9 1 1
BITMAP
82
44
44
28
38
10
10
10
10
ENDCHAR
STARTCHAR 03A6
ENCODING 934
SWIDTH 750 0
DWIDTH 9 0
BBX 8 9 0 0
BITMAP
08
3E
4A
89
89
89
4B
3E
08
ENDCHAR
STARTCHAR 03A7
ENCODING 935
SWIDTH 666 0
DWIDTH 8 0
BBX 6 9 1 0
BITMAP
84
CC
48
30
30
30
48
8C
84
ENDCHAR
STARTCHAR 03A8
ENCODING 936
SWIDTH 750 0
DWIDTH 9 0
BBX 7 9 1 0
BITMAP
92
92
92
92
92
92
7C
10
10
ENDCHAR
STARTCHAR 03A9
ENCODING 937
SWIDTH 750 0
DWIDTH 9 0
BBX 9 9 0 0
BITMAP
3E00
6300
8080
8080
8080
8080
4100
6200
F780
ENDCHAR
STARTCHAR 03AA
ENCODING 938
SWIDTH 250 0
DWIDTH 3 0
BBX 3 10 0 1
BITMAP
A0
40
40
40
40
40
40
40
40
40
ENDCHAR
STARTCHAR 03AB
ENCODING 939
SWIDTH 666 0
DWIDTH 8 0
BBX 7 10 1 1
BITMAP
50
82
44
44
28
38
10
10
10
10
ENDCHAR
STARTCHAR 03AC
ENCODING 940
SWIDTH 583 0
DWIDTH 7 0
BBX 7 9 0 0
BITMAP
10
00
74
CC
84
84
84
CC
7E
ENDCHAR
STARTCHAR 03AD
ENCODING 941
SWIDTH 500 0
DWIDTH 6 0
BBX 6 9 0 0
BITMAP
10
00
78
84
80
60
80
84
78
ENDCHAR
STARTCHAR 03AE
ENCODING 942
SWIDTH 583 0
DWIDTH 7 0
BBX 6 10 0 -1
BITMAP
10
00
D8
64
44
44
44
44
44
04
ENDCHAR
STARTCHAR 03AF
ENCODING 943
SWIDTH 333 0
DWIDTH 4 0
BBX 2 9 1 1
BITMAP
80
00
80
80
80
80
80
80
C0
ENDCHAR
STARTCHAR 03B0
ENCODING 944
SWIDTH 583 0
DWIDTH 7 0
BBX 5 10 1 0
BITMAP
20
B0
00
88
88
88
88
88
88
70
ENDCHAR
STARTCHAR 03B1
ENCODING 945
SWIDTH 583 0
DWIDTH 7 0
BBX 7 7 0 0
BITMAP
74
CC
84
84
84
CC
7E
ENDCHAR
STARTCHAR 03B2
ENCODING 946
SWIDTH 583 0
DWIDTH 7 0
BBX 5 11 1 -2
BITMAP
70
88
88
88
90
88
88
88
F0
80
80
ENDCHAR
STARTCHAR 03B3
ENCODING 947
SWIDTH 500 0
DWIDTH 6 0
BBX 6 9 0 -2
BITMAP
C4
44
28
28
28
10
10
10
10
ENDCHAR
STARTCHAR 03B4
ENCODING 948
SWIDTH 583 0
DWIDTH 7 0
BBX 6 9 0 0
BITMAP
F8
60
30
78
CC
84
84
CC
78
ENDCHAR
STARTCHAR 03B5
ENCODING 949
SWIDTH 500 0
DWIDTH 6 0
BBX 6 7 0 0
BITMAP
78
84
80
60
80
84
78
ENDCHAR
STARTCHAR 03B6
ENCODING 950
SWIDTH 416 0
DWIDTH 5 0
BBX 5 11 0 -3
BITMAP
F8
30
40
40
80
80
80
C0
38
08
08
ENDCHAR
STARTCHAR 03B7
ENCODING 951
SWIDTH 583 0
DWIDTH 7 0
BBX 6 8 0 -1
BITMAP
D8
64
44
44
44
44
44
04
ENDCHAR
STARTCHAR 03B8
ENCODING 952
SWIDTH 500 0
DWIDTH 6 0
BBX 6 9 0 0
BITMAP
78
48
84
84
FC
84
84
CC
78
ENDCHAR
STARTCHAR 03B9
ENCODING 953
SWIDTH 250 0
DWIDTH 3 0
BBX 2 7 1 0
BITMAP
80
80
80
80
80
80
C0
ENDCHAR
STARTCHAR 03BA
ENCODING 954
SWIDTH 500 0
DWIDTH 6 0
BBX 5 7 1 0
BITMAP
90
B0
E0
E0
B0
90
88
ENDCHAR
STARTCHAR 03BB
ENCODING 955
SWIDTH 583 0
DWIDTH 7 0
BBX 6 9 0 0
BITMAP
40
20
20
30
30
48
48
48
84
ENDCHAR
STARTCHAR 03BC
ENCODING 956
SWIDTH 500 0
DWIDTH 6 0
BBX 5 8 1 -1
BITMAP
88
88
88
88
88
F8
80
80
ENDCHAR
STARTCHAR 03BD
ENCODING 957
SWIDTH 500 0
DWIDTH 6 0
BBX 6 7 0 0
BITMAP
84
48
48
48
30
30
30
ENDCHAR
STARTCHAR 03BE
ENCODING 958
SWIDTH 500 0
DWIDTH 6 0
BBX 7 11 -1 -3
BITMAP
F8
40
40
40
30
60
40
40
3E
02
02
ENDCHAR
STARTCHAR 03BF
ENCODING 959
SWIDTH 583 0
DWIDTH 7 0
BBX 6 7 0 0
BITMAP
78
CC
84
84
84
CC
78
ENDCHAR
STARTCHAR 03C0
ENCODING 960
SWIDTH 583 0
DWIDTH 7 0
BBX 7 7 0 0
BITMAP
FE
44
44
44
44
44
46
ENDCHAR
STARTCHAR 03C1
ENCODING 961
SWIDTH 583 0
DWIDTH 7 0
BBX 5 9 1 -2
BITMAP
70
D8
88
88
88
98
F0
80
80
ENDCHAR
STARTCHAR 03C2
ENCODING 962
SWIDTH 500 0
DWIDTH 6 0
BBX 6 9 0 -2
BITMAP
78
C4
80
80
80
70
1C
04
04
ENDCHAR
STARTCHAR 03C3
ENCODING 963
SWIDTH 583 0
DWIDTH 7 0
BBX 7 7 0 0
BITMAP
7E
CC
84
84
84
CC
78
ENDCHAR
STARTCHAR 03C4
ENCODING 964
SWIDTH 500 0
DWIDTH 6 0
BBX 5 7 0 0
BITMAP
F8
20
20
20
20
20
30
ENDCHAR
STARTCHAR 03C5
ENCODING 965
SWIDTH 583 0
DWIDTH 7 0
BBX 5 7 1 0
BITMAP
88
88
88
88
88
88
70
ENDCHAR
STARTCHAR 03C6
ENCODING 966
SWIDTH 750 0
DWIDTH 9 0
BBX 8 9 0 -2
BITMAP
4E
4B
89
89
89
4B
3E
08
08
ENDCHAR
STARTCHAR 03C7
ENCODING 967
SWIDTH 583 0
DWIDTH 7 0
BBX 7 10 0 -3
BITMAP
C4
44
28
28
10
10
28
28
44
C6
ENDCHAR
STARTCHAR 03C8
ENCODING 968
SWIDTH 666 0
DWIDTH 8 0
BBX 7 9 1 -2
BITMAP
82
92
92
92
92
D6
7C
10
10
ENDCHAR
STARTCHAR 03C9
ENCODING 969
SWIDTH 750 0
DWIDTH 9 0
BBX 8 7 0 0
BITMAP
42
C1
89
89
89
89
76
ENDCHAR
STARTCHAR 03CA
ENCODING 970
SWIDTH 250 0
DWIDTH 3 0
BBX 4 8 -1 0
BITMAP
A0
20
20
20
20
20
20
30
ENDCHAR
STARTCHAR 03CB
ENCODING 971
SWIDTH 583 0
DWIDTH 7 0
BBX 5 8 1 0
BITMAP
A0
88
88
88
88
88
88
70
ENDCHAR
STARTCHAR 03CC
ENCODING 972
SWIDTH 583 0
DWIDTH 7 0
BBX 6 9 0 1
BITMAP
10
00
78
CC
84
84
84
CC
78
ENDCHAR
STARTCHAR 03CD
ENCODING 973
SWIDTH 583 0
DWIDTH 7 0
BBX 5 9 1 1
BITMAP
20
00
88
88
88
88
88
88
70
ENDCHAR
STARTCHAR 03CE
ENCODING 974
SWIDTH 750 0
DWIDTH 9 0
BBX 8 9 0 1
BITMAP
08
00
42
C1
89
89
89
89
76
ENDCHAR
STARTCHAR 03D1
ENCODING 977
SWIDTH 583 0
DWIDTH 7 0
BBX 7 9 0 0
BITMAP
18
24
24
24
3E
04
84
CC
78
ENDCHAR
STARTCHAR 03D2
ENCODING 978
SWIDTH 666 0
DWIDTH 8 0
BBX 8 9 0 0
BITMAP
C7
28
28
10
10
10
10
10
10
ENDCHAR
STARTCHAR 03D3
ENCODING 979
SWIDTH 916 0
DWIDTH 11 0
BBX 10 9 0 0
BITMAP
91C0
0900
0600
0600
0400
0400
0400
0400
0400
ENDCHAR
STARTCHAR 03D4
ENCODING 980
SWIDTH 666 0
DWIDTH 8 0
BBX 8 10 0 1
BITMAP
28
C7
28
28
10
10
10
10
10
10
ENDCHAR
STARTCHAR 03D5
ENCODING 981
SWIDTH 666 0
DWIDTH 8 0
BBX 8 11 0 -2
BITMAP
08
08
3E
4B
89
89
89
4B
3E
08
08
ENDCHAR
STARTCHAR 03D6
ENCODING 982
SWIDTH 750 0
DWIDTH 9 0
BBX 8 7 0 0
BITMAP
FF
C2
89
89
89
89
76
ENDCHAR
STARTCHAR 03D7
ENCODING 983
SWIDTH 583 0
DWIDTH 7 0
BBX 6 10 1 -3
BITMAP
CC
28
38
30
70
50
8C
04
04
0C
ENDCHAR
STARTCHAR 03F0
ENCODING 1008
SWIDTH 583 0
DWIDTH 7 0
BBX 6 7 1 0
BITMAP
C4
28
38
30
70
50
8C
ENDCHAR
STARTCHAR 03F1
ENCODING 1009
SWIDTH 583 0
DWIDTH 7 0
BBX 5 9 1 -2
BITMAP
70
D8
88
88
88
98
F0
80
70
ENDCHAR
STARTCHAR 03F2
ENCODING 1010
SWIDTH 416 0
DWIDTH 5 0
BBX 4 7 0 -1
BITMAP
70
C0
80
80
80
C0
70
ENDCHAR
STARTCHAR 03F3
ENCODING 1011
SWIDTH 250 0
DWIDTH 3 0
BBX 2 12 0 -3
BITMAP
40
00
40
40
40
40
40
40
40
40
40
C0
ENDCHAR
STARTCHAR 03F4
ENCODING 1012
SWIDTH 750 0
DWIDTH 9 0
BBX 9 9 0 0
BITMAP
3E00
6100
8080
8080
FF80
8080
C180
6300
3E00
ENDCHAR
STARTCHAR 03F5
ENCODING 1013
SWIDTH 333 0
DWIDTH 4 0
BBX 2 7 0 0
BITMAP
40
80
80
C0
80
80
40
ENDCHAR
STARTCHAR 03F6
ENCODING 1014
SWIDTH 333 0
DWIDTH 4 0
BBX 2 7 2 -1
BITMAP
80
40
40
C0
40
40
80
ENDCHAR
STARTCHAR 03F9
ENCODING 1017
SWIDTH 583 0
DWIDTH 7 0
BBX 6 9 0 0
BITMAP
3C
40
80
80
80
80
80
40
3C
ENDCHAR
STARTCHAR 03FD
ENCODING 1021
SWIDTH 583 0
DWIDTH 7 0
BBX 6 9 1 0
BITMAP
F0
08
04
04
04
04
04
08
F0
ENDCHAR
STARTCHAR 03FE
ENCODING 1022
SWIDTH 583 0
DWIDTH 7 0
BBX 6 9 0 0
BITMAP
3C
40
80
80
80
88
80
40
3C
ENDCHAR
STARTCHAR 03FF
ENCODING 1023
SWIDTH 583 0
DWIDTH 7 0
BBX 6 9 1 0
BITMAP
F0
08
04
04
04
44
04
08
F0
ENDCHAR
STARTCHAR 0400
ENCODING 1024
SWIDTH 666 0
DWIDTH 8 0
BBX 6 10 1 0
BITMAP
20
FC
80
80
80
F8
80
80
80
FC
ENDCHAR
STARTCHAR 0401
ENCODING 1025
SWIDTH 666 0
DWIDTH 8 0
BBX 6 10 1 1
BITMAP
50
FC
80
80
80
F8
80
80
80
FC
ENDCHAR
STARTCHAR 0402
ENCODING 1026
SWIDTH 750 0
DWIDTH 9 0
BBX 8 11 1 -2
BITMAP
F8
20
20
3E
21
21
21
21
21
01
03
ENDCHAR
STARTCHAR 0403
ENCODING 1027
SWIDTH 583 0
DWIDTH 7 0
BBX 5 10 1 0
BITMAP
10
F8
80
80
80
80
80
80
80
80
ENDCHAR
STARTCHAR 0404
ENCODING 1028
SWIDTH 750 0
DWIDTH 9 0
BBX 8 9 0 0
BITMAP
3E
41
80
80
F8
80
81
43
3E
ENDCHAR
STARTCHAR 0405
ENCODING 1029
SWIDTH 666 0
DWIDTH 8 0
BBX 6 9 1 0
BITMAP
78
84
80
C0
78
0C
84
C4
78
ENDCHAR
STARTCHAR 0406
ENCODING 1030
SWIDTH 250 0
DWIDTH 3 0
BBX 1 9 1 0
BITMAP
80
80
80
80
80
80
80
80
80
ENDCHAR
STARTCHAR 0407
ENCODING 1031
SWIDTH 333 0
DWIDTH 4 0
BBX 3 10 0 1
BITMAP
A0
40
40
40
40
40
40
40
40
40
ENDCHAR
STARTCHAR 0408
ENCODING 1032
SWIDTH 500 0
DWIDTH 6 0
BBX 5 9 0 0
BITMAP
08
08
08
08
08
08
88
88
70
ENDCHAR
STARTCHAR 0409
ENCODING 1033
SWIDTH 1000 0
DWIDTH 12 0
BBX 11 9 1 0
BITMAP
7C00
4400
4400
4400
47C0
4420
4420
8420
87C0
ENDCHAR
STARTCHAR 040A
ENCODING 1034
SWIDTH 1000 0
DWIDTH 12 0
BBX 11 9 1 0
BITMAP
8400
8400
8400
8400
FFC0
8420
8420
8420
87C0
ENDCHAR
STARTCHAR 040B
ENCODING 1035
SWIDTH 750 0
DWIDTH 9 0
BBX 8 9 1 0
BITMAP
F8
20
20
3E
21
21
21
21
21
ENDCHAR
STARTCHAR 040C
ENCODING 1036
SWIDTH 666 0
DWIDTH 8 0
BBX 6 10 1 0
BITMAP
10
8C
98
B0
E0
C0
A0
90
98
8C
ENDCHAR
STARTCHAR 040D
ENCODING 1037
SWIDTH 750 0
DWIDTH 9 0
BBX 7 10 1 0
BITMAP
10
82
86
8A
8A
92
A2
A2
C2
C2
ENDCHAR
STARTCHAR 040E
ENCODING 1038
SWIDTH 583 0
DWIDTH 7 0
BBX 7 11 0 1
BITMAP
24
38
C2
46
64
2C
38
18
10
30
20
ENDCHAR
STARTCHAR 040F
ENCODING 1039
SWIDTH 750 0
DWIDTH 9 0
BBX 7 10 1 -1
BITMAP
82
82
82
82
82
82
82
82
FE
10
ENDCHAR
STARTCHAR 0410
ENCODING 1040
SWIDTH 666 0
DWIDTH 8 0
BBX 8 9 0 0
BITMAP
18
18
3C
24
24
7E
42
42
C3
ENDCHAR
STARTCHAR 0411
ENCODING 1041
SWIDTH 666 0
DWIDTH 8 0
BBX 6 9 1 0
BITMAP
F8
80
80
80
F8
84
84
84
F8
ENDCHAR
STARTCHAR 0412
ENCODING 1042
SWIDTH 666 0
DWIDTH 8 0
BBX 6 9 1 0
BITMAP
F8
84
84
84
F8
84
84
84
F8
ENDCHAR
STARTCHAR 0413
ENCODING 1043
SWIDTH 583 0
DWIDTH 7 0
BBX 5 9 1 0
BITMAP
F8
80
80
80
80
80
80
80
80
ENDCHAR
STARTCHAR 0414
ENCODING 1044
SWIDTH 833 0
DWIDTH 10 0
BBX 9 11 0 -2
BITMAP
1F00
1100
1100
1100
1100
1100
1100
2100
FF80
8080
8080
ENDCHAR
STARTCHAR 0415
ENCODING 1045
SWIDTH 666 0
DWIDTH 8 0
BBX 6 9 1 0
BITMAP
FC
80
80
80
F8
80
80
80
FC
ENDCHAR
STARTCHAR 0416
ENCODING 1046
SWIDTH 916 0
DWIDTH 11 0
BBX 9 9 1 0
BITMAP
C980
4900
2A00
3E00
1C00
3E00
6B00
4900
8880
ENDCHAR
STARTCHAR 0417
ENCODING 1047
SWIDTH 666 0
DWIDTH 8 0
BBX 7 9 0 0
BITMAP
7C
82
02
06
3C
06
82
C2
7C
ENDCHAR
STARTCHAR 0418
ENCODING 1048
SWIDTH 750 0
DWIDTH 9 0
BBX 7 9 1 0
BITMAP
82
86
8A
8A
92
A2
A2
C2
C2
ENDCHAR
STARTCHAR 0419
ENCODING 1049
SWIDTH 750 0
DWIDTH 9 0
BBX 7 11 1 1
BITMAP
68
38
82
86
8A
8A
92
A2
A2
C2
C2
ENDCHAR
STARTCHAR 041A
ENCODING 1050
SWIDTH 666 0
DWIDTH 8 0
BBX 6 9 1 0
BITMAP
88
98
B0
E0
C0
A0
90
98
8C
ENDCHAR
STARTCHAR 041B
ENCODING 1051
SWIDTH 666 0
DWIDTH 8 0
BBX 6 9 1 0
BITMAP
7C
44
44
44
44
44
44
84
84
ENDCHAR
STARTCHAR 041C
ENCODING 1052
SWIDTH 833 0
DWIDTH 10 0
BBX 8 9 1 0
BITMAP
C3
C3
C3
A5
A5
A5
99
99
99
ENDCHAR
STARTCHAR 041D
ENCODING 1053
SWIDTH 750 0
DWIDTH 9 0
BBX 7 9 1 0
BITMAP
82
82
82
82
FE
82
82
82
82
ENDCHAR
STARTCHAR 041E
ENCODING 1054
SWIDTH 750 0
DWIDTH 9 0
BBX 9 9 0 0
BITMAP
3E00
6300
C180
8080
8080
8080
C180
6300
3E00
ENDCHAR
STARTCHAR 041F
ENCODING 1055
SWIDTH 750 0
DWIDTH 9 0
BBX 7 9 1 0
BITMAP
FE
82
82
82
82
82
82
82
82
ENDCHAR
STARTCHAR 0420
ENCODING 1056
SWIDTH 666 0
DWIDTH 8 0
BBX 6 9 1 0
BITMAP
F8
84
84
84
F8
80
80
80
80
ENDCHAR
STARTCHAR 0421
ENCODING 1057
SWIDTH 750 0
DWIDTH 9 0
BBX 8 9 0 0
BITMAP
3E
41
80
80
80
80
81
43
3E
ENDCHAR
STARTCHAR 0422
ENCODING 1058
SWIDTH 666 0
DWIDTH 8 0
BBX 6 9 0 0
BITMAP
FC
10
10
10
10
10
10
10
10
ENDCHAR
STARTCHAR 0423
ENCODING 1059
SWIDTH 583 0
DWIDTH 7 0
BBX 7 9 0 0
BITMAP
C2
46
64
2C
38
18
10
30
20
ENDCHAR
STARTCHAR 0424
ENCODING 1060
SWIDTH 833 0
DWIDTH 10 0
BBX 9 9 0 0
BITMAP
0400
3F00
4580
8480
8480
8480
4580
3F00
0400
ENDCHAR
STARTCHAR 0425
ENCODING 1061
SWIDTH 666 0
DWIDTH 8 0
BBX 6 9 1 0
BITMAP
84
CC
48
30
30
30
48
8C
84
ENDCHAR
STARTCHAR 0426
ENCODING 1062
SWIDTH 750 0
DWIDTH 9 0
BBX 8 10 1 -1
BITMAP
82
82
82
82
82
82
82
82
FF
01
ENDCHAR
STARTCHAR 0427
ENCODING 1063
SWIDTH 583 0
DWIDTH 7 0
BBX 5 9 1 0
BITMAP
88
88
88
88
88
78
08
08
08
ENDCHAR
STARTCHAR 0428
ENCODING 1064
SWIDTH 833 0
DWIDTH 10 0
BBX 8 9 1 0
BITMAP
91
91
91
91
91
91
91
91
FF
ENDCHAR
STARTCHAR 0429
ENCODING 1065
SWIDTH 833 0
DWIDTH 10 0
BBX 9 10 1 -1
BITMAP
9100
9100
9100
9100
9100
9100
9100
9100
FF80
0080
ENDCHAR
STARTCHAR 042A
ENCODING 1066
SWIDTH 833 0
DWIDTH 10 0
BBX 9 9 1 0
BITMAP
E000
2000
2000
3F00
2180
2080
2080
2180
3F00
ENDCHAR
STARTCHAR 042B
ENCODING 1067
SWIDTH 916 0
DWIDTH 11 0
BBX 8 9 1 0
BITMAP
81
81
81
F9
8D
85
85
8D
F9
ENDCHAR
STARTCHAR 042C
ENCODING 1068
SWIDTH 666 0
DWIDTH 8 0
BBX 6 9 1 0
BITMAP
80
80
80
F8
8C
84
84
8C
F8
ENDCHAR
STARTCHAR 042D
ENCODING 1069
SWIDTH 750 0
DWIDTH 9 0
BBX 7 9 0 0
BITMAP
78
84
02
02
3E
02
82
C6
78
ENDCHAR
STARTCHAR 042E
ENCODING 1070
SWIDTH 1000 0
DWIDTH 12 0
BBX 10 9 1 0
BITMAP
8700
8880
9040
9040
F040
9040
9040
8880
8700
ENDCHAR
STARTCHAR 042F
ENCODING 1071
SWIDTH 666 0
DWIDTH 8 0
BBX 6 9 1 0
BITMAP
7C
84
84
84
7C
24
64
44
84
ENDCHAR
STARTCHAR 0430
ENCODING 1072
SWIDTH 583 0
DWIDTH 7 0
BBX 7 7 0 0
BITMAP
78
84
04
3C
C4
8C
76
ENDCHAR
STARTCHAR 0431
ENCODING 1073
SWIDTH 500 0
DWIDTH 6 0
BBX 6 9 0 1
BITMAP
0C
70
F8
CC
84
84
84
CC
78
ENDCHAR
STARTCHAR 0432
ENCODING 1074
SWIDTH 500 0
DWIDTH 6 0
BBX 4 6 1 1
BITMAP
F0
90
F0
90
90
F0
ENDCHAR
STARTCHAR 0433
ENCODING 1075
SWIDTH 416 0
DWIDTH 5 0
BBX 3 7 1 0
BITMAP
E0
80
80
80
80
80
80
ENDCHAR
STARTCHAR 0434
ENCODING 1076
SWIDTH 583 0
DWIDTH 7 0
BBX 7 8 0 -1
BITMAP
3C
24
24
24
24
64
FE
82
ENDCHAR
STARTCHAR 0435
ENCODING 1077
SWIDTH 500 0
DWIDTH 6 0
BBX 6 7 0 0
BITMAP
78
CC
84
FC
80
C4
78
ENDCHAR
STARTCHAR 0436
ENCODING 1078
SWIDTH 750 0
DWIDTH 9 0
BBX 9 7 0 0
BITMAP
4900
2A00
1C00
1C00
3E00
6B00
C980
ENDCHAR
STARTCHAR 0437
ENCODING 1079
SWIDTH 500 0
DWIDTH 6 0
BBX 5 7 0 0
BITMAP
70
88
08
10
08
88
70
ENDCHAR
STARTCHAR 0438
ENCODING 1080
SWIDTH 583 0
DWIDTH 7 0
BBX 5 7 1 0
BITMAP
98
98
A8
A8
C8
C8
C8
ENDCHAR
STARTCHAR 0439
ENCODING 1081
SWIDTH 583 0
DWIDTH 7 0
BBX 5 9 1 0
BITMAP
90
70
98
98
A8
A8
C8
C8
C8
ENDCHAR
STARTCHAR 043A
ENCODING 1082
SWIDTH 500 0
DWIDTH 6 0
BBX 5 7 1 0
BITMAP
90
A0
C0
C0
E0
B0
98
ENDCHAR
STARTCHAR 043B
ENCODING 1083
SWIDTH 500 0
DWIDTH 6 0
BBX 5 7 0 0
BITMAP
78
48
48
48
48
48
88
ENDCHAR
STARTCHAR 043C
ENCODING 1084
SWIDTH 583 0
DWIDTH 7 0
BBX 5 7 1 0
BITMAP
88
D8
D8
D8
A8
A8
88
ENDCHAR
STARTCHAR 043D
ENCODING 1085
SWIDTH 500 0
DWIDTH 6 0
BBX 5 7 1 0
BITMAP
88
88
88
F8
88
88
88
ENDCHAR
STARTCHAR 043E
ENCODING 1086
SWIDTH 500 0
DWIDTH 6 0
BBX 6 7 0 0
BITMAP
78
CC
84
84
84
CC
78
ENDCHAR
STARTCHAR 043F
ENCODING 1087
SWIDTH 500 0
DWIDTH 6 0
BBX 5 7 1 0
BITMAP
F8
88
88
88
88
88
88
ENDCHAR
STARTCHAR 0440
ENCODING 1088
SWIDTH 583 0
DWIDTH 7 0
BBX 5 9 1 -2
BITMAP
F0
D8
88
88
88
D8
F0
80
80
ENDCHAR
STARTCHAR 0441
ENCODING 1089
SWIDTH 500 0
DWIDTH 6 0
BBX 6 7 0 0
BITMAP
78
C4
80
80
80
C4
78
ENDCHAR
STARTCHAR 0442
ENCODING 1090
SWIDTH 416 0
DWIDTH 5 0
BBX 3 7 1 0
BITMAP
E0
40
40
40
40
40
40
ENDCHAR
STARTCHAR 0443
ENCODING 1091
SWIDTH 500 0
DWIDTH 6 0
BBX 6 10 0 -3
BITMAP
84
48
48
48
30
30
30
20
20
60
ENDCHAR
STARTCHAR 0444
ENCODING 1092
SWIDTH 833 0
DWIDTH 10 0
BBX 10 10 0 -2
BITMAP
0400
7780
CCC0
8440
8440
8440
CCC0
7780
0400
0400
ENDCHAR
STARTCHAR 0445
ENCODING 1093
SWIDTH 500 0
DWIDTH 6 0
BBX 5 7 0 0
BITMAP
48
48
30
20
30
48
C8
ENDCHAR
STARTCHAR 0446
ENCODING 1094
SWIDTH 583 0
DWIDTH 7 0
BBX 6 8 1 -1
BITMAP
88
88
88
88
88
88
FC
04
ENDCHAR
STARTCHAR 0447
ENCODING 1095
SWIDTH 500 0
DWIDTH 6 0
BBX 4 7 1 0
BITMAP
90
90
90
F0
10
10
10
ENDCHAR
STARTCHAR 0448
ENCODING 1096
SWIDTH 666 0
DWIDTH 8 0
BBX 6 7 1 0
BITMAP
94
94
94
94
94
94
FC
ENDCHAR
STARTCHAR 0449
ENCODING 1097
SWIDTH 666 0
DWIDTH 8 0
BBX 7 8 1 -1
BITMAP
94
94
94
94
94
94
FE
02
ENDCHAR
STARTCHAR 044A
ENCODING 1098
SWIDTH 666 0
DWIDTH 8 0
BBX 7 7 0 0
BITMAP
E0
20
3C
22
22
22
3C
ENDCHAR
STARTCHAR 044B
ENCODING 1099
SWIDTH 666 0
DWIDTH 8 0
BBX 6 7 1 0
BITMAP
84
84
F4
8C
8C
8C
F4
ENDCHAR
STARTCHAR 044C
ENCODING 1100
SWIDTH 500 0
DWIDTH 6 0
BBX 5 7 1 0
BITMAP
80
80
F0
88
88
88
F0
ENDCHAR
STARTCHAR 044D
ENCODING 1101
SWIDTH 500 0
DWIDTH 6 0
BBX 5 7 0 0
BITMAP
70
88
08
38
08
88
70
ENDCHAR
STARTCHAR 044E
ENCODING 1102
SWIDTH 750 0
DWIDTH 9 0
BBX 7 7 1 0
BITMAP
9C
B6
A2
E2
A2
A2
9C
ENDCHAR
STARTCHAR 044F
ENCODING 1103
SWIDTH 500 0
DWIDTH 6 0
BBX 5 7 1 0
BITMAP
78
88
88
78
68
C8
88
ENDCHAR
STARTCHAR 0450
ENCODING 1104
SWIDTH 500 0
DWIDTH 6 0
BBX 6 9 0 0
BITMAP
20
00
78
CC
84
FC
80
C4
78
ENDCHAR
STARTCHAR 0451
ENCODING 1105
SWIDTH 500 0
DWIDTH 6 0
BBX 6 8 0 1
BITMAP
50
78
CC
84
FC
80
C4
78
ENDCHAR
STARTCHAR 0452
ENCODING 1106
SWIDTH 583 0
DWIDTH 7 0
BBX 6 11 0 -2
BITMAP
40
F0
58
64
44
44
44
44
44
08
10
ENDCHAR
STARTCHAR 0453
ENCODING 1107
SWIDTH 416 0
DWIDTH 5 0
BBX 3 9 1 0
BITMAP
40
00
E0
80
80
80
80
80
80
ENDCHAR
STARTCHAR 0454
ENCODING 1108
SWIDTH 500 0
DWIDTH 6 0
BBX 5 7 1 0
BITMAP
70
88
80
E0
80
88
70
ENDCHAR
STARTCHAR 0455
ENCODING 1109
SWIDTH 500 0
DWIDTH 6 0
BBX 4 7 1 0
BITMAP
60
90
80
E0
10
90
60
ENDCHAR
STARTCHAR 0456
ENCODING 1110
SWIDTH 250 0
DWIDTH 3 0
BBX 1 9 1 0
BITMAP
80
00
80
80
80
80
80
80
80
ENDCHAR
STARTCHAR 0457
ENCODING 1111
SWIDTH 250 0
DWIDTH 3 0
BBX 3 8 0 0
BITMAP
A0
40
40
40
40
40
40
40
ENDCHAR
STARTCHAR 0458
ENCODING 1112
SWIDTH 250 0
DWIDTH 3 0
BBX 2 12 0 -3
BITMAP
40
00
40
40
40
40
40
40
40
40
40
C0
ENDCHAR
STARTCHAR 0459
ENCODING 1113
SWIDTH 833 0
DWIDTH 10 0
BBX 9 7 0 0
BITMAP
7800
4800
4800
4F00
4880
4880
8F00
ENDCHAR
STARTCHAR 045A
ENCODING 1114
SWIDTH 833 0
DWIDTH 10 0
BBX 9 7 1 0
BITMAP
8800
8800
8800
FF00
8880
8880
8F00
ENDCHAR
STARTCHAR 045B
ENCODING 1115
SWIDTH 583 0
DWIDTH 7 0
BBX 6 9 0 0
BITMAP
40
F0
58
64
44
44
44
44
44
ENDCHAR
STARTCHAR 045C
ENCODING 1116
SWIDTH 500 0
DWIDTH 6 0
BBX 5 9 1 0
BITMAP
40
00
90
A0
C0
C0
E0
B0
98
ENDCHAR
STARTCHAR 045D
ENCODING 1117
SWIDTH 583 0
DWIDTH 7 0
BBX 5 9 1 0
BITMAP
40
00
98
98
A8
A8
C8
C8
C8
ENDCHAR
STARTCHAR 045E
ENCODING 1118
SWIDTH 500 0
DWIDTH 6 0
BBX 6 12 0 -3
BITMAP
48
78
84
48
48
48
30
30
30
20
20
60
ENDCHAR
STARTCHAR 045F
ENCODING 1119
SWIDTH 500 0
DWIDTH 6 0
BBX 5 8 1 -1
BITMAP
88
88
88
88
88
88
F8
20
ENDCHAR
STARTCHAR 0460
ENCODING 1120
SWIDTH 916 0
DWIDTH 11 0
BBX 11 9 0 0
BITMAP
8420
8420
8420
8420
4E40
4A40
5AC0
7380
3180
ENDCHAR
STARTCHAR 0461
ENCODING 1121
SWIDTH 666 0
DWIDTH 8 0
BBX 8 7 0 0
BITMAP
89
89
89
D9
56
56
26
ENDCHAR
STARTCHAR 0462
ENCODING 1122
SWIDTH 833 0
DWIDTH 10 0
BBX 8 9 1 0
BITMAP
20
F8
20
3E
23
21
21
23
3E
ENDCHAR
STARTCHAR 0463
ENCODING 1123
SWIDTH 666 0
DWIDTH 8 0
BBX 7 8 0 0
BITMAP
20
F8
20
20
3C
22
22
3C
ENDCHAR
STARTCHAR 0464
ENCODING 1124
SWIDTH 916 0
DWIDTH 11 0
BBX 10 9 1 0
BITMAP
8F80
9040
A000
A000
FE00
A000
A040
90C0
8F80
ENDCHAR
STARTCHAR 0465
ENCODING 1125
SWIDTH 666 0
DWIDTH 8 0
BBX 7 7 1 0
BITMAP
9C
B2
A0
F8
A0
B2
9C
ENDCHAR
STARTCHAR 0466
ENCODING 1126
SWIDTH 750 0
DWIDTH 9 0
BBX 9 9 0 0
BITMAP
0800
1400
1400
2200
2200
3E00
4900
4900
8880
ENDCHAR
STARTCHAR 0467
ENCODING 1127
SWIDTH 583 0
DWIDTH 7 0
BBX 6 7 0 0
BITMAP
10
38
28
28
6C
74
94
ENDCHAR
STARTCHAR 0468
ENCODING 1128
SWIDTH 1000 0
DWIDTH 12 0
BBX 11 9 1 0
BITMAP
8200
8500
8500
8880
8880
FF80
9240
B240
A220
ENDCHAR
STARTCHAR 0469
ENCODING 1129
SWIDTH 750 0
DWIDTH 9 0
BBX 8 7 1 0
BITMAP
8C
8C
94
96
F6
B6
A9
ENDCHAR
STARTCHAR 046A
ENCODING 1130
SWIDTH 916 0
DWIDTH 11 0
BBX 9 9 1 0
BITMAP
7F00
2200
1400
0800
1C00
3E00
6B00
4900
8880
ENDCHAR
STARTCHAR 046B
ENCODING 1131
SWIDTH 750 0
DWIDTH 9 0
BBX 9 7 0 0
BITMAP
3E00
3600
1C00
1C00
3E00
6B00
C980
ENDCHAR
STARTCHAR 046C
ENCODING 1132
SWIDTH 1166 0
DWIDTH 14 0
BBX 11 9 1 0
BITMAP
9FC0
8C80
8500
8700
FF00
8780
8A80
9240
A220
ENDCHAR
STARTCHAR 046D
ENCODING 1133
SWIDTH 916 0
DWIDTH 11 0
BBX 10 7 1 0
BITMAP
9F00
8B00
8E00
FE00
9F00
9580
A4C0
ENDCHAR
STARTCHAR 046E
ENCODING 1134
SWIDTH 666 0
DWIDTH 8 0
BBX 6 12 1 -2
BITMAP
48
78
84
84
0C
38
0C
04
04
F8
80
F8
ENDCHAR
STARTCHAR 046F
ENCODING 1135
SWIDTH 500 0
DWIDTH 6 0
BBX 4 10 1 -2
BITMAP
90
60
90
10
20
10
10
F0
80
E0
ENDCHAR
STARTCHAR 0470
ENCODING 1136
SWIDTH 750 0
DWIDTH 9 0
BBX 7 9 1 0
BITMAP
92
92
92
92
92
92
7C
10
10
ENDCHAR
STARTCHAR 0471
ENCODING 1137
SWIDTH 666 0
DWIDTH 8 0
BBX 7 9 1 -2
BITMAP
82
92
92
92
92
D6
7C
10
10
ENDCHAR
STARTCHAR 0472
ENCODING 1138
SWIDTH 750 0
DWIDTH 9 0
BBX 9 9 0 0
BITMAP
3E00
6100
8080
8080
FF80
8080
C180
6300
3E00
ENDCHAR
STARTCHAR 0473
ENCODING 1139
SWIDTH 500 0
DWIDTH 6 0
BBX 6 7 0 0
BITMAP
78
CC
84
FC
84
CC
78
ENDCHAR
STARTCHAR 0474
ENCODING 1140
SWIDTH 750 0
DWIDTH 9 0
BBX 9 9 0 0
BITMAP
C380
4200
4200
6400
2400
2400
3800
1800
1800
ENDCHAR
STARTCHAR 0475
ENCODING 1141
SWIDTH 583 0
DWIDTH 7 0
BBX 7 7 0 0
BITMAP
86
48
48
48
30
30
30
ENDCHAR
STARTCHAR 0476
ENCODING 1142
SWIDTH 750 0
DWIDTH 9 0
BBX 9 10 0 0
BITMAP
1400
C380
4200
4200
6400
2400
2400
3800
1800
1800
ENDCHAR
STARTCHAR 0477
ENCODING 1143
SWIDTH 583 0
DWIDTH 7 0
BBX 7 9 0 0
BITMAP
50
00
86
48
48
48
30
30
30
ENDCHAR
STARTCHAR 0478
ENCODING 1144
SWIDTH 1166 0
DWIDTH 14 0
BBX 14 12 0 -3
BITMAP
3C00
4300
8184
8148
8148
8148
8130
4330
3C30
0020
0020
0060
ENDCHAR
STARTCHAR 0479
ENCODING 1145
SWIDTH 916 0
DWIDTH 11 0
BBX 12 10 0 -3
BITMAP
7210
C920
8520
8520
84C0
C8C0
70C0
0080
0080
0180
ENDCHAR
STARTCHAR 047A
ENCODING 1146
SWIDTH 833 0
DWIDTH 10 0
BBX 10 9 0 0
BITMAP
1E00
6180
4040
8040
8040
8040
4040
2080
1F00
ENDCHAR
STARTCHAR 047B
ENCODING 1147
SWIDTH 583 0
DWIDTH 7 0
BBX 7 7 0 0
BITMAP
38
C4
82
82
82
C4
38
ENDCHAR
STARTCHAR 047C
ENCODING 1148
SWIDTH 916 0
DWIDTH 11 0
BBX 11 12 0 0
BITMAP
0F00
10C0
0600
8420
8420
8420
8420
4E40
4A40
5AC0
7380
3180
ENDCHAR
STARTCHAR 047D
ENCODING 1149
SWIDTH 666 0
DWIDTH 8 0
BBX 8 10 0 0
BITMAP
3C
43
18
89
89
89
D9
56
56
26
ENDCHAR
STARTCHAR 047E
ENCODING 1150
SWIDTH 916 0
DWIDTH 11 0
BBX 11 11 0 0
BITMAP
7FC0
0000
8420
8420
8420
8420
4E40
4A40
5AC0
7380
3180
ENDCHAR
STARTCHAR 047F
ENCODING 1151
SWIDTH 666 0
DWIDTH 8 0
BBX 9 9 0 0
BITMAP
FF80
0000
8900
8900
8900
D900
5600
5600
2600
ENDCHAR
STARTCHAR 0482
ENCODING 1154
SWIDTH 500 0
DWIDTH 6 0
BBX 5 10 0 -3
BITMAP
08
10
10
70
28
20
E0
30
40
40
ENDCHAR
STARTCHAR 0483
ENCODING 1155
SWIDTH 0 0
DWIDTH 0 0
BBX 5 1 -5 8
BITMAP
F8
ENDCHAR
STARTCHAR 0484
ENCODING 1156
SWIDTH 0 0
DWIDTH 0 0
BBX 4 2 -3 6
BITMAP
60
90
ENDCHAR
STARTCHAR 0485
ENCODING 1157
SWIDTH 0 0
DWIDTH 0 0
BBX 2 1 -3 8
BITMAP
C0
ENDCHAR
STARTCHAR 0486
ENCODING 1158
SWIDTH 0 0
DWIDTH 0 0
BBX 2 1 -3 8
BITMAP
C0
ENDCHAR
STARTCHAR 0487
ENCODING 1159
SWIDTH 0 0
DWIDTH 0 0
BBX 7 2 -7 7
BITMAP
78
86
ENDCHAR
STARTCHAR 0488
ENCODING 1160
SWIDTH 0 0
DWIDTH 0 0
BBX 13 12 -9 -1
BITMAP
0200
0000
2020
0000
0000
0000
8008
0000
0000
2020
0000
0200
ENDCHAR
STARTCHAR 0489
ENCODING 1161
SWIDTH 0 0
DWIDTH 0 0
BBX 14 14 -9 -3
BITMAP
0200
0200
2030
1020
0000
0000
C00C
C00C
0000
0000
1020
2010
0200
0200
ENDCHAR
STARTCHAR 048A
ENCODING 1162
SWIDTH 750 0
DWIDTH 9 0
BBX 8 13 1 -2
BITMAP
28
38
86
86
8A
9A
92
B2
A2
C2
C3
01
01
ENDCHAR
STARTCHAR 048B
ENCODING 1163
SWIDTH 583 0
DWIDTH 7 0
BBX 6 10 1 -2
BITMAP
50
70
98
98
B8
A8
E8
C8
CC
04
ENDCHAR
STARTCHAR 048C
ENCODING 1164
SWIDTH 666 0
DWIDTH 8 0
BBX 8 9 0 0
BITMAP
40
E0
40
40
7E
41
41
41
7E
ENDCHAR
STARTCHAR 048D
ENCODING 1165
SWIDTH 500 0
DWIDTH 6 0
BBX 6 7 0 0
BITMAP
40
E0
40
78
44
44
78
ENDCHAR
STARTCHAR 048E
ENCODING 1166
SWIDTH 666 0
DWIDTH 8 0
BBX 6 9 1 0
BITMAP
F8
84
84
9C
FC
84
80
80
80
ENDCHAR
STARTCHAR 048F
ENCODING 1167
SWIDTH 583 0
DWIDTH 7 0
BBX 5 9 1 -2
BITMAP
F0
D8
88
88
88
D8
F8
88
80
ENDCHAR
STARTCHAR 0490
ENCODING 1168
SWIDTH 583 0
DWIDTH 7 0
BBX 6 10 1 0
BITMAP
04
FC
80
80
80
80
80
80
80
80
ENDCHAR
STARTCHAR 0491
ENCODING 1169
SWIDTH 416 0
DWIDTH 5 0
BBX 3 8 1 0
BITMAP
20
E0
80
80
80
80
80
80
ENDCHAR
STARTCHAR 0492
ENCODING 1170
SWIDTH 583 0
DWIDTH 7 0
BBX 6 9 0 0
BITMAP
7C
40
40
E0
40
40
40
40
40
ENDCHAR
STARTCHAR 0493
ENCODING 1171
SWIDTH 416 0
DWIDTH 5 0
BBX 4 7 0 0
BITMAP
70
40
40
E0
40
40
40
ENDCHAR
STARTCHAR 0494
ENCODING 1172
SWIDTH 583 0
DWIDTH 7 0
BBX 6 11 1 -2
BITMAP
FC
80
80
F0
88
88
88
88
88
08
18
ENDCHAR
STARTCHAR 0495
ENCODING 1173
SWIDTH 500 0
DWIDTH 6 0
BBX 4 9 1 -2
BITMAP
E0
80
F0
90
90
90
90
10
20
ENDCHAR
STARTCHAR 0496
ENCODING 1174
SWIDTH 916 0
DWIDTH 11 0
BBX 10 11 1 -2
BITMAP
C880
4900
2A00
3E00
1C00
3E00
6B00
4980
88C0
0040
0040
ENDCHAR
STARTCHAR 0497
ENCODING 1175
SWIDTH 833 0
DWIDTH 10 0
BBX 10 8 0 -2
BITMAP
4880
6B00
3E00
1C00
3E00
6900
88C0
0040
ENDCHAR
STARTCHAR 0498
ENCODING 1176
SWIDTH 666 0
DWIDTH 8 0
BBX 7 11 0 -2
BITMAP
7C
82
02
06
3C
06
82
46
38
08
38
ENDCHAR
STARTCHAR 0499
ENCODING 1177
SWIDTH 500 0
DWIDTH 6 0
BBX 5 9 0 -2
BITMAP
70
88
08
10
08
C8
30
10
70
ENDCHAR
STARTCHAR 049A
ENCODING 1178
SWIDTH 666 0
DWIDTH 8 0
BBX 7 11 1 -2
BITMAP
84
98
B0
E0
C0
A0
90
88
86
02
02
ENDCHAR
STARTCHAR 049B
ENCODING 1179
SWIDTH 500 0
DWIDTH 6 0
BBX 5 8 1 -2
BITMAP
90
A0
C0
C0
E0
B0
98
08
ENDCHAR
STARTCHAR 049C
ENCODING 1180
SWIDTH 666 0
DWIDTH 8 0
BBX 7 9 1 0
BITMAP
86
8C
B8
A0
E0
B0
B8
8C
82
ENDCHAR
STARTCHAR 049D
ENCODING 1181
SWIDTH 500 0
DWIDTH 6 0
BBX 4 7 1 0
BITMAP
90
E0
C0
C0
C0
E0
90
ENDCHAR
STARTCHAR 049E
ENCODING 1182
SWIDTH 666 0
DWIDTH 8 0
BBX 7 9 0 0
BITMAP
42
E4
58
70
60
50
48
44
42
ENDCHAR
STARTCHAR 049F
ENCODING 1183
SWIDTH 500 0
DWIDTH 6 0
BBX 6 7 0 0
BITMAP
4C
F8
50
60
70
58
44
ENDCHAR
STARTCHAR 04A0
ENCODING 1184
SWIDTH 833 0
DWIDTH 10 0
BBX 8 9 1 0
BITMAP
E1
22
24
38
30
28
24
22
21
ENDCHAR
STARTCHAR 04A1
ENCODING 1185
SWIDTH 666 0
DWIDTH 8 0
BBX 7 7 0 0
BITMAP
E4
2C
38
30
38
2C
22
ENDCHAR
STARTCHAR 04A2
ENCODING 1186
SWIDTH 750 0
DWIDTH 9 0
BBX 8 10 1 -1
BITMAP
82
82
82
82
FE
82
82
82
83
01
ENDCHAR
STARTCHAR 04A3
ENCODING 1187
SWIDTH 583 0
DWIDTH 7 0
BBX 6 8 1 -1
BITMAP
88
88
88
F8
88
88
8C
04
ENDCHAR
STARTCHAR 04A4
ENCODING 1188
SWIDTH 1000 0
DWIDTH 12 0
BBX 11 9 1 0
BITMAP
83E0
8200
8200
8200
FE00
8200
8200
8200
8200
ENDCHAR
STARTCHAR 04A5
ENCODING 1189
SWIDTH 750 0
DWIDTH 9 0
BBX 7 7 1 0
BITMAP
8E
88
88
F8
88
88
88
ENDCHAR
STARTCHAR 04A6
ENCODING 1190
SWIDTH 1083 0
DWIDTH 13 0
BBX 11 11 1 -2
BITMAP
FE00
8200
8200
83C0
8220
8220
8220
8220
8220
0020
0060
ENDCHAR
STARTCHAR 04A7
ENCODING 1191
SWIDTH 750 0
DWIDTH 9 0
BBX 8 9 1 -2
BITMAP
F8
88
8F
89
89
89
89
01
03
ENDCHAR
STARTCHAR 04A8
ENCODING 1192
SWIDTH 833 0
DWIDTH 10 0
BBX 9 9 0 0
BITMAP
3000
4E00
9900
9100
9100
9100
9900
4A80
3F00
ENDCHAR
STARTCHAR 04A9
ENCODING 1193
SWIDTH 666 0
DWIDTH 8 0
BBX 7 7 0 0
BITMAP
30
48
94
94
94
56
7E
ENDCHAR
STARTCHAR 04AA
ENCODING 1194
SWIDTH 750 0
DWIDTH 9 0
BBX 8 11 0 -2
BITMAP
3E
61
80
80
80
81
41
76
08
04
1C
ENDCHAR
STARTCHAR 04AB
ENCODING 1195
SWIDTH 500 0
DWIDTH 6 0
BBX 6 9 0 -2
BITMAP
78
C4
80
80
84
48
30
10
70
ENDCHAR
STARTCHAR 04AC
ENCODING 1196
SWIDTH 666 0
DWIDTH 8 0
BBX 7 10 0 -1
BITMAP
FE
10
10
10
10
10
10
10
08
08
ENDCHAR
STARTCHAR 04AD
ENCODING 1197
SWIDTH 416 0
DWIDTH 5 0
BBX 4 7 1 0
BITMAP
F0
40
40
40
40
60
20
ENDCHAR
STARTCHAR 04AE
ENCODING 1198
SWIDTH 666 0
DWIDTH 8 0
BBX 7 9 1 0
BITMAP
82
44
44
28
38
10
10
10
10
ENDCHAR
STARTCHAR 04AF
ENCODING 1199
SWIDTH 583 0
DWIDTH 7 0
BBX 7 9 0 -2
BITMAP
C6
44
68
28
10
10
10
10
10
ENDCHAR
STARTCHAR 04B0
ENCODING 1200
SWIDTH 666 0
DWIDTH 8 0
BBX 7 9 1 0
BITMAP
82
44
44
28
28
10
7C
10
10
ENDCHAR
STARTCHAR 04B1
ENCODING 1201
SWIDTH 583 0
DWIDTH 7 0
BBX 7 10 0 -3
BITMAP
C6
44
6C
28
28
10
7C
10
10
10
ENDCHAR
STARTCHAR 04B2
ENCODING 1202
SWIDTH 666 0
DWIDTH 8 0
BBX 7 11 1 -2
BITMAP
86
44
68
30
30
38
48
C4
86
02
02
ENDCHAR
STARTCHAR 04B3
ENCODING 1203
SWIDTH 500 0
DWIDTH 6 0
BBX 5 8 1 -2
BITMAP
98
D0
60
20
60
90
98
08
ENDCHAR
STARTCHAR 04B4
ENCODING 1204
SWIDTH 916 0
DWIDTH 11 0
BBX 10 11 1 -2
BITMAP
F880
2080
2080
2080
2080
2080
2080
2080
3FC0
0040
0040
ENDCHAR
STARTCHAR 04B5
ENCODING 1205
SWIDTH 666 0
DWIDTH 8 0
BBX 7 8 1 -2
BITMAP
E4
44
44
44
44
44
7E
02
ENDCHAR
STARTCHAR 04B6
ENCODING 1206
SWIDTH 666 0
DWIDTH 8 0
BBX 6 10 1 -1
BITMAP
88
88
88
88
88
78
08
08
0C
04
ENDCHAR
STARTCHAR 04B7
ENCODING 1207
SWIDTH 500 0
DWIDTH 6 0
BBX 6 8 0 -1
BITMAP
88
88
88
88
78
08
0C
04
ENDCHAR
STARTCHAR 04B8
ENCODING 1208
SWIDTH 666 0
DWIDTH 8 0
BBX 5 9 1 0
BITMAP
88
88
88
88
A8
78
28
08
08
ENDCHAR
STARTCHAR 04B9
ENCODING 1209
SWIDTH 500 0
DWIDTH 6 0
BBX 5 7 0 0
BITMAP
88
88
A8
78
28
08
08
ENDCHAR
STARTCHAR 04BA
ENCODING 1210
SWIDTH 666 0
DWIDTH 8 0
BBX 6 9 1 0
BITMAP
80
80
80
F8
84
84
84
84
84
ENDCHAR
STARTCHAR 04BB
ENCODING 1211
SWIDTH 500 0
DWIDTH 6 0
BBX 4 7 1 0
BITMAP
80
80
80
F0
90
90
90
ENDCHAR
STARTCHAR 04BC
ENCODING 1212
SWIDTH 916 0
DWIDTH 11 0
BBX 10 9 0 0
BITMAP
6780
98C0
9040
7FC0
1000
1000
1000
0840
0780
ENDCHAR
STARTCHAR 04BD
ENCODING 1213
SWIDTH 666 0
DWIDTH 8 0
BBX 8 7 0 0
BITMAP
DE
B3
A1
7F
20
31
1E
ENDCHAR
STARTCHAR 04BE
ENCODING 1214
SWIDTH 916 0
DWIDTH 11 0
BBX 10 11 0 -2
BITMAP
6780
98C0
9040
7FC0
1000
1000
1040
0880
0700
0200
0200
ENDCHAR
STARTCHAR 04BF
ENCODING 1215
SWIDTH 666 0
DWIDTH 8 0
BBX 8 9 0 -2
BITMAP
CE
91
A1
7F
20
31
1E
04
04
ENDCHAR
STARTCHAR 04C0
ENCODING 1216
SWIDTH 250 0
DWIDTH 3 0
BBX 1 9 1 0
BITMAP
80
80
80
80
80
80
80
80
80
ENDCHAR
STARTCHAR 04C1
ENCODING 1217
SWIDTH 916 0
DWIDTH 11 0
BBX 9 11 1 1
BITMAP
3400
1C00
C980
4900
2A00
3E00
1C00
3E00
6B00
4900
8880
ENDCHAR
STARTCHAR 04C2
ENCODING 1218
SWIDTH 750 0
DWIDTH 9 0
BBX 9 9 0 0
BITMAP
1200
1C00
4900
2A00
1C00
1C00
3E00
6B00
C980
ENDCHAR
STARTCHAR 04C3
ENCODING 1219
SWIDTH 666 0
DWIDTH 8 0
BBX 6 11 1 -2
BITMAP
84
98
B0
C0
F8
84
84
84
84
04
0C
ENDCHAR
STARTCHAR 04C4
ENCODING 1220
SWIDTH 500 0
DWIDTH 6 0
BBX 4 9 1 -2
BITMAP
90
A0
C0
E0
90
90
90
10
20
ENDCHAR
STARTCHAR 04C5
ENCODING 1221
SWIDTH 666 0
DWIDTH 8 0
BBX 7 10 1 -1
BITMAP
7C
44
44
44
44
44
44
84
86
02
ENDCHAR
STARTCHAR 04C6
ENCODING 1222
SWIDTH 500 0
DWIDTH 6 0
BBX 6 8 0 -1
BITMAP
78
48
48
48
48
48
8C
04
ENDCHAR
STARTCHAR 04C7
ENCODING 1223
SWIDTH 750 0
DWIDTH 9 0
BBX 7 11 1 -2
BITMAP
82
82
82
82
FE
82
82
82
82
02
06
ENDCHAR
STARTCHAR 04C8
ENCODING 1224
SWIDTH 500 0
DWIDTH 6 0
BBX 5 9 1 -2
BITMAP
88
88
88
F8
88
88
88
08
18
ENDCHAR
STARTCHAR 04C9
ENCODING 1225
SWIDTH 750 0
DWIDTH 9 0
BBX 8 10 1 -1
BITMAP
82
82
82
82
FE
82
82
82
83
01
ENDCHAR
STARTCHAR 04CA
ENCODING 1226
SWIDTH 583 0
DWIDTH 7 0
BBX 6 8 1 -1
BITMAP
88
88
88
F8
88
88
8C
04
ENDCHAR
STARTCHAR 04CB
ENCODING 1227
SWIDTH 666 0
DWIDTH 8 0
BBX 5 11 1 -2
BITMAP
88
88
88
88
88
78
08
08
18
10
10
ENDCHAR
STARTCHAR 04CC
ENCODING 1228
SWIDTH 500 0
DWIDTH 6 0
BBX 5 9 0 -2
BITMAP
88
88
88
88
78
08
08
10
10
ENDCHAR
STARTCHAR 04CD
ENCODING 1229
SWIDTH 833 0
DWIDTH 10 0
BBX 9 11 1 -2
BITMAP
C300
C300
C300
A500
A500
A500
9900
9900
9980
0080
0080
ENDCHAR
STARTCHAR 04CE
ENCODING 1230
SWIDTH 583 0
DWIDTH 7 0
BBX 6 8 1 -2
BITMAP
88
D8
D8
D8
A8
A8
8C
04
ENDCHAR
STARTCHAR 04CF
ENCODING 1231
SWIDTH 250 0
DWIDTH 3 0
BBX 1 9 1 0
BITMAP
80
80
80
80
80
80
80
80
80
ENDCHAR
STARTCHAR 04D0
ENCODING 1232
SWIDTH 666 0
DWIDTH 8 0
BBX 8 11 0 1
BITMAP
24
18
18
18
3C
24
24
7E
42
42
C3
ENDCHAR
STARTCHAR 04D1
ENCODING 1233
SWIDTH 583 0
DWIDTH 7 0
BBX 7 9 0 1
BITMAP
48
38
78
84
04
3C
C4
8C
76
ENDCHAR
STARTCHAR 04D2
ENCODING 1234
SWIDTH 666 0
DWIDTH 8 0
BBX 8 10 0 1
BITMAP
28
18
18
3C
24
24
7E
42
42
C3
ENDCHAR
STARTCHAR 04D3
ENCODING 1235
SWIDTH 583 0
DWIDTH 7 0
BBX 7 8 0 0
BITMAP
50
78
84
04
3C
C4
8C
76
ENDCHAR
STARTCHAR 04D4
ENCODING 1236
SWIDTH 1000 0
DWIDTH 12 0
BBX 10 9 1 0
BITMAP
1FC0
1400
2400
2400
47C0
7C00
4400
8400
87C0
ENDCHAR
STARTCHAR 04D5
ENCODING 1237
SWIDTH 833 0
DWIDTH 10 0
BBX 10 7 0 0
BITMAP
7B80
8640
0440
7FC0
8400
8C40
7380
ENDCHAR
STARTCHAR 04D6
ENCODING 1238
SWIDTH 666 0
DWIDTH 8 0
BBX 6 11 1 1
BITMAP
48
30
FC
80
80
80
F8
80
80
80
FC
ENDCHAR
STARTCHAR 04D7
ENCODING 1239
SWIDTH 500 0
DWIDTH 6 0
BBX 6 9 0 1
BITMAP
68
38
78
CC
84
FC
80
C4
78
ENDCHAR
STARTCHAR 04D8
ENCODING 1240
SWIDTH 750 0
DWIDTH 9 0
BBX 7 9 1 0
BITMAP
78
84
02
02
02
FE
82
C4
78
ENDCHAR
STARTCHAR 04D9
ENCODING 1241
SWIDTH 583 0
DWIDTH 7 0
BBX 6 7 1 -1
BITMAP
78
8C
04
FC
84
CC
78
ENDCHAR
STARTCHAR 04DA
ENCODING 1242
SWIDTH 750 0
DWIDTH 9 0
BBX 7 10 1 1
BITMAP
50
78
84
02
02
02
FE
82
C4
78
ENDCHAR
STARTCHAR 04DB
ENCODING 1243
SWIDTH 583 0
DWIDTH 7 0
BBX 6 9 1 -1
BITMAP
A0
00
78
8C
04
FC
84
CC
78
ENDCHAR
STARTCHAR 04DC
ENCODING 1244
SWIDTH 916 0
DWIDTH 11 0
BBX 9 10 1 1
BITMAP
1400
C980
4900
2A00
3E00
1C00
3E00
6B00
4900
8880
ENDCHAR
STARTCHAR 04DD
ENCODING 1245
SWIDTH 750 0
DWIDTH 9 0
BBX 9 8 0 0
BITMAP
1400
4900
2A00
1C00
1C00
3E00
6B00
C980
ENDCHAR
STARTCHAR 04DE
ENCODING 1246
SWIDTH 666 0
DWIDTH 8 0
BBX 7 10 0 1
BITMAP
28
7C
82
02
06
3C
06
82
C2
7C
ENDCHAR
STARTCHAR 04DF
ENCODING 1247
SWIDTH 500 0
DWIDTH 6 0
BBX 5 8 0 0
BITMAP
50
70
88
08
10
08
88
70
ENDCHAR
STARTCHAR 04E0
ENCODING 1248
SWIDTH 583 0
DWIDTH 7 0
BBX 7 9 0 0
BITMAP
7E
06
0C
1C
06
02
02
86
7C
ENDCHAR
STARTCHAR 04E1
ENCODING 1249
SWIDTH 500 0
DWIDTH 6 0
BBX 6 9 0 -2
BITMAP
7C
08
08
10
0C
04
04
84
78
ENDCHAR
STARTCHAR 04E2
ENCODING 1250
SWIDTH 750 0
DWIDTH 9 0
BBX 7 11 1 1
BITMAP
70
00
82
86
8A
8A
92
A2
A2
C2
C2
ENDCHAR
STARTCHAR 04E3
ENCODING 1251
SWIDTH 583 0
DWIDTH 7 0
BBX 5 9 1 0
BITMAP
E0
00
98
98
A8
A8
C8
C8
C8
ENDCHAR
STARTCHAR 04E4
ENCODING 1252
SWIDTH 750 0
DWIDTH 9 0
BBX 7 10 1 1
BITMAP
50
82
86
8A
8A
92
A2
A2
C2
C2
ENDCHAR
STARTCHAR 04E5
ENCODING 1253
SWIDTH 583 0
DWIDTH 7 0
BBX 5 8 1 0
BITMAP
A0
98
98
A8
A8
C8
C8
C8
ENDCHAR
STARTCHAR 04E6
ENCODING 1254
SWIDTH 750 0
DWIDTH 9 0
BBX 9 10 0 1
BITMAP
1400
3E00
6300
C180
8080
8080
8080
C180
6300
3E00
ENDCHAR
STARTCHAR 04E7
ENCODING 1255
SWIDTH 500 0
DWIDTH 6 0
BBX 6 8 0 0
BITMAP
50
78
CC
84
84
84
CC
78
ENDCHAR
STARTCHAR 04E8
ENCODING 1256
SWIDTH 750 0
DWIDTH 9 0
BBX 9 9 0 0
BITMAP
3E00
6100
8080
8080
FF80
8080
C180
6300
3E00
ENDCHAR
STARTCHAR 04E9
ENCODING 1257
SWIDTH 500 0
DWIDTH 6 0
BBX 6 7 0 0
BITMAP
78
CC
84
FC
84
CC
78
ENDCHAR
STARTCHAR 04EA
ENCODING 1258
SWIDTH 750 0
DWIDTH 9 0
BBX 9 10 0 1
BITMAP
1400
3E00
6100
8080
8080
FF80
8080
C180
6300
3E00
ENDCHAR
STARTCHAR 04EB
ENCODING 1259
SWIDTH 500 0
DWIDTH 6 0
BBX 6 8 0 0
BITMAP
50
78
CC
84
FC
84
CC
78
ENDCHAR
STARTCHAR 04EC
ENCODING 1260
SWIDTH 750 0
DWIDTH 9 0
BBX 7 10 0 1
BITMAP
28
78
84
02
02
3E
02
82
C6
78
ENDCHAR
STARTCHAR 04ED
ENCODING 1261
SWIDTH 500 0
DWIDTH 6 0
BBX 5 8 0 0
BITMAP
50
70
88
08
38
08
88
70
ENDCHAR
STARTCHAR 04EE
ENCODING 1262
SWIDTH 583 0
DWIDTH 7 0
BBX 7 11 0 1
BITMAP
38
00
C2
46
64
2C
38
18
10
30
20
ENDCHAR
STARTCHAR 04EF
ENCODING 1263
SWIDTH 500 0
DWIDTH 6 0
BBX 6 12 0 -3
BITMAP
70
00
84
48
48
48
30
30
30
20
20
60
ENDCHAR
STARTCHAR 04F0
ENCODING 1264
SWIDTH 583 0
DWIDTH 7 0
BBX 7 10 0 1
BITMAP
28
C2
46
64
2C
38
18
10
30
20
ENDCHAR
STARTCHAR 04F1
ENCODING 1265
SWIDTH 500 0
DWIDTH 6 0
BBX 6 11 0 -3
BITMAP
50
84
48
48
48
30
30
30
20
20
60
ENDCHAR
STARTCHAR 04F2
ENCODING 1266
SWIDTH 583 0
DWIDTH 7 0
BBX 7 10 0 0
BITMAP
28
C2
46
64
2C
38
18
10
30
20
ENDCHAR
STARTCHAR 04F3
ENCODING 1267
SWIDTH 500 0
DWIDTH 6 0
BBX 6 12 0 -2
BITMAP
30
00
84
48
48
48
30
30
30
20
20
60
ENDCHAR
STARTCHAR 04F4
ENCODING 1268
SWIDTH 583 0
DWIDTH 7 0
BBX 5 10 1 1
BITMAP
50
88
88
88
88
88
78
08
08
08
ENDCHAR
STARTCHAR 04F5
ENCODING 1269
SWIDTH 500 0
DWIDTH 6 0
BBX 4 8 1 0
BITMAP
A0
90
90
90
F0
10
10
10
ENDCHAR
STARTCHAR 04F6
ENCODING 1270
SWIDTH 583 0
DWIDTH 7 0
BBX 5 10 1 -1
BITMAP
F8
80
80
80
80
80
80
80
40
40
ENDCHAR
STARTCHAR 04F7
ENCODING 1271
SWIDTH 416 0
DWIDTH 5 0
BBX 3 7 1 0
BITMAP
E0
80
80
80
80
C0
40
ENDCHAR
STARTCHAR 04F8
ENCODING 1272
SWIDTH 916 0
DWIDTH 11 0
BBX 8 10 1 1
BITMAP
28
81
81
81
F9
8D
85
85
8D
F9
ENDCHAR
STARTCHAR 04F9
ENCODING 1273
SWIDTH 666 0
DWIDTH 8 0
BBX 6 8 1 0
BITMAP
50
84
84
F4
8C
8C
8C
F4
ENDCHAR
STARTCHAR 04FA
ENCODING 1274
SWIDTH 583 0
DWIDTH 7 0
BBX 6 12 0 -3
BITMAP
7C
40
40
F0
40
40
40
40
60
20
20
60
ENDCHAR
STARTCHAR 04FB
ENCODING 1275
SWIDTH 416 0
DWIDTH 5 0
BBX 4 10 0 -3
BITMAP
70
40
40
E0
40
40
60
20
20
60
ENDCHAR
STARTCHAR 04FC
ENCODING 1276
SWIDTH 666 0
DWIDTH 8 0
BBX 7 11 0 -2
BITMAP
C2
44
28
38
10
28
28
44
C2
02
0C
ENDCHAR
STARTCHAR 04FD
ENCODING 1277
SWIDTH 500 0
DWIDTH 6 0
BBX 5 9 0 -2
BITMAP
88
50
60
20
50
50
88
08
18
ENDCHAR
STARTCHAR 04FE
ENCODING 1278
SWIDTH 666 0
DWIDTH 8 0
BBX 6 9 1 0
BITMAP
84
CC
48
30
FC
30
48
CC
84
ENDCHAR
STARTCHAR 04FF
ENCODING 1279
SWIDTH 500 0
DWIDTH 6 0
BBX 5 7 0 0
BITMAP
48
48
30
78
30
58
C8
ENDCHAR
STARTCHAR 0510
ENCODING 1296
SWIDTH 666 0
DWIDTH 8 0
BBX 7 9 0 0
BITMAP
7C
82
80
C0
78
C0
82
86
7C
ENDCHAR
STARTCHAR 0511
ENCODING 1297
SWIDTH 500 0
DWIDTH 6 0
BBX 4 7 1 0
BITMAP
60
90
80
40
80
90
60
ENDCHAR
STARTCHAR 0512
ENCODING 1298
SWIDTH 666 0
DWIDTH 8 0
BBX 6 11 1 -2
BITMAP
7C
44
44
44
44
44
44
84
84
04
0C
ENDCHAR
STARTCHAR 0513
ENCODING 1299
SWIDTH 500 0
DWIDTH 6 0
BBX 5 9 0 -2
BITMAP
78
48
48
48
48
48
88
08
18
ENDCHAR
STARTCHAR 051A
ENCODING 1306
SWIDTH 750 0
DWIDTH 9 0
BBX 9 10 0 -1
BITMAP
3E00
6300
C180
8080
8080
8080
C180
6300
3F00
0080
ENDCHAR
STARTCHAR 051B
ENCODING 1307
SWIDTH 583 0
DWIDTH 7 0
BBX 6 9 0 -2
BITMAP
74
CC
84
84
84
CC
74
04
04
ENDCHAR
STARTCHAR 051C
ENCODING 1308
SWIDTH 916 0
DWIDTH 11 0
BBX 11 9 0 0
BITMAP
8420
C660
4A40
4A40
4A40
6940
3180
3180
3180
ENDCHAR
STARTCHAR 051D
ENCODING 1309
SWIDTH 750 0
DWIDTH 9 0
BBX 8 7 0 0
BITMAP
89
99
59
55
56
66
26
ENDCHAR
STARTCHAR 051E
ENCODING 1310
SWIDTH 666 0
DWIDTH 8 0
BBX 6 9 1 0
BITMAP
AC
98
BC
E0
C0
A0
90
98
8C
ENDCHAR
STARTCHAR 051F
ENCODING 1311
SWIDTH 500 0
DWIDTH 6 0
BBX 5 7 1 0
BITMAP
F0
B0
C0
C0
E0
B0
98
ENDCHAR
STARTCHAR 0524
ENCODING 1316
SWIDTH 750 0
DWIDTH 9 0
BBX 8 10 1 -1
BITMAP
FE
82
82
82
82
82
82
82
83
01
ENDCHAR
STARTCHAR 0525
ENCODING 1317
SWIDTH 583 0
DWIDTH 7 0
BBX 6 7 1 0
BITMAP
F8
88
88
88
88
88
8C
ENDCHAR
STARTCHAR 0526
ENCODING 1318
SWIDTH 666 0
DWIDTH 8 0
BBX 6 10 1 -1
BITMAP
80
80
80
F0
88
88
88
88
8C
04
ENDCHAR
STARTCHAR 0527
ENCODING 1319
SWIDTH 500 0
DWIDTH 6 0
BBX 5 8 1 -1
BITMAP
80
80
80
F0
90
90
98
08
ENDCHAR
STARTCHAR 0531
ENCODING 1329
SWIDTH 750 0
DWIDTH 9 0
BBX 7 9 1 -1
BITMAP
84
84
84
84
84
84
84
CC
7A
ENDCHAR
STARTCHAR 0532
ENCODING 1330
SWIDTH 666 0
DWIDTH 8 0
BBX 6 9 1 0
BITMAP
78
CC
84
84
84
80
FC
80
80
ENDCHAR
STARTCHAR 0533
ENCODING 1331
SWIDTH 750 0
DWIDTH 9 0
BBX 8 9 0 0
BITMAP
7C
C6
82
82
82
C2
7F
02
02
ENDCHAR
STARTCHAR 0534
ENCODING 1332
SWIDTH 750 0
DWIDTH 9 0
BBX 7 8 1 1
BITMAP
78
C4
84
84
84
04
06
04
ENDCHAR
STARTCHAR 0535
ENCODING 1333
SWIDTH 666 0
DWIDTH 8 0
BBX 6 9 1 0
BITMAP
80
80
FC
80
84
84
84
CC
78
ENDCHAR
STARTCHAR 0536
ENCODING 1334
SWIDTH 750 0
DWIDTH 9 0
BBX 8 9 1 0
BITMAP
38
44
82
82
E2
04
8C
FF
81
ENDCHAR
STARTCHAR 0537
ENCODING 1335
SWIDTH 416 0
DWIDTH 5 0
BBX 4 8 1 0
BITMAP
80
80
F0
80
80
80
80
E0
ENDCHAR
STARTCHAR 0538
ENCODING 1336
SWIDTH 666 0
DWIDTH 8 0
BBX 6 9 1 0
BITMAP
78
CC
84
84
84
84
80
80
FC
ENDCHAR
STARTCHAR 0539
ENCODING 1337
SWIDTH 750 0
DWIDTH 9 0
BBX 9 9 1 0
BITMAP
7E00
8100
8100
8100
9F80
A100
A100
A100
9E00
ENDCHAR
STARTCHAR 053A
ENCODING 1338
SWIDTH 666 0
DWIDTH 8 0
BBX 6 9 1 1
BITMAP
08
08
7C
88
88
88
88
88
70
ENDCHAR
STARTCHAR 053B
ENCODING 1339
SWIDTH 666 0
DWIDTH 8 0
BBX 6 9 1 0
BITMAP
80
80
F8
84
84
84
80
80
80
ENDCHAR
STARTCHAR 053C
ENCODING 1340
SWIDTH 416 0
DWIDTH 5 0
BBX 3 8 1 0
BITMAP
80
80
80
80
80
80
80
E0
ENDCHAR
STARTCHAR 053D
ENCODING 1341
SWIDTH 833 0
DWIDTH 10 0
BBX 8 9 1 0
BITMAP
80
80
E1
A1
A1
A1
A1
B3
9E
ENDCHAR
STARTCHAR 053E
ENCODING 1342
SWIDTH 750 0
DWIDTH 9 0
BBX 8 9 1 1
BITMAP
FF
24
42
81
81
81
83
46
3C
ENDCHAR
STARTCHAR 053F
ENCODING 1343
SWIDTH 666 0
DWIDTH 8 0
BBX 6 8 1 1
BITMAP
80
80
80
84
84
C4
7C
04
ENDCHAR
STARTCHAR 0540
ENCODING 1344
SWIDTH 583 0
DWIDTH 7 0
BBX 7 10 0 -1
BITMAP
06
08
10
20
60
C0
70
0E
06
02
ENDCHAR
STARTCHAR 0541
ENCODING 1345
SWIDTH 666 0
DWIDTH 8 0
BBX 6 9 1 -1
BITMAP
78
CC
84
84
04
04
E8
B0
F0
ENDCHAR
STARTCHAR 0542
ENCODING 1346
SWIDTH 666 0
DWIDTH 8 0
BBX 6 9 1 0
BITMAP
70
88
88
88
88
08
08
08
0C
ENDCHAR
STARTCHAR 0543
ENCODING 1347
SWIDTH 666 0
DWIDTH 8 0
BBX 7 8 0 1
BITMAP
1C
18
3C
24
62
42
42
FE
ENDCHAR
STARTCHAR 0544
ENCODING 1348
SWIDTH 750 0
DWIDTH 9 0
BBX 7 9 1 0
BITMAP
86
84
84
84
84
84
84
CC
78
ENDCHAR
STARTCHAR 0545
ENCODING 1349
SWIDTH 583 0
DWIDTH 7 0
BBX 5 9 1 0
BITMAP
70
88
08
08
F0
08
08
88
70
ENDCHAR
STARTCHAR 0546
ENCODING 1350
SWIDTH 750 0
DWIDTH 9 0
BBX 8 9 1 0
BITMAP
C0
40
40
41
41
41
41
63
3E
ENDCHAR
STARTCHAR 0547
ENCODING 1351
SWIDTH 583 0
DWIDTH 7 0
BBX 7 9 0 0
BITMAP
60
1C
60
80
80
82
82
C6
7C
ENDCHAR
STARTCHAR 0548
ENCODING 1352
SWIDTH 666 0
DWIDTH 8 0
BBX 6 8 1 1
BITMAP
78
8C
84
84
84
84
84
84
ENDCHAR
STARTCHAR 0549
ENCODING 1353
SWIDTH 666 0
DWIDTH 8 0
BBX 6 9 1 0
BITMAP
78
CC
84
84
04
04
08
F0
18
ENDCHAR
STARTCHAR 054A
ENCODING 1354
SWIDTH 666 0
DWIDTH 8 0
BBX 6 8 1 1
BITMAP
78
AC
A4
A4
24
24
04
04
ENDCHAR
STARTCHAR 054B
ENCODING 1355
SWIDTH 750 0
DWIDTH 9 0
BBX 8 9 1 0
BITMAP
78
44
82
82
F2
0C
8C
FF
81
ENDCHAR
STARTCHAR 054C
ENCODING 1356
SWIDTH 750 0
DWIDTH 9 0
BBX 7 8 1 1
BITMAP
78
8C
84
84
84
84
86
84
ENDCHAR
STARTCHAR 054D
ENCODING 1357
SWIDTH 666 0
DWIDTH 8 0
BBX 6 8 1 0
BITMAP
84
84
84
84
84
84
8C
78
ENDCHAR
STARTCHAR 054E
ENCODING 1358
SWIDTH 750 0
DWIDTH 9 0
BBX 7 9 1 0
BITMAP
04
04
84
84
84
8C
7C
04
06
ENDCHAR
STARTCHAR 054F
ENCODING 1359
SWIDTH 666 0
DWIDTH 8 0
BBX 6 9 1 0
BITMAP
78
84
80
80
78
0C
04
84
78
ENDCHAR
STARTCHAR 0550
ENCODING 1360
SWIDTH 666 0
DWIDTH 8 0
BBX 6 8 1 1
BITMAP
78
8C
84
84
84
80
80
80
ENDCHAR
STARTCHAR 0551
ENCODING 1361
SWIDTH 583 0
DWIDTH 7 0
BBX 6 9 1 0
BITMAP
78
84
84
C4
78
84
04
84
78
ENDCHAR
STARTCHAR 0552
ENCODING 1362
SWIDTH 416 0
DWIDTH 5 0
BBX 3 8 1 0
BITMAP
80
80
E0
80
80
80
80
80
ENDCHAR
STARTCHAR 0553
ENCODING 1363
SWIDTH 750 0
DWIDTH 9 0
BBX 8 9 1 0
BITMAP
10
3C
D2
91
91
91
52
3C
10
ENDCHAR
STARTCHAR 0554
ENCODING 1364
SWIDTH 666 0
DWIDTH 8 0
BBX 7 9 0 0
BITMAP
3C
66
42
42
62
7C
40
FE
40
ENDCHAR
STARTCHAR 0555
ENCODING 1365
SWIDTH 750 0
DWIDTH 9 0
BBX 8 9 1 0
BITMAP
3C
42
81
81
81
81
81
42
3C
ENDCHAR
STARTCHAR 0556
ENCODING 1366
SWIDTH 750 0
DWIDTH 9 0
BBX 7 9 1 0
BITMAP
70
90
90
7C
12
12
12
92
7C
ENDCHAR
STARTCHAR 0559
ENCODING 1369
SWIDTH 250 0
DWIDTH 3 0
BBX 2 3 1 7
BITMAP
40
80
40
ENDCHAR
STARTCHAR 055A
ENCODING 1370
SWIDTH 250 0
DWIDTH 3 0
BBX 1 2 1 5
BITMAP
80
80
ENDCHAR
STARTCHAR 055B
ENCODING 1371
SWIDTH 166 0
DWIDTH 2 0
BBX 1 1 0 7
BITMAP
80
ENDCHAR
STARTCHAR 055C
ENCODING 1372
SWIDTH 333 0
DWIDTH 4 0
BBX 3 1 0 7
BITMAP
E0
ENDCHAR
STARTCHAR 055D
ENCODING 1373
SWIDTH 333 0
DWIDTH 4 0
BBX 1 1 1 8
BITMAP
80
ENDCHAR
STARTCHAR 055E
ENCODING 1374
SWIDTH 333 0
DWIDTH 4 0
BBX 4 3 0 7
BITMAP
70
B0
30
ENDCHAR
STARTCHAR 055F
ENCODING 1375
SWIDTH 333 0
DWIDTH 4 0
BBX 3 2 0 7
BITMAP
80
E0
ENDCHAR
STARTCHAR 0561
ENCODING 1377
SWIDTH 833 0
DWIDTH 10 0
BBX 8 7 1 0
BITMAP
91
91
91
91
91
91
EF
ENDCHAR
STARTCHAR 0562
ENCODING 1378
SWIDTH 583 0
DWIDTH 7 0
BBX 5 9 1 -2
BITMAP
B0
C8
88
88
80
80
F8
80
80
ENDCHAR
STARTCHAR 0563
ENCODING 1379
SWIDTH 583 0
DWIDTH 7 0
BBX 7 9 0 -2
BITMAP
74
CC
84
84
84
CC
7E
04
04
ENDCHAR
STARTCHAR 0564
ENCODING 1380
SWIDTH 583 0
DWIDTH 7 0
BBX 5 9 1 -2
BITMAP
F0
90
90
90
90
90
98
10
10
ENDCHAR
STARTCHAR 0565
ENCODING 1381
SWIDTH 583 0
DWIDTH 7 0
BBX 5 9 1 0
BITMAP
80
80
80
F8
80
88
88
88
78
ENDCHAR
STARTCHAR 0566
ENCODING 1382
SWIDTH 583 0
DWIDTH 7 0
BBX 7 9 0 -2
BITMAP
7C
CC
84
84
84
CC
74
04
06
ENDCHAR
STARTCHAR 0567
ENCODING 1383
SWIDTH 333 0
DWIDTH 4 0
BBX 4 9 1 -1
BITMAP
80
80
F0
80
80
80
80
E0
20
ENDCHAR
STARTCHAR 0568
ENCODING 1384
SWIDTH 583 0
DWIDTH 7 0
BBX 5 9 1 -2
BITMAP
B0
C8
88
88
88
88
88
80
F8
ENDCHAR
STARTCHAR 0569
ENCODING 1385
SWIDTH 583 0
DWIDTH 7 0
BBX 5 9 1 -3
BITMAP
B0
C8
88
B8
A8
A8
B0
80
80
ENDCHAR
STARTCHAR 056A
ENCODING 1386
SWIDTH 583 0
DWIDTH 7 0
BBX 7 9 0 0
BITMAP
04
04
7E
C4
84
84
84
CC
78
ENDCHAR
STARTCHAR 056B
ENCODING 1387
SWIDTH 583 0
DWIDTH 7 0
BBX 5 10 1 -1
BITMAP
80
80
F0
88
88
88
88
88
88
80
ENDCHAR
STARTCHAR 056C
ENCODING 1388
SWIDTH 250 0
DWIDTH 3 0
BBX 2 9 1 -2
BITMAP
80
80
80
80
80
80
80
80
C0
ENDCHAR
STARTCHAR 056D
ENCODING 1389
SWIDTH 833 0
DWIDTH 10 0
BBX 8 11 1 -2
BITMAP
80
80
F1
91
91
91
91
91
8F
80
80
ENDCHAR
STARTCHAR 056E
ENCODING 1390
SWIDTH 500 0
DWIDTH 6 0
BBX 7 9 0 0
BITMAP
10
20
30
7E
8C
84
84
8C
78
ENDCHAR
STARTCHAR 056F
ENCODING 1391
SWIDTH 583 0
DWIDTH 7 0
BBX 5 11 1 -2
BITMAP
80
80
88
88
88
88
88
88
78
08
08
ENDCHAR
STARTCHAR 0570
ENCODING 1392
SWIDTH 500 0
DWIDTH 6 0
BBX 5 9 1 0
BITMAP
80
80
F0
88
88
88
88
88
88
ENDCHAR
STARTCHAR 0571
ENCODING 1393
SWIDTH 500 0
DWIDTH 6 0
BBX 6 9 0 0
BITMAP
20
10
30
48
84
84
84
CC
7C
ENDCHAR
STARTCHAR 0572
ENCODING 1394
SWIDTH 583 0
DWIDTH 7 0
BBX 5 9 1 -2
BITMAP
F0
90
90
90
90
90
90
10
18
ENDCHAR
STARTCHAR 0573
ENCODING 1395
SWIDTH 583 0
DWIDTH 7 0
BBX 5 9 1 0
BITMAP
08
10
60
60
50
50
88
88
F8
ENDCHAR
STARTCHAR 0574
ENCODING 1396
SWIDTH 500 0
DWIDTH 6 0
BBX 4 9 1 0
BITMAP
30
20
90
90
90
90
90
90
F0
ENDCHAR
STARTCHAR 0575
ENCODING 1397
SWIDTH 250 0
DWIDTH 3 0
BBX 2 9 0 -2
BITMAP
40
40
40
40
40
40
40
40
C0
ENDCHAR
STARTCHAR 0576
ENCODING 1398
SWIDTH 500 0
DWIDTH 6 0
BBX 4 9 1 0
BITMAP
40
80
90
90
90
90
90
90
F0
ENDCHAR
STARTCHAR 0577
ENCODING 1399
SWIDTH 416 0
DWIDTH 5 0
BBX 4 9 0 -2
BITMAP
60
10
10
10
20
40
C0
80
F0
ENDCHAR
STARTCHAR 0578
ENCODING 1400
SWIDTH 583 0
DWIDTH 7 0
BBX 5 7 1 0
BITMAP
B0
C8
88
88
88
88
88
ENDCHAR
STARTCHAR 0579
ENCODING 1401
SWIDTH 416 0
DWIDTH 5 0
BBX 4 9 0 -2
BITMAP
30
40
40
30
10
20
40
80
F0
ENDCHAR
STARTCHAR 057A
ENCODING 1402
SWIDTH 833 0
DWIDTH 10 0
BBX 8 9 1 -2
BITMAP
91
91
91
91
91
91
EF
01
01
ENDCHAR
STARTCHAR 057B
ENCODING 1403
SWIDTH 500 0
DWIDTH 6 0
BBX 5 9 0 -2
BITMAP
70
88
88
88
68
30
20
40
70
ENDCHAR
STARTCHAR 057C
ENCODING 1404
SWIDTH 500 0
DWIDTH 6 0
BBX 5 7 1 0
BITMAP
B0
C8
88
88
90
A0
B0
ENDCHAR
STARTCHAR 057D
ENCODING 1405
SWIDTH 583 0
DWIDTH 7 0
BBX 5 7 1 0
BITMAP
88
88
88
88
88
88
78
ENDCHAR
STARTCHAR 057E
ENCODING 1406
SWIDTH 583 0
DWIDTH 7 0
BBX 6 10 1 -2
BITMAP
08
88
88
88
88
88
88
78
08
0C
ENDCHAR
STARTCHAR 057F
ENCODING 1407
SWIDTH 916 0
DWIDTH 11 0
BBX 9 7 1 0
BITMAP
8B00
8C80
8880
8880
8880
8880
7880
ENDCHAR
STARTCHAR 0580
ENCODING 1408
SWIDTH 583 0
DWIDTH 7 0
BBX 5 9 1 -2
BITMAP
B0
C8
88
88
88
88
88
80
80
ENDCHAR
STARTCHAR 0581
ENCODING 1409
SWIDTH 583 0
DWIDTH 7 0
BBX 6 9 0 -2
BITMAP
74
CC
84
84
84
CC
74
84
78
ENDCHAR
STARTCHAR 0582
ENCODING 1410
SWIDTH 333 0
DWIDTH 4 0
BBX 2 7 1 0
BITMAP
80
80
80
80
80
80
C0
ENDCHAR
STARTCHAR 0583
ENCODING 1411
SWIDTH 916 0
DWIDTH 11 0
BBX 9 11 1 -2
BITMAP
0800
0800
8B00
8C80
8880
8880
8880
8880
7880
0800
0800
ENDCHAR
STARTCHAR 0584
ENCODING 1412
SWIDTH 583 0
DWIDTH 7 0
BBX 6 9 0 -2
BITMAP
78
44
44
44
44
78
40
F8
40
ENDCHAR
STARTCHAR 0585
ENCODING 1413
SWIDTH 583 0
DWIDTH 7 0
BBX 6 7 0 0
BITMAP
78
CC
84
84
84
CC
78
ENDCHAR
STARTCHAR 0586
ENCODING 1414
SWIDTH 666 0
DWIDTH 8 0
BBX 7 11 0 -2
BITMAP
30
50
50
3C
12
12
12
92
7C
10
10
ENDCHAR
STARTCHAR 0587
ENCODING 1415
SWIDTH 583 0
DWIDTH 7 0
BBX 6 9 1 0
BITMAP
80
80
80
80
80
88
88
88
FC
ENDCHAR
STARTCHAR 0589
ENCODING 1417
SWIDTH 250 0
DWIDTH 3 0
BBX 1 6 1 0
BITMAP
80
00
00
00
00
80
ENDCHAR
STARTCHAR 058A
ENCODING 1418
SWIDTH 333 0
DWIDTH 4 0
BBX 3 2 0 2
BITMAP
80
E0
ENDCHAR
STARTCHAR 058F
ENCODING 1423
SWIDTH 750 0
DWIDTH 9 0
BBX 7 8 1 1
BITMAP
78
CC
84
84
8E
0E
04
04
ENDCHAR
STARTCHAR 05B0
ENCODING 1456
SWIDTH 0 0
DWIDTH 0 0
BBX 1 2 3 -3
BITMAP
80
80
ENDCHAR
STARTCHAR 05B1
ENCODING 1457
SWIDTH 0 0
DWIDTH 0 0
BBX 5 2 1 -3
BITMAP
A8
48
ENDCHAR
STARTCHAR 05B2
ENCODING 1458
SWIDTH 0 0
DWIDTH 0 0
BBX 5 2 1 -3
BITMAP
C8
08
ENDCHAR
STARTCHAR 05B3
ENCODING 1459
SWIDTH 0 0
DWIDTH 0 0
BBX 5 2 1 -3
BITMAP
E8
48
ENDCHAR
STARTCHAR 05B4
ENCODING 1460
SWIDTH 0 0
DWIDTH 0 0
BBX 1 1 3 -2
BITMAP
80
ENDCHAR
STARTCHAR 05B5
ENCODING 1461
SWIDTH 0 0
DWIDTH 0 0
BBX 3 1 2 -2
BITMAP
A0
ENDCHAR
STARTCHAR 05B6
ENCODING 1462
SWIDTH 0 0
DWIDTH 0 0
BBX 3 2 2 -3
BITMAP
A0
40
ENDCHAR
STARTCHAR 05B7
ENCODING 1463
SWIDTH 0 0
DWIDTH 0 0
BBX 2 1 2 -2
BITMAP
C0
ENDCHAR
STARTCHAR 05B8
ENCODING 1464
SWIDTH 0 0
DWIDTH 0 0
BBX 3 2 2 -3
BITMAP
E0
40
ENDCHAR
STARTCHAR 05B9
ENCODING 1465
SWIDTH 0 0
DWIDTH 0 0
BBX 1 1 3 8
BITMAP
80
ENDCHAR
STARTCHAR 05BA
ENCODING 1466
SWIDTH 0 0
DWIDTH 0 0
BBX 1 1 0 7
BITMAP
80
ENDCHAR
STARTCHAR 05BB
ENCODING 1467
SWIDTH 0 0
DWIDTH 0 0
BBX 3 3 2 -4
BITMAP
80
40
20
ENDCHAR
STARTCHAR 05BC
ENCODING 1468
SWIDTH 0 0
DWIDTH 0 0
BBX 1 1 3 3
BITMAP
80
ENDCHAR
STARTCHAR 05BD
ENCODING 1469
SWIDTH 0 0
DWIDTH 0 0
BBX 1 2 3 -3
BITMAP
80
80
ENDCHAR
STARTCHAR 05BE
ENCODING 1470
SWIDTH 416 0
DWIDTH 5 0
BBX 5 1 0 7
BITMAP
F8
ENDCHAR
STARTCHAR 05BF
ENCODING 1471
SWIDTH 0 0
DWIDTH 0 0
BBX 3 1 1 8
BITMAP
E0
ENDCHAR
STARTCHAR 05C0
ENCODING 1472
SWIDTH 250 0
DWIDTH 3 0
BBX 1 10 1 -1
BITMAP
80
80
80
80
80
80
80
80
80
80
ENDCHAR
STARTCHAR 05C1
ENCODING 1473
SWIDTH 0 0
DWIDTH 0 0
BBX 1 1 8 8
BITMAP
80
ENDCHAR
STARTCHAR 05C2
ENCODING 1474
SWIDTH 0 0
DWIDTH 0 0
BBX 1 1 1 8
BITMAP
80
ENDCHAR
STARTCHAR 05C3
ENCODING 1475
SWIDTH 250 0
DWIDTH 3 0
BBX 1 7 1 0
BITMAP
80
00
00
00
00
00
80
ENDCHAR
STARTCHAR 05C4
ENCODING 1476
SWIDTH 0 0
DWIDTH 0 0
BBX 1 1 5 8
BITMAP
80
ENDCHAR
STARTCHAR 05C5
ENCODING 1477
SWIDTH 0 0
DWIDTH 0 0
BBX 1 1 3 -2
BITMAP
80
ENDCHAR
STARTCHAR 05C6
ENCODING 1478
SWIDTH 416 0
DWIDTH 5 0
BBX 3 8 1 0
BITMAP
60
C0
80
80
80
80
80
E0
ENDCHAR
STARTCHAR 05C7
ENCODING 1479
SWIDTH 0 0
DWIDTH 0 0
BBX 3 2 2 -3
BITMAP
E0
40
ENDCHAR
STARTCHAR 05D0
ENCODING 1488
SWIDTH 666 0
DWIDTH 8 0
BBX 6 7 1 1
BITMAP
C4
44
64
78
90
88
84
ENDCHAR
STARTCHAR 05D1
ENCODING 1489
SWIDTH 583 0
DWIDTH 7 0
BBX 6 8 1 0
BITMAP
F0
18
08
08
08
08
08
FC
ENDCHAR
STARTCHAR 05D2
ENCODING 1490
SWIDTH 500 0
DWIDTH 6 0
BBX 4 8 1 0
BITMAP
C0
20
20
10
10
30
50
90
ENDCHAR
STARTCHAR 05D3
ENCODING 1491
SWIDTH 583 0
DWIDTH 7 0
BBX 6 8 0 0
BITMAP
FC
08
08
08
08
08
08
08
ENDCHAR
STARTCHAR 05D4
ENCODING 1492
SWIDTH 583 0
DWIDTH 7 0
BBX 6 8 1 0
BITMAP
F8
0C
04
84
84
84
84
84
ENDCHAR
STARTCHAR 05D5
ENCODING 1493
SWIDTH 250 0
DWIDTH 3 0
BBX 1 7 1 1
BITMAP
80
80
80
80
80
80
80
ENDCHAR
STARTCHAR 05D6
ENCODING 1494
SWIDTH 333 0
DWIDTH 4 0
BBX 3 8 1 0
BITMAP
E0
40
40
40
40
40
40
40
ENDCHAR
STARTCHAR 05D7
ENCODING 1495
SWIDTH 583 0
DWIDTH 7 0
BBX 6 8 1 0
BITMAP
F8
8C
84
84
84
84
84
84
ENDCHAR
STARTCHAR 05D8
ENCODING 1496
SWIDTH 583 0
DWIDTH 7 0
BBX 6 8 1 0
BITMAP
B8
8C
84
84
84
84
CC
78
ENDCHAR
STARTCHAR 05D9
ENCODING 1497
SWIDTH 166 0
DWIDTH 2 0
BBX 1 4 1 3
BITMAP
80
80
80
80
ENDCHAR
STARTCHAR 05DA
ENCODING 1498
SWIDTH 500 0
DWIDTH 6 0
BBX 5 10 1 -2
BITMAP
F0
18
08
08
08
08
08
08
08
08
ENDCHAR
STARTCHAR 05DB
ENCODING 1499
SWIDTH 583 0
DWIDTH 7 0
BBX 5 8 1 0
BITMAP
F0
18
08
08
08
08
18
F0
ENDCHAR
STARTCHAR 05DC
ENCODING 1500
SWIDTH 583 0
DWIDTH 7 0
BBX 7 9 0 0
BITMAP
80
FE
02
02
06
0C
10
10
10
ENDCHAR
STARTCHAR 05DD
ENCODING 1501
SWIDTH 583 0
DWIDTH 7 0
BBX 6 8 1 0
BITMAP
F0
8C
84
84
84
84
84
FC
ENDCHAR
STARTCHAR 05DE
ENCODING 1502
SWIDTH 583 0
DWIDTH 7 0
BBX 6 8 1 0
BITMAP
F0
CC
84
84
84
84
84
9C
ENDCHAR
STARTCHAR 05DF
ENCODING 1503
SWIDTH 250 0
DWIDTH 3 0
BBX 1 9 1 -2
BITMAP
80
80
80
80
80
80
80
80
80
ENDCHAR
STARTCHAR 05E0
ENCODING 1504
SWIDTH 416 0
DWIDTH 5 0
BBX 3 8 1 0
BITMAP
C0
60
20
20
20
20
20
E0
ENDCHAR
STARTCHAR 05E1
ENCODING 1505
SWIDTH 583 0
DWIDTH 7 0
BBX 6 8 1 0
BITMAP
F8
8C
84
84
84
84
CC
78
ENDCHAR
STARTCHAR 05E2
ENCODING 1506
SWIDTH 583 0
DWIDTH 7 0
BBX 6 8 0 0
BITMAP
44
44
24
24
24
2C
78
80
ENDCHAR
STARTCHAR 05E3
ENCODING 1507
SWIDTH 583 0
DWIDTH 7 0
BBX 5 10 1 -2
BITMAP
F0
88
88
88
C8
08
08
08
08
08
ENDCHAR
STARTCHAR 05E4
ENCODING 1508
SWIDTH 583 0
DWIDTH 7 0
BBX 5 8 1 0
BITMAP
F0
98
88
88
48
08
18
F0
ENDCHAR
STARTCHAR 05E5
ENCODING 1509
SWIDTH 500 0
DWIDTH 6 0
BBX 5 9 1 -2
BITMAP
88
48
68
30
20
20
20
20
20
ENDCHAR
STARTCHAR 05E6
ENCODING 1510
SWIDTH 583 0
DWIDTH 7 0
BBX 6 7 0 1
BITMAP
44
24
2C
18
18
08
FC
ENDCHAR
STARTCHAR 05E7
ENCODING 1511
SWIDTH 583 0
DWIDTH 7 0
BBX 6 10 1 -2
BITMAP
FC
04
84
84
84
84
8C
B8
80
80
ENDCHAR
STARTCHAR 05E8
ENCODING 1512
SWIDTH 583 0
DWIDTH 7 0
BBX 5 8 1 0
BITMAP
F0
08
08
08
08
08
08
08
ENDCHAR
STARTCHAR 05E9
ENCODING 1513
SWIDTH 750 0
DWIDTH 9 0
BBX 8 8 1 0
BITMAP
90
91
91
91
E1
81
42
3C
ENDCHAR
STARTCHAR 05EA
ENCODING 1514
SWIDTH 666 0
DWIDTH 8 0
BBX 7 8 1 0
BITMAP
FC
46
42
42
42
42
42
82
ENDCHAR
STARTCHAR 05F0
ENCODING 1520
SWIDTH 416 0
DWIDTH 5 0
BBX 3 7 1 1
BITMAP
A0
A0
A0
A0
A0
A0
A0
ENDCHAR
STARTCHAR 05F1
ENCODING 1521
SWIDTH 416 0
DWIDTH 5 0
BBX 3 7 1 1
BITMAP
A0
A0
A0
20
20
20
20
ENDCHAR
STARTCHAR 05F2
ENCODING 1522
SWIDTH 416 0
DWIDTH 5 0
BBX 3 4 1 3
BITMAP
A0
A0
A0
A0
ENDCHAR
STARTCHAR 05F3
ENCODING 1523
SWIDTH 166 0
DWIDTH 2 0
BBX 1 3 1 6
BITMAP
80
80
80
ENDCHAR
STARTCHAR 05F4
ENCODING 1524
SWIDTH 333 0
DWIDTH 4 0
BBX 3 3 1 6
BITMAP
A0
A0
A0
ENDCHAR
STARTCHAR 0700
ENCODING 1792
SWIDTH 583 0
DWIDTH 7 0
BBX 5 6 1 0
BITMAP
20
00
00
88
00
20
ENDCHAR
STARTCHAR 0701
ENCODING 1793
SWIDTH 166 0
DWIDTH 2 0
BBX 1 1 1 1
BITMAP
80
ENDCHAR
STARTCHAR 0702
ENCODING 1794
SWIDTH 166 0
DWIDTH 2 0
BBX 1 1 1 -1
BITMAP
80
ENDCHAR
STARTCHAR 0703
ENCODING 1795
SWIDTH 166 0
DWIDTH 2 0
BBX 1 4 1 1
BITMAP
80
00
00
80
ENDCHAR
STARTCHAR 0704
ENCODING 1796
SWIDTH 166 0
DWIDTH 2 0
BBX 1 4 1 -3
BITMAP
80
00
00
80
ENDCHAR
STARTCHAR 0705
ENCODING 1797
SWIDTH 500 0
DWIDTH 6 0
BBX 3 1 1 -1
BITMAP
A0
ENDCHAR
STARTCHAR 0706
ENCODING 1798
SWIDTH 500 0
DWIDTH 6 0
BBX 3 2 1 -1
BITMAP
80
20
ENDCHAR
STARTCHAR 0707
ENCODING 1799
SWIDTH 500 0
DWIDTH 6 0
BBX 3 2 1 -1
BITMAP
20
80
ENDCHAR
STARTCHAR 0708
ENCODING 1800
SWIDTH 333 0
DWIDTH 4 0
BBX 2 4 1 1
BITMAP
80
00
00
40
ENDCHAR
STARTCHAR 0709
ENCODING 1801
SWIDTH 333 0
DWIDTH 4 0
BBX 2 4 1 -3
BITMAP
80
00
00
40
ENDCHAR
STARTCHAR 070A
ENCODING 1802
SWIDTH 583 0
DWIDTH 7 0
BBX 7 8 0 1
BITMAP
28
FE
00
00
10
00
00
10
ENDCHAR
STARTCHAR 070B
ENCODING 1803
SWIDTH 583 0
DWIDTH 7 0
BBX 7 4 0 3
BITMAP
FE
00
00
10
ENDCHAR
STARTCHAR 070C
ENCODING 1804
SWIDTH 666 0
DWIDTH 8 0
BBX 4 5 2 3
BITMAP
80
40
40
20
30
ENDCHAR
STARTCHAR 070D
ENCODING 1805
SWIDTH 583 0
DWIDTH 7 0
BBX 5 6 1 3
BITMAP
A8
20
F8
20
20
88
ENDCHAR
STARTCHAR 070F
ENCODING 1807
SWIDTH 0 0
DWIDTH 0 0
BBX 0 0 0 0
BITMAP
ENDCHAR
STARTCHAR 0710
ENCODING 1808
SWIDTH 416 0
DWIDTH 5 0
BBX 4 10 0 -2
BITMAP
40
60
20
20
20
20
20
70
40
80
ENDCHAR
STARTCHAR 0711
ENCODING 1809
SWIDTH 416 0
DWIDTH 5 0
BBX 3 5 1 5
BITMAP
40
40
40
60
80
ENDCHAR
STARTCHAR 0712
ENCODING 1810
SWIDTH 583 0
DWIDTH 7 0
BBX 7 5 -1 0
BITMAP
1E
02
02
02
FE
ENDCHAR
STARTCHAR 0713
ENCODING 1811
SWIDTH 666 0
DWIDTH 8 0
BBX 8 9 -1 -2
BITMAP
20
10
18
08
04
FF
08
04
02
ENDCHAR
STARTCHAR 0714
ENCODING 1812
SWIDTH 666 0
DWIDTH 8 0
BBX 8 9 -1 -2
BITMAP
20
10
18
08
24
FF
08
04
02
ENDCHAR
STARTCHAR 0715
ENCODING 1813
SWIDTH 500 0
DWIDTH 6 0
BBX 5 7 1 -2
BITMAP
38
08
08
08
78
00
80
ENDCHAR
STARTCHAR 0716
ENCODING 1814
SWIDTH 500 0
DWIDTH 6 0
BBX 4 5 2 0
BITMAP
70
10
10
10
F0
ENDCHAR
STARTCHAR 0717
ENCODING 1815
SWIDTH 666 0
DWIDTH 8 0
BBX 7 6 1 -1
BITMAP
7E
92
92
92
62
02
ENDCHAR
STARTCHAR 0718
ENCODING 1816
SWIDTH 583 0
DWIDTH 7 0
BBX 5 5 1 0
BITMAP
70
88
88
88
70
ENDCHAR
STARTCHAR 0719
ENCODING 1817
SWIDTH 416 0
DWIDTH 5 0
BBX 2 5 2 -2
BITMAP
C0
C0
C0
40
40
ENDCHAR
STARTCHAR 071A
ENCODING 1818
SWIDTH 666 0
DWIDTH 8 0
BBX 7 3 0 1
BITMAP
28
3C
EA
ENDCHAR
STARTCHAR 071B
ENCODING 1819
SWIDTH 750 0
DWIDTH 9 0
BBX 9 9 -1 -2
BITMAP
2000
1000
1000
0800
0800
0400
FF80
0280
0100
ENDCHAR
STARTCHAR 071C
ENCODING 1820
SWIDTH 750 0
DWIDTH 9 0
BBX 9 8 -1 -2
BITMAP
2000
1000
1000
0800
0800
0400
FF80
0380
ENDCHAR
STARTCHAR 071D
ENCODING 1821
SWIDTH 500 0
DWIDTH 6 0
BBX 6 3 -1 1
BITMAP
08
0C
F8
ENDCHAR
STARTCHAR 071E
ENCODING 1822
SWIDTH 666 0
DWIDTH 8 0
BBX 10 11 -1 -2
BITMAP
1000
0000
2800
0000
7C00
9400
9400
9480
6740
0400
1000
ENDCHAR
STARTCHAR 071F
ENCODING 1823
SWIDTH 583 0
DWIDTH 7 0
BBX 5 9 2 -3
BITMAP
10
F0
80
80
B8
48
08
08
10
ENDCHAR
STARTCHAR 0720
ENCODING 1824
SWIDTH 666 0
DWIDTH 8 0
BBX 8 8 -1 0
BITMAP
10
10
08
04
06
02
01
FF
ENDCHAR
STARTCHAR 0721
ENCODING 1825
SWIDTH 666 0
DWIDTH 8 0
BBX 6 7 2 -2
BITMAP
FC
24
24
44
7C
80
80
ENDCHAR
STARTCHAR 0722
ENCODING 1826
SWIDTH 500 0
DWIDTH 6 0
BBX 5 6 2 -3
BITMAP
80
C0
A0
20
10
08
ENDCHAR
STARTCHAR 0723
ENCODING 1827
SWIDTH 750 0
DWIDTH 9 0
BBX 9 5 0 0
BITMAP
1C00
2700
2480
3480
EF80
ENDCHAR
STARTCHAR 0724
ENCODING 1828
SWIDTH 750 0
DWIDTH 9 0
BBX 7 7 2 -3
BITMAP
70
9C
92
D2
3E
60
40
ENDCHAR
STARTCHAR 0725
ENCODING 1829
SWIDTH 750 0
DWIDTH 9 0
BBX 9 7 -1 0
BITMAP
2000
1000
1000
0800
0800
0480
FB80
ENDCHAR
STARTCHAR 0726
ENCODING 1830
SWIDTH 583 0
DWIDTH 7 0
BBX 8 7 -1 1
BITMAP
0E
12
12
1E
02
02
FF
ENDCHAR
STARTCHAR 0727
ENCODING 1831
SWIDTH 583 0
DWIDTH 7 0
BBX 8 7 -1 0
BITMAP
40
78
48
78
80
80
FF
ENDCHAR
STARTCHAR 0728
ENCODING 1832
SWIDTH 666 0
DWIDTH 8 0
BBX 6 7 2 -3
BITMAP
80
88
F0
C0
60
1C
FC
ENDCHAR
STARTCHAR 0729
ENCODING 1833
SWIDTH 583 0
DWIDTH 7 0
BBX 7 5 0 0
BITMAP
3E
22
22
22
FE
ENDCHAR
STARTCHAR 072A
ENCODING 1834
SWIDTH 500 0
DWIDTH 6 0
BBX 4 8 2 0
BITMAP
80
00
00
70
10
10
10
F0
ENDCHAR
STARTCHAR 072B
ENCODING 1835
SWIDTH 666 0
DWIDTH 8 0
BBX 8 5 -1 0
BITMAP
1F
04
04
04
FF
ENDCHAR
STARTCHAR 072C
ENCODING 1836
SWIDTH 666 0
DWIDTH 8 0
BBX 6 6 1 0
BITMAP
20
50
90
88
B4
C0
ENDCHAR
STARTCHAR 072D
ENCODING 1837
SWIDTH 583 0
DWIDTH 7 0
BBX 7 7 -1 1
BITMAP
08
10
1E
02
02
02
FE
ENDCHAR
STARTCHAR 072E
ENCODING 1838
SWIDTH 666 0
DWIDTH 8 0
BBX 8 10 -1 -3
BITMAP
02
12
1C
08
08
04
FF
04
02
02
ENDCHAR
STARTCHAR 072F
ENCODING 1839
SWIDTH 500 0
DWIDTH 6 0
BBX 5 8 1 -3
BITMAP
38
08
08
08
F8
00
80
10
ENDCHAR
STARTCHAR 0730
ENCODING 1840
SWIDTH 0 0
DWIDTH 0 0
BBX 2 2 2 7
BITMAP
C0
80
ENDCHAR
STARTCHAR 0731
ENCODING 1841
SWIDTH 0 0
DWIDTH 0 0
BBX 2 2 3 -3
BITMAP
40
C0
ENDCHAR
STARTCHAR 0732
ENCODING 1842
SWIDTH 0 0
DWIDTH 0 0
BBX 1 12 4 -4
BITMAP
80
80
00
00
00
00
00
00
00
00
80
80
ENDCHAR
STARTCHAR 0733
ENCODING 1843
SWIDTH 0 0
DWIDTH 0 0
BBX 3 1 3 8
BITMAP
A0
ENDCHAR
STARTCHAR 0734
ENCODING 1844
SWIDTH 0 0
DWIDTH 0 0
BBX 3 1 2 -2
BITMAP
A0
ENDCHAR
STARTCHAR 0735
ENCODING 1845
SWIDTH 0 0
DWIDTH 0 0
BBX 3 2 3 7
BITMAP
80
20
ENDCHAR
STARTCHAR 0736
ENCODING 1846
SWIDTH 0 0
DWIDTH 0 0
BBX 3 2 3 7
BITMAP
40
E0
ENDCHAR
STARTCHAR 0737
ENCODING 1847
SWIDTH 0 0
DWIDTH 0 0
BBX 3 2 2 -2
BITMAP
E0
40
ENDCHAR
STARTCHAR 0738
ENCODING 1848
SWIDTH 0 0
DWIDTH 0 0
BBX 2 1 3 -3
BITMAP
C0
ENDCHAR
STARTCHAR 0739
ENCODING 1849
SWIDTH 0 0
DWIDTH 0 0
BBX 3 2 2 -3
BITMAP
20
80
ENDCHAR
STARTCHAR 073A
ENCODING 1850
SWIDTH 0 0
DWIDTH 0 0
BBX 3 2 2 7
BITMAP
E0
E0
ENDCHAR
STARTCHAR 073B
ENCODING 1851
SWIDTH 0 0
DWIDTH 0 0
BBX 3 2 3 -2
BITMAP
E0
E0
ENDCHAR
STARTCHAR 073C
ENCODING 1852
SWIDTH 0 0
DWIDTH 0 0
BBX 1 1 3 -2
BITMAP
80
ENDCHAR
STARTCHAR 073D
ENCODING 1853
SWIDTH 0 0
DWIDTH 0 0
BBX 3 3 2 6
BITMAP
20
C0
80
ENDCHAR
STARTCHAR 073E
ENCODING 1854
SWIDTH 0 0
DWIDTH 0 0
BBX 3 1 3 -2
BITMAP
E0
ENDCHAR
STARTCHAR 073F
ENCODING 1855
SWIDTH 0 0
DWIDTH 0 0
BBX 1 1 3 8
BITMAP
80
ENDCHAR
STARTCHAR 0740
ENCODING 1856
SWIDTH 0 0
DWIDTH 0 0
BBX 1 1 3 -2
BITMAP
80
ENDCHAR
STARTCHAR 0741
ENCODING 1857
SWIDTH 0 0
DWIDTH 0 0
BBX 1 1 3 8
BITMAP
80
ENDCHAR
STARTCHAR 0742
ENCODING 1858
SWIDTH 0 0
DWIDTH 0 0
BBX 1 1 3 -2
BITMAP
80
ENDCHAR
STARTCHAR 0743
ENCODING 1859
SWIDTH 0 0
DWIDTH 0 0
BBX 1 3 3 7
BITMAP
80
00
80
ENDCHAR
STARTCHAR 0744
ENCODING 1860
SWIDTH 0 0
DWIDTH 0 0
BBX 1 3 3 -4
BITMAP
80
00
80
ENDCHAR
STARTCHAR 0745
ENCODING 1861
SWIDTH 0 0
DWIDTH 0 0
BBX 3 3 2 7
BITMAP
40
00
A0
ENDCHAR
STARTCHAR 0746
ENCODING 1862
SWIDTH 0 0
DWIDTH 0 0
BBX 3 3 2 -4
BITMAP
A0
00
40
ENDCHAR
STARTCHAR 0747
ENCODING 1863
SWIDTH 0 0
DWIDTH 0 0
BBX 2 1 2 8
BITMAP
C0
ENDCHAR
STARTCHAR 0748
ENCODING 1864
SWIDTH 0 0
DWIDTH 0 0
BBX 3 1 2 -2
BITMAP
E0
ENDCHAR
STARTCHAR 0749
ENCODING 1865
SWIDTH 0 0
DWIDTH 0 0
BBX 3 3 2 7
BITMAP
E0
60
60
ENDCHAR
STARTCHAR 074A
ENCODING 1866
SWIDTH 0 0
DWIDTH 0 0
BBX 3 3 3 6
BITMAP
E0
E0
E0
ENDCHAR
STARTCHAR 074D
ENCODING 1869
SWIDTH 666 0
DWIDTH 8 0
BBX 7 7 2 1
BITMAP
86
84
44
48
28
30
30
ENDCHAR
STARTCHAR 074E
ENCODING 1870
SWIDTH 666 0
DWIDTH 8 0
BBX 8 9 -1 0
BITMAP
02
12
1C
0C
04
06
02
01
FF
ENDCHAR
STARTCHAR 074F
ENCODING 1871
SWIDTH 666 0
DWIDTH 8 0
BBX 9 8 -1 1
BITMAP
3600
1900
0900
0E00
0600
0300
0180
FF80
ENDCHAR
STARTCHAR 0900
ENCODING 2304
SWIDTH 0 0
DWIDTH 0 0
BBX 5 2 -4 9
BITMAP
70
A8
ENDCHAR
STARTCHAR 0901
ENCODING 2305
SWIDTH 0 0
DWIDTH 0 0
BBX 5 2 -4 8
BITMAP
A8
70
ENDCHAR
STARTCHAR 0902
ENCODING 2306
SWIDTH 0 0
DWIDTH 0 0
BBX 1 1 -2 8
BITMAP
80
ENDCHAR
STARTCHAR 0903
ENCODING 2307
SWIDTH 333 0
DWIDTH 4 0
BBX 1 4 1 1
BITMAP
80
00
00
80
ENDCHAR
STARTCHAR 0904
ENCODING 2308
SWIDTH 750 0
DWIDTH 9 0
BBX 8 11 1 0
BITMAP
20
3C
04
67
92
12
72
8E
CA
3A
02
ENDCHAR
STARTCHAR 0905
ENCODING 2309
SWIDTH 750 0
DWIDTH 9 0
BBX 8 8 1 0
BITMAP
67
92
12
72
8E
CA
3A
02
ENDCHAR
STARTCHAR 0906
ENCODING 2310
SWIDTH 916 0
DWIDTH 11 0
BBX 10 8 1 0
BITMAP
6FC0
9480
1480
7480
8C80
CC80
3C80
0480
ENDCHAR
STARTCHAR 0907
ENCODING 2311
SWIDTH 500 0
DWIDTH 6 0
BBX 5 10 0 -2
BITMAP
F8
10
10
70
78
28
08
70
10
08
ENDCHAR
STARTCHAR 0908
ENCODING 2312
SWIDTH 500 0
DWIDTH 6 0
BBX 5 13 0 -2
BITMAP
18
10
10
F8
10
10
70
40
38
08
78
10
08
ENDCHAR
STARTCHAR 0909
ENCODING 2313
SWIDTH 583 0
DWIDTH 7 0
BBX 7 8 1 0
BITMAP
FE
04
04
98
44
44
24
18
ENDCHAR
STARTCHAR 090A
ENCODING 2314
SWIDTH 833 0
DWIDTH 10 0
BBX 9 8 1 0
BITMAP
FF80
0400
0400
9B00
4500
4500
2500
1A00
ENDCHAR
STARTCHAR 090B
ENCODING 2315
SWIDTH 916 0
DWIDTH 11 0
BBX 10 8 1 0
BITMAP
FFC0
0400
7500
9F00
0D00
1600
6600
0780
ENDCHAR
STARTCHAR 090C
ENCODING 2316
SWIDTH 666 0
DWIDTH 8 0
BBX 8 9 0 -1
BITMAP
FF
04
2E
52
42
42
24
28
0E
ENDCHAR
STARTCHAR 090D
ENCODING 2317
SWIDTH 416 0
DWIDTH 5 0
BBX 6 11 0 -2
BITMAP
88
70
FC
48
48
48
40
20
10
08
08
ENDCHAR
STARTCHAR 090E
ENCODING 2318
SWIDTH 416 0
DWIDTH 5 0
BBX 6 12 0 -2
BITMAP
40
78
08
FC
48
48
48
40
20
10
08
08
ENDCHAR
STARTCHAR 090F
ENCODING 2319
SWIDTH 416 0
DWIDTH 5 0
BBX 6 9 0 -2
BITMAP
FC
48
48
48
40
20
10
08
08
ENDCHAR
STARTCHAR 0910
ENCODING 2320
SWIDTH 416 0
DWIDTH 5 0
BBX 6 12 0 -1
BITMAP
20
10
08
FC
48
48
48
40
20
10
08
08
ENDCHAR
STARTCHAR 0911
ENCODING 2321
SWIDTH 916 0
DWIDTH 11 0
BBX 10 10 1 0
BITMAP
0880
0700
6FC0
9480
1480
7480
8C80
CC80
3C80
0480
ENDCHAR
STARTCHAR 0912
ENCODING 2322
SWIDTH 916 0
DWIDTH 11 0
BBX 10 11 1 0
BITMAP
0400
0780
0080
6FC0
9480
1480
7480
8C80
CC80
3C80
0480
ENDCHAR
STARTCHAR 0913
ENCODING 2323
SWIDTH 916 0
DWIDTH 11 0
BBX 10 11 1 1
BITMAP
0400
0200
0100
6FC0
9480
1480
7480
8C80
CC80
3C80
0480
ENDCHAR
STARTCHAR 0914
ENCODING 2324
SWIDTH 916 0
DWIDTH 11 0
BBX 10 11 1 1
BITMAP
0300
0500
0380
6FC0
9480
1480
7480
8C80
CC80
3C80
0480
ENDCHAR
STARTCHAR 0915
ENCODING 2325
SWIDTH 750 0
DWIDTH 9 0
BBX 9 8 0 0
BITMAP
FF00
0800
6B00
8C80
8880
9880
7900
0800
ENDCHAR
STARTCHAR 0916
ENCODING 2326
SWIDTH 750 0
DWIDTH 9 0
BBX 9 8 1 0
BITMAP
FF80
2100
2D00
E900
CF00
4100
6700
3D00
ENDCHAR
STARTCHAR 0917
ENCODING 2327
SWIDTH 500 0
DWIDTH 6 0
BBX 7 8 0 0
BITMAP
FE
24
64
24
04
04
04
04
ENDCHAR
STARTCHAR 0918
ENCODING 2328
SWIDTH 583 0
DWIDTH 7 0
BBX 7 8 0 0
BITMAP
FE
44
44
34
44
4C
34
04
ENDCHAR
STARTCHAR 0919
ENCODING 2329
SWIDTH 666 0
DWIDTH 8 0
BBX 8 8 0 0
BITMAP
FE
04
3C
23
5E
42
22
1C
ENDCHAR
STARTCHAR 091A
ENCODING 2330
SWIDTH 583 0
DWIDTH 7 0
BBX 7 8 1 0
BITMAP
FE
04
F4
24
4C
4C
34
04
ENDCHAR
STARTCHAR 091B
ENCODING 2331
SWIDTH 666 0
DWIDTH 8 0
BBX 9 8 -1 0
BITMAP
FF80
4200
4200
3500
3500
2700
2200
1C00
ENDCHAR
STARTCHAR 091C
ENCODING 2332
SWIDTH 666 0
DWIDTH 8 0
BBX 9 8 0 0
BITMAP
FF80
0100
5F00
4900
2900
2900
1900
0100
ENDCHAR
STARTCHAR 091D
ENCODING 2333
SWIDTH 666 0
DWIDTH 8 0
BBX 9 10 0 -2
BITMAP
FF80
0900
7900
4100
3F00
0500
0500
6900
1800
0400
ENDCHAR
STARTCHAR 091E
ENCODING 2334
SWIDTH 666 0
DWIDTH 8 0
BBX 8 8 0 0
BITMAP
FF
02
72
12
0E
92
72
02
ENDCHAR
STARTCHAR 091F
ENCODING 2335
SWIDTH 583 0
DWIDTH 7 0
BBX 6 8 0 0
BITMAP
FC
08
38
40
40
40
64
38
ENDCHAR
STARTCHAR 0920
ENCODING 2336
SWIDTH 500 0
DWIDTH 6 0
BBX 7 8 -1 0
BITMAP
FE
04
04
3C
44
42
62
3C
ENDCHAR
STARTCHAR 0921
ENCODING 2337
SWIDTH 583 0
DWIDTH 7 0
BBX 7 8 0 0
BITMAP
FE
04
3C
20
5E
42
22
1C
ENDCHAR
STARTCHAR 0922
ENCODING 2338
SWIDTH 500 0
DWIDTH 6 0
BBX 6 8 0 0
BITMAP
FC
08
38
40
58
54
34
38
ENDCHAR
STARTCHAR 0923
ENCODING 2339
SWIDTH 583 0
DWIDTH 7 0
BBX 8 8 0 0
BITMAP
FF
52
52
52
72
02
02
02
ENDCHAR
STARTCHAR 0924
ENCODING 2340
SWIDTH 583 0
DWIDTH 7 0
BBX 7 8 0 -1
BITMAP
FE
04
7C
44
44
44
24
14
ENDCHAR
STARTCHAR 0925
ENCODING 2341
SWIDTH 666 0
DWIDTH 8 0
BBX 7 8 1 0
BITMAP
EE
94
D4
14
E4
4C
34
04
ENDCHAR
STARTCHAR 0926
ENCODING 2342
SWIDTH 500 0
DWIDTH 6 0
BBX 6 8 0 0
BITMAP
FC
08
08
78
40
48
38
08
ENDCHAR
STARTCHAR 0927
ENCODING 2343
SWIDTH 583 0
DWIDTH 7 0
BBX 7 8 0 0
BITMAP
6E
A4
84
74
44
4C
74
04
ENDCHAR
STARTCHAR 0928
ENCODING 2344
SWIDTH 583 0
DWIDTH 7 0
BBX 7 8 0 0
BITMAP
FE
04
04
7C
24
04
04
04
ENDCHAR
STARTCHAR 0929
ENCODING 2345
SWIDTH 583 0
DWIDTH 7 0
BBX 7 8 0 0
BITMAP
FE
04
04
7C
24
04
04
24
ENDCHAR
STARTCHAR 092A
ENCODING 2346
SWIDTH 500 0
DWIDTH 6 0
BBX 6 8 0 0
BITMAP
FC
48
48
48
48
38
08
08
ENDCHAR
STARTCHAR 092B
ENCODING 2347
SWIDTH 750 0
DWIDTH 9 0
BBX 8 8 0 0
BITMAP
FF
48
4E
4D
49
39
0A
08
ENDCHAR
STARTCHAR 092C
ENCODING 2348
SWIDTH 500 0
DWIDTH 6 0
BBX 6 8 0 0
BITMAP
FC
08
38
68
58
38
08
08
ENDCHAR
STARTCHAR 092D
ENCODING 2349
SWIDTH 583 0
DWIDTH 7 0
BBX 7 8 0 0
BITMAP
EE
A4
24
24
7C
24
04
04
ENDCHAR
STARTCHAR 092E
ENCODING 2350
SWIDTH 500 0
DWIDTH 6 0
BBX 6 8 0 0
BITMAP
FC
48
48
48
F8
48
08
08
ENDCHAR
STARTCHAR 092F
ENCODING 2351
SWIDTH 583 0
DWIDTH 7 0
BBX 7 8 0 0
BITMAP
FE
24
24
E4
4C
7C
04
04
ENDCHAR
STARTCHAR 0930
ENCODING 2352
SWIDTH 416 0
DWIDTH 5 0
BBX 5 8 0 0
BITMAP
F8
10
90
70
40
20
10
10
ENDCHAR
STARTCHAR 0931
ENCODING 2353
SWIDTH 416 0
DWIDTH 5 0
BBX 5 9 0 -1
BITMAP
F8
10
90
70
40
20
10
10
80
ENDCHAR
STARTCHAR 0932
ENCODING 2354
SWIDTH 666 0
DWIDTH 8 0
BBX 8 8 0 -1
BITMAP
FF
02
02
36
4A
4A
62
32
ENDCHAR
STARTCHAR 0933
ENCODING 2355
SWIDTH 666 0
DWIDTH 8 0
BBX 9 7 0 1
BITMAP
FF80
0400
0400
3E00
4900
5900
3E00
ENDCHAR
STARTCHAR 0934
ENCODING 2356
SWIDTH 666 0
DWIDTH 8 0
BBX 9 9 0 -1
BITMAP
FF80
0400
0400
3E00
4900
5900
3E00
0000
0800
ENDCHAR
STARTCHAR 0935
ENCODING 2357
SWIDTH 500 0
DWIDTH 6 0
BBX 6 8 0 0
BITMAP
7C
08
68
88
88
78
08
08
ENDCHAR
STARTCHAR 0936
ENCODING 2358
SWIDTH 666 0
DWIDTH 8 0
BBX 8 8 0 -1
BITMAP
FF
4A
7A
0A
72
62
32
1A
ENDCHAR
STARTCHAR 0937
ENCODING 2359
SWIDTH 500 0
DWIDTH 6 0
BBX 6 8 0 0
BITMAP
FC
68
68
58
48
38
08
08
ENDCHAR
STARTCHAR 0938
ENCODING 2360
SWIDTH 666 0
DWIDTH 8 0
BBX 8 8 0 -1
BITMAP
FF
12
92
7E
42
22
32
12
ENDCHAR
STARTCHAR 0939
ENCODING 2361
SWIDTH 500 0
DWIDTH 6 0
BBX 6 9 0 -1
BITMAP
FC
08
78
40
38
44
4C
60
18
ENDCHAR
STARTCHAR 093A
ENCODING 2362
SWIDTH 0 0
DWIDTH 0 0
BBX 1 2 -1 7
BITMAP
80
80
ENDCHAR
STARTCHAR 093B
ENCODING 2363
SWIDTH 250 0
DWIDTH 3 0
BBX 3 9 0 0
BITMAP
40
E0
40
40
40
40
40
40
40
ENDCHAR
STARTCHAR 093C
ENCODING 2364
SWIDTH 0 0
DWIDTH 0 0
BBX 1 1 -5 -1
BITMAP
80
ENDCHAR
STARTCHAR 093D
ENCODING 2365
SWIDTH 416 0
DWIDTH 5 0
BBX 4 7 1 0
BITMAP
F0
80
40
20
10
90
60
ENDCHAR
STARTCHAR 093E
ENCODING 2366
SWIDTH 250 0
DWIDTH 3 0
BBX 3 8 0 0
BITMAP
E0
40
40
40
40
40
40
40
ENDCHAR
STARTCHAR 093F
ENCODING 2367
SWIDTH 250 0
DWIDTH 3 0
BBX 8 11 0 0
BITMAP
38
46
41
E0
40
40
40
40
40
40
40
ENDCHAR
STARTCHAR 0940
ENCODING 2368
SWIDTH 250 0
DWIDTH 3 0
BBX 6 9 -3 1
BITMAP
70
88
1C
08
08
08
08
08
08
ENDCHAR
STARTCHAR 0941
ENCODING 2369
SWIDTH 0 0
DWIDTH 0 0
BBX 5 3 -5 -3
BITMAP
38
88
78
ENDCHAR
STARTCHAR 0942
ENCODING 2370
SWIDTH 0 0
DWIDTH 0 0
BBX 5 3 -4 -3
BITMAP
F0
88
E0
ENDCHAR
STARTCHAR 0943
ENCODING 2371
SWIDTH 0 0
DWIDTH 0 0
BBX 3 3 -4 -3
BITMAP
E0
80
E0
ENDCHAR
STARTCHAR 0944
ENCODING 2372
SWIDTH 0 0
DWIDTH 0 0
BBX 5 6 -4 -4
BITMAP
E0
80
80
70
40
38
ENDCHAR
STARTCHAR 0945
ENCODING 2373
SWIDTH 0 0
DWIDTH 0 0
BBX 5 2 -4 8
BITMAP
88
70
ENDCHAR
STARTCHAR 0946
ENCODING 2374
SWIDTH 0 0
DWIDTH 0 0
BBX 4 3 -5 7
BITMAP
80
F0
10
ENDCHAR
STARTCHAR 0947
ENCODING 2375
SWIDTH 0 0
DWIDTH 0 0
BBX 3 3 -5 7
BITMAP
80
40
20
ENDCHAR
STARTCHAR 0948
ENCODING 2376
SWIDTH 0 0
DWIDTH 0 0
BBX 4 3 -5 7
BITMAP
20
A0
70
ENDCHAR
STARTCHAR 0949
ENCODING 2377
SWIDTH 250 0
DWIDTH 3 0
BBX 5 10 -1 0
BITMAP
88
70
70
20
20
20
20
20
20
20
ENDCHAR
STARTCHAR 094A
ENCODING 2378
SWIDTH 250 0
DWIDTH 3 0
BBX 5 11 -2 0
BITMAP
80
F0
10
38
10
10
10
10
10
10
10
ENDCHAR
STARTCHAR 094B
ENCODING 2379
SWIDTH 250 0
DWIDTH 3 0
BBX 5 11 -2 1
BITMAP
C0
60
30
38
10
10
10
10
10
10
10
ENDCHAR
STARTCHAR 094C
ENCODING 2380
SWIDTH 250 0
DWIDTH 3 0
BBX 5 11 -2 1
BITMAP
20
A0
70
38
10
10
10
10
10
10
10
ENDCHAR
STARTCHAR 094D
ENCODING 2381
SWIDTH 0 0
DWIDTH 0 0
BBX 2 2 -2 -3
BITMAP
80
40
ENDCHAR
STARTCHAR 094E
ENCODING 2382
SWIDTH 166 0
DWIDTH 2 0
BBX 2 7 0 1
BITMAP
C0
80
80
80
80
80
80
ENDCHAR
STARTCHAR 094F
ENCODING 2383
SWIDTH 250 0
DWIDTH 3 0
BBX 6 10 -3 0
BITMAP
90
F8
1C
08
08
08
08
08
08
08
ENDCHAR
STARTCHAR 0950
ENCODING 2384
SWIDTH 833 0
DWIDTH 10 0
BBX 9 9 1 1
BITMAP
0F00
0600
7000
1300
3480
BC80
8880
4880
3300
ENDCHAR
STARTCHAR 0951
ENCODING 2385
SWIDTH 0 0
DWIDTH 0 0
BBX 1 3 -1 7
BITMAP
80
80
80
ENDCHAR
STARTCHAR 0952
ENCODING 2386
SWIDTH 0 0
DWIDTH 0 0
BBX 7 1 -7 -3
BITMAP
FE
ENDCHAR
STARTCHAR 0953
ENCODING 2387
SWIDTH 0 0
DWIDTH 0 0
BBX 3 2 -6 9
BITMAP
C0
20
ENDCHAR
STARTCHAR 0954
ENCODING 2388
SWIDTH 0 0
DWIDTH 0 0
BBX 3 2 -2 9
BITMAP
60
80
ENDCHAR
STARTCHAR 0955
ENCODING 2389
SWIDTH 0 0
DWIDTH 0 0
BBX 5 4 -4 7
BITMAP
88
70
00
F8
ENDCHAR
STARTCHAR 0956
ENCODING 2390
SWIDTH 0 0
DWIDTH 0 0
BBX 5 2 -5 -2
BITMAP
88
F0
ENDCHAR
STARTCHAR 0957
ENCODING 2391
SWIDTH 0 0
DWIDTH 0 0
BBX 5 4 -5 -4
BITMAP
88
F0
88
F0
ENDCHAR
STARTCHAR 0958
ENCODING 2392
SWIDTH 750 0
DWIDTH 9 0
BBX 9 9 0 -1
BITMAP
FF00
0800
6B00
8C80
8880
9880
7900
0800
4000
ENDCHAR
STARTCHAR 0959
ENCODING 2393
SWIDTH 750 0
DWIDTH 9 0
BBX 9 10 1 -2
BITMAP
FF80
2100
2D00
E900
CF00
4100
6700
3D00
0000
2000
ENDCHAR
STARTCHAR 095A
ENCODING 2394
SWIDTH 500 0
DWIDTH 6 0
BBX 7 8 0 0
BITMAP
FE
24
64
24
04
04
84
04
ENDCHAR
STARTCHAR 095B
ENCODING 2395
SWIDTH 666 0
DWIDTH 8 0
BBX 9 9 0 -1
BITMAP
FF80
0100
5F00
4900
2900
2900
1900
0100
2000
ENDCHAR
STARTCHAR 095C
ENCODING 2396
SWIDTH 583 0
DWIDTH 7 0
BBX 7 10 0 -2
BITMAP
FE
04
3C
20
5E
42
22
1C
00
20
ENDCHAR
STARTCHAR 095D
ENCODING 2397
SWIDTH 500 0
DWIDTH 6 0
BBX 6 10 0 -2
BITMAP
FC
08
38
40
58
54
34
38
00
20
ENDCHAR
STARTCHAR 095E
ENCODING 2398
SWIDTH 750 0
DWIDTH 9 0
BBX 8 8 0 0
BITMAP
FF
48
4E
4D
49
39
0A
48
ENDCHAR
STARTCHAR 095F
ENCODING 2399
SWIDTH 583 0
DWIDTH 7 0
BBX 7 8 0 0
BITMAP
FE
24
24
E4
4C
7C
04
24
ENDCHAR
STARTCHAR 0960
ENCODING 2400
SWIDTH 916 0
DWIDTH 11 0
BBX 11 10 0 -2
BITMAP
FFC0
0400
3480
DD80
0E80
1500
6500
04C0
0100
00E0
ENDCHAR
STARTCHAR 0961
ENCODING 2401
SWIDTH 666 0
DWIDTH 8 0
BBX 7 11 1 -3
BITMAP
FE
08
08
DC
A4
84
98
50
0E
10
0E
ENDCHAR
STARTCHAR 0962
ENCODING 2402
SWIDTH 0 0
DWIDTH 0 0
BBX 5 6 -5 -3
BITMAP
D8
A8
88
90
50
18
ENDCHAR
STARTCHAR 0963
ENCODING 2403
SWIDTH 0 0
DWIDTH 0 0
BBX 6 7 -5 -3
BITMAP
D8
A8
90
50
08
10
1C
ENDCHAR
STARTCHAR 0964
ENCODING 2404
SWIDTH 666 0
DWIDTH 8 0
BBX 1 8 4 -1
BITMAP
80
80
80
80
80
80
80
80
ENDCHAR
STARTCHAR 0965
ENCODING 2405
SWIDTH 666 0
DWIDTH 8 0
BBX 4 8 2 -1
BITMAP
90
90
90
90
90
90
90
90
ENDCHAR
STARTCHAR 0966
ENCODING 2406
SWIDTH 583 0
DWIDTH 7 0
BBX 5 5 1 1
BITMAP
70
88
88
88
70
ENDCHAR
STARTCHAR 0967
ENCODING 2407
SWIDTH 583 0
DWIDTH 7 0
BBX 4 8 1 0
BITMAP
60
90
90
70
10
10
10
10
ENDCHAR
STARTCHAR 0968
ENCODING 2408
SWIDTH 583 0
DWIDTH 7 0
BBX 5 8 1 -1
BITMAP
70
88
08
08
18
E0
20
10
ENDCHAR
STARTCHAR 0969
ENCODING 2409
SWIDTH 583 0
DWIDTH 7 0
BBX 5 10 1 -2
BITMAP
E0
10
10
60
18
08
08
70
20
10
ENDCHAR
STARTCHAR 096A
ENCODING 2410
SWIDTH 583 0
DWIDTH 7 0
BBX 6 7 1 1
BITMAP
84
84
58
30
48
48
30
ENDCHAR
STARTCHAR 096B
ENCODING 2411
SWIDTH 583 0
DWIDTH 7 0
BBX 5 8 1 0
BITMAP
40
80
90
90
70
08
08
08
ENDCHAR
STARTCHAR 096C
ENCODING 2412
SWIDTH 583 0
DWIDTH 7 0
BBX 4 9 1 -2
BITMAP
60
80
80
60
80
90
90
70
10
ENDCHAR
STARTCHAR 096D
ENCODING 2413
SWIDTH 583 0
DWIDTH 7 0
BBX 6 7 0 0
BITMAP
98
94
94
9C
44
4C
38
ENDCHAR
STARTCHAR 096E
ENCODING 2414
SWIDTH 583 0
DWIDTH 7 0
BBX 4 7 2 1
BITMAP
40
40
40
80
80
90
60
ENDCHAR
STARTCHAR 096F
ENCODING 2415
SWIDTH 583 0
DWIDTH 7 0
BBX 4 9 2 -1
BITMAP
60
90
90
60
40
20
20
10
10
ENDCHAR
STARTCHAR 0970
ENCODING 2416
SWIDTH 333 0
DWIDTH 4 0
BBX 3 3 1 2
BITMAP
E0
A0
E0
ENDCHAR
STARTCHAR 0971
ENCODING 2417
SWIDTH 416 0
DWIDTH 5 0
BBX 1 1 2 9
BITMAP
80
ENDCHAR
STARTCHAR 0972
ENCODING 2418
SWIDTH 750 0
DWIDTH 9 0
BBX 8 10 1 0
BITMAP
11
0E
67
92
12
72
8E
CA
3A
02
ENDCHAR
STARTCHAR 0973
ENCODING 2419
SWIDTH 750 0
DWIDTH 9 0
BBX 8 9 1 0
BITMAP
02
67
92
12
72
8E
CA
3A
02
ENDCHAR
STARTCHAR 0974
ENCODING 2420
SWIDTH 916 0
DWIDTH 11 0
BBX 10 9 1 0
BITMAP
0080
6FC0
9480
1480
7480
8C80
CC80
3C80
0480
ENDCHAR
STARTCHAR 0975
ENCODING 2421
SWIDTH 916 0
DWIDTH 11 0
BBX 10 10 1 0
BITMAP
0900
0F80
6FC0
9480
1480
7480
8C80
CC80
3C80
0480
ENDCHAR
STARTCHAR 0976
ENCODING 2422
SWIDTH 750 0
DWIDTH 9 0
BBX 8 10 1 -2
BITMAP
67
92
12
72
8E
CA
3A
02
22
3C
ENDCHAR
STARTCHAR 0977
ENCODING 2423
SWIDTH 750 0
DWIDTH 9 0
BBX 8 12 1 -4
BITMAP
67
92
12
72
8E
CA
3A
02
22
3C
22
3C
ENDCHAR
STARTCHAR 0979
ENCODING 2425
SWIDTH 666 0
DWIDTH 8 0
BBX 9 10 0 -2
BITMAP
FF80
0100
5F00
4900
2900
2900
1900
4900
0000
2000
ENDCHAR
STARTCHAR 097A
ENCODING 2426
SWIDTH 583 0
DWIDTH 7 0
BBX 7 8 0 0
BITMAP
FE
24
24
F4
4C
7C
04
04
ENDCHAR
STARTCHAR 097B
ENCODING 2427
SWIDTH 583 0
DWIDTH 7 0
BBX 7 8 0 0
BITMAP
FE
04
04
7C
24
04
04
7E
ENDCHAR
STARTCHAR 097C
ENCODING 2428
SWIDTH 666 0
DWIDTH 8 0
BBX 9 8 0 0
BITMAP
FF80
0100
5F00
4900
2900
3900
0100
7F80
ENDCHAR
STARTCHAR 097D
ENCODING 2429
SWIDTH 583 0
DWIDTH 7 0
BBX 4 7 2 0
BITMAP
E0
10
10
10
20
40
40
ENDCHAR
STARTCHAR 097E
ENCODING 2430
SWIDTH 583 0
DWIDTH 7 0
BBX 7 9 0 -1
BITMAP
FE
04
3C
20
5E
42
22
1C
FE
ENDCHAR
STARTCHAR 097F
ENCODING 2431
SWIDTH 500 0
DWIDTH 6 0
BBX 6 8 0 0
BITMAP
FC
08
38
68
58
38
08
FC
ENDCHAR
STARTCHAR 0981
ENCODING 2433
SWIDTH 0 0
DWIDTH 0 0
BBX 4 3 -4 7
BITMAP
40
90
60
ENDCHAR
STARTCHAR 0982
ENCODING 2434
SWIDTH 333 0
DWIDTH 4 0
BBX 3 6 0 0
BITMAP
E0
A0
E0
80
40
20
ENDCHAR
STARTCHAR 0983
ENCODING 2435
SWIDTH 250 0
DWIDTH 3 0
BBX 3 5 0 1
BITMAP
E0
E0
00
E0
E0
ENDCHAR
STARTCHAR 0985
ENCODING 2437
SWIDTH 666 0
DWIDTH 8 0
BBX 8 7 0 0
BITMAP
FF
5A
46
26
1A
02
02
ENDCHAR
STARTCHAR 0986
ENCODING 2438
SWIDTH 833 0
DWIDTH 10 0
BBX 10 8 0 0
BITMAP
0080
FFC0
5A80
4680
2680
1A80
0280
0280
ENDCHAR
STARTCHAR 0987
ENCODING 2439
SWIDTH 500 0
DWIDTH 6 0
BBX 6 11 0 0
BITMAP
80
F8
08
7C
30
48
08
70
10
08
04
ENDCHAR
STARTCHAR 0988
ENCODING 2440
SWIDTH 583 0
DWIDTH 7 0
BBX 8 8 -1 1
BITMAP
40
7E
FF
30
0E
2C
34
04
ENDCHAR
STARTCHAR 0989
ENCODING 2441
SWIDTH 500 0
DWIDTH 6 0
BBX 6 8 0 2
BITMAP
C0
78
7C
D0
D8
74
64
38
ENDCHAR
STARTCHAR 098A
ENCODING 2442
SWIDTH 583 0
DWIDTH 7 0
BBX 9 9 -1 2
BITMAP
C000
7E00
0200
3F80
4800
6A00
2D00
3100
1E00
ENDCHAR
STARTCHAR 098B
ENCODING 2443
SWIDTH 583 0
DWIDTH 7 0
BBX 8 8 0 0
BITMAP
0A
BB
DA
2A
4E
3A
0A
0A
ENDCHAR
STARTCHAR 098C
ENCODING 2444
SWIDTH 500 0
DWIDTH 6 0
BBX 6 8 1 0
BITMAP
40
80
60
78
54
1C
38
30
ENDCHAR
STARTCHAR 098F
ENCODING 2447
SWIDTH 583 0
DWIDTH 7 0
BBX 6 7 0 0
BITMAP
1C
24
B4
84
FC
04
04
ENDCHAR
STARTCHAR 0990
ENCODING 2448
SWIDTH 666 0
DWIDTH 8 0
BBX 7 10 0 1
BITMAP
20
20
1C
1E
26
B4
84
FC
04
04
ENDCHAR
STARTCHAR 0993
ENCODING 2451
SWIDTH 500 0
DWIDTH 6 0
BBX 6 6 0 1
BITMAP
1C
A4
A4
48
24
1C
ENDCHAR
STARTCHAR 0994
ENCODING 2452
SWIDTH 583 0
DWIDTH 7 0
BBX 7 9 0 2
BITMAP
20
30
0C
1E
A6
A6
48
24
1C
ENDCHAR
STARTCHAR 0995
ENCODING 2453
SWIDTH 583 0
DWIDTH 7 0
BBX 7 7 1 0
BITMAP
FE
38
D4
D4
3C
10
10
ENDCHAR
STARTCHAR 0996
ENCODING 2454
SWIDTH 500 0
DWIDTH 6 0
BBX 5 8 0 0
BITMAP
08
28
D8
38
48
28
18
08
ENDCHAR
STARTCHAR 0997
ENCODING 2455
SWIDTH 500 0
DWIDTH 6 0
BBX 5 7 1 1
BITMAP
08
E8
F8
A8
28
48
08
ENDCHAR
STARTCHAR 0998
ENCODING 2456
SWIDTH 416 0
DWIDTH 5 0
BBX 7 7 -1 0
BITMAP
FE
44
74
24
14
0C
04
ENDCHAR
STARTCHAR 0999
ENCODING 2457
SWIDTH 500 0
DWIDTH 6 0
BBX 6 7 0 0
BITMAP
58
68
B8
A8
74
44
38
ENDCHAR
STARTCHAR 099A
ENCODING 2458
SWIDTH 416 0
DWIDTH 5 0
BBX 6 7 0 0
BITMAP
FC
40
60
58
48
50
60
ENDCHAR
STARTCHAR 099B
ENCODING 2459
SWIDTH 500 0
DWIDTH 6 0
BBX 7 8 -1 -2
BITMAP
FE
7C
4C
74
0C
38
0C
02
ENDCHAR
STARTCHAR 099C
ENCODING 2460
SWIDTH 583 0
DWIDTH 7 0
BBX 7 7 0 0
BITMAP
7E
10
AE
BC
4C
34
02
ENDCHAR
STARTCHAR 099D
ENCODING 2461
SWIDTH 583 0
DWIDTH 7 0
BBX 6 7 1 1
BITMAP
08
FC
78
D8
98
78
18
ENDCHAR
STARTCHAR 099E
ENCODING 2462
SWIDTH 750 0
DWIDTH 9 0
BBX 9 7 0 0
BITMAP
0C00
1580
A680
B500
FF80
0400
0400
ENDCHAR
STARTCHAR 099F
ENCODING 2463
SWIDTH 416 0
DWIDTH 5 0
BBX 7 9 -1 1
BITMAP
80
80
7C
7E
20
2C
24
2C
38
ENDCHAR
STARTCHAR 09A0
ENCODING 2464
SWIDTH 416 0
DWIDTH 5 0
BBX 7 10 -1 1
BITMAP
20
20
20
FE
10
18
14
64
4C
38
ENDCHAR
STARTCHAR 09A1
ENCODING 2465
SWIDTH 500 0
DWIDTH 6 0
BBX 5 6 1 1
BITMAP
F8
20
A8
B8
48
30
ENDCHAR
STARTCHAR 09A2
ENCODING 2466
SWIDTH 416 0
DWIDTH 5 0
BBX 5 7 0 0
BITMAP
F0
40
58
48
48
50
20
ENDCHAR
STARTCHAR 09A3
ENCODING 2467
SWIDTH 500 0
DWIDTH 6 0
BBX 4 8 1 0
BITMAP
10
70
90
90
50
10
10
10
ENDCHAR
STARTCHAR 09A4
ENCODING 2468
SWIDTH 583 0
DWIDTH 7 0
BBX 7 7 0 0
BITMAP
FE
38
24
44
44
44
38
ENDCHAR
STARTCHAR 09A5
ENCODING 2469
SWIDTH 500 0
DWIDTH 6 0
BBX 6 8 0 0
BITMAP
08
6C
98
98
68
28
18
08
ENDCHAR
STARTCHAR 09A6
ENCODING 2470
SWIDTH 416 0
DWIDTH 5 0
BBX 5 7 0 0
BITMAP
F8
40
58
68
48
08
08
ENDCHAR
STARTCHAR 09A7
ENCODING 2471
SWIDTH 416 0
DWIDTH 5 0
BBX 5 7 1 0
BITMAP
D8
90
70
90
50
30
10
ENDCHAR
STARTCHAR 09A8
ENCODING 2472
SWIDTH 416 0
DWIDTH 5 0
BBX 5 7 1 0
BITMAP
F8
10
70
B0
90
10
10
ENDCHAR
STARTCHAR 09AA
ENCODING 2474
SWIDTH 500 0
DWIDTH 6 0
BBX 5 8 1 0
BITMAP
08
E8
B8
48
48
08
08
08
ENDCHAR
STARTCHAR 09AB
ENCODING 2475
SWIDTH 583 0
DWIDTH 7 0
BBX 6 7 1 0
BITMAP
FC
58
54
54
30
10
10
ENDCHAR
STARTCHAR 09AC
ENCODING 2476
SWIDTH 416 0
DWIDTH 5 0
BBX 5 7 1 0
BITMAP
F8
30
D0
90
70
10
10
ENDCHAR
STARTCHAR 09AD
ENCODING 2477
SWIDTH 583 0
DWIDTH 7 0
BBX 7 6 0 1
BITMAP
FE
B0
A6
7A
22
1C
ENDCHAR
STARTCHAR 09AE
ENCODING 2478
SWIDTH 500 0
DWIDTH 6 0
BBX 6 7 0 0
BITMAP
FC
68
28
58
48
28
08
ENDCHAR
STARTCHAR 09AF
ENCODING 2479
SWIDTH 416 0
DWIDTH 5 0
BBX 5 7 1 0
BITMAP
F8
50
50
90
D0
30
10
ENDCHAR
STARTCHAR 09B0
ENCODING 2480
SWIDTH 416 0
DWIDTH 5 0
BBX 5 7 1 0
BITMAP
F8
30
D0
90
70
90
10
ENDCHAR
STARTCHAR 09B2
ENCODING 2482
SWIDTH 500 0
DWIDTH 6 0
BBX 7 7 0 0
BITMAP
7E
6C
94
84
44
04
04
ENDCHAR
STARTCHAR 09B6
ENCODING 2486
SWIDTH 500 0
DWIDTH 6 0
BBX 6 8 0 0
BITMAP
04
D4
2C
24
54
04
04
04
ENDCHAR
STARTCHAR 09B7
ENCODING 2487
SWIDTH 416 0
DWIDTH 5 0
BBX 5 7 1 0
BITMAP
F8
90
70
90
50
30
10
ENDCHAR
STARTCHAR 09B8
ENCODING 2488
SWIDTH 500 0
DWIDTH 6 0
BBX 7 7 0 0
BITMAP
FE
44
3C
24
64
04
04
ENDCHAR
STARTCHAR 09B9
ENCODING 2489
SWIDTH 500 0
DWIDTH 6 0
BBX 6 8 0 -1
BITMAP
FC
30
48
48
50
30
08
04
ENDCHAR
STARTCHAR 09BC
ENCODING 2492
SWIDTH 0 0
DWIDTH 0 0
BBX 1 1 -4 -1
BITMAP
80
ENDCHAR
STARTCHAR 09BD
ENCODING 2493
SWIDTH 416 0
DWIDTH 5 0
BBX 6 8 0 -1
BITMAP
F0
30
48
48
50
30
08
04
ENDCHAR
STARTCHAR 09BE
ENCODING 2494
SWIDTH 166 0
DWIDTH 2 0
BBX 3 8 -1 0
BITMAP
20
E0
20
20
20
20
20
20
ENDCHAR
STARTCHAR 09BF
ENCODING 2495
SWIDTH 166 0
DWIDTH 2 0
BBX 6 10 0 0
BITMAP
78
C4
80
E0
40
40
40
40
40
40
ENDCHAR
STARTCHAR 09C0
ENCODING 2496
SWIDTH 166 0
DWIDTH 2 0
BBX 8 10 -5 0
BITMAP
F8
F4
12
07
02
02
02
02
02
02
ENDCHAR
STARTCHAR 09C1
ENCODING 2497
SWIDTH 0 0
DWIDTH 0 0
BBX 4 4 -3 -3
BITMAP
20
E0
A0
D0
ENDCHAR
STARTCHAR 09C2
ENCODING 2498
SWIDTH 0 0
DWIDTH 0 0
BBX 5 3 -2 -2
BITMAP
C0
E0
18
ENDCHAR
STARTCHAR 09C3
ENCODING 2499
SWIDTH 0 0
DWIDTH 0 0
BBX 3 3 -4 -3
BITMAP
40
80
60
ENDCHAR
STARTCHAR 09C4
ENCODING 2500
SWIDTH 0 0
DWIDTH 0 0
BBX 4 4 -3 -3
BITMAP
40
40
B0
40
ENDCHAR
STARTCHAR 09C7
ENCODING 2503
SWIDTH 333 0
DWIDTH 4 0
BBX 4 7 -1 0
BITMAP
F0
20
40
40
40
40
30
ENDCHAR
STARTCHAR 09C8
ENCODING 2504
SWIDTH 333 0
DWIDTH 4 0
BBX 6 10 -1 1
BITMAP
80
F8
08
FC
10
60
40
40
60
38
ENDCHAR
STARTCHAR 09CB
ENCODING 2507
SWIDTH 0 0
DWIDTH 0 0
BBX 12 8 -7 0
BITMAP
0010
F070
2010
4010
4010
4010
4010
3010
ENDCHAR
STARTCHAR 09CC
ENCODING 2508
SWIDTH 0 0
DWIDTH 0 0
BBX 11 11 -6 -1
BITMAP
0400
0400
03C0
0040
F0E0
2040
4040
4040
4040
4040
3040
ENDCHAR
STARTCHAR 09CD
ENCODING 2509
SWIDTH 0 0
DWIDTH 0 0
BBX 0 0 -3 -1
BITMAP
ENDCHAR
STARTCHAR 09CE
ENCODING 2510
SWIDTH 333 0
DWIDTH 4 0
BBX 5 7 0 0
BITMAP
70
D0
B0
40
30
08
08
ENDCHAR
STARTCHAR 09D7
ENCODING 2519
SWIDTH 250 0
DWIDTH 3 0
BBX 6 11 -3 -1
BITMAP
80
80
78
08
1C
08
08
08
08
08
08
ENDCHAR
STARTCHAR 09DC
ENCODING 2524
SWIDTH 500 0
DWIDTH 6 0
BBX 5 8 1 -1
BITMAP
F8
20
A8
B8
48
30
00
20
ENDCHAR
STARTCHAR 09DD
ENCODING 2525
SWIDTH 416 0
DWIDTH 5 0
BBX 5 8 0 -1
BITMAP
F0
40
58
48
48
50
20
40
ENDCHAR
STARTCHAR 09DF
ENCODING 2527
SWIDTH 416 0
DWIDTH 5 0
BBX 5 7 1 0
BITMAP
F8
50
50
90
D0
B0
10
ENDCHAR
STARTCHAR 09E0
ENCODING 2528
SWIDTH 583 0
DWIDTH 7 0
BBX 8 11 0 -3
BITMAP
0A
BB
DA
2A
4E
3A
0A
0A
10
10
0C
ENDCHAR
STARTCHAR 09E1
ENCODING 2529
SWIDTH 500 0
DWIDTH 6 0
BBX 7 11 1 -3
BITMAP
40
80
60
78
54
1C
38
28
1E
16
0C
ENDCHAR
STARTCHAR 09E2
ENCODING 2530
SWIDTH 0 0
DWIDTH 0 0
BBX 3 5 -4 -4
BITMAP
80
40
E0
E0
40
ENDCHAR
STARTCHAR 09E3
ENCODING 2531
SWIDTH 0 0
DWIDTH 0 0
BBX 6 6 -4 -4
BITMAP
10
88
5C
FC
E8
40
ENDCHAR
STARTCHAR 09E6
ENCODING 2534
SWIDTH 500 0
DWIDTH 6 0
BBX 4 5 1 1
BITMAP
60
90
90
90
60
ENDCHAR
STARTCHAR 09E7
ENCODING 2535
SWIDTH 416 0
DWIDTH 5 0
BBX 4 7 1 1
BITMAP
80
40
20
10
10
D0
E0
ENDCHAR
STARTCHAR 09E8
ENCODING 2536
SWIDTH 500 0
DWIDTH 6 0
BBX 5 8 1 -1
BITMAP
80
60
10
10
E0
20
10
08
ENDCHAR
STARTCHAR 09E9
ENCODING 2537
SWIDTH 500 0
DWIDTH 6 0
BBX 6 6 0 1
BITMAP
18
A4
A4
44
64
38
ENDCHAR
STARTCHAR 09EA
ENCODING 2538
SWIDTH 500 0
DWIDTH 6 0
BBX 4 8 1 0
BITMAP
60
90
90
60
60
90
90
60
ENDCHAR
STARTCHAR 09EB
ENCODING 2539
SWIDTH 500 0
DWIDTH 6 0
BBX 4 6 1 0
BITMAP
60
90
A0
A0
E0
70
ENDCHAR
STARTCHAR 09EC
ENCODING 2540
SWIDTH 500 0
DWIDTH 6 0
BBX 6 7 0 0
BITMAP
20
20
AC
B4
44
64
38
ENDCHAR
STARTCHAR 09ED
ENCODING 2541
SWIDTH 500 0
DWIDTH 6 0
BBX 5 7 1 0
BITMAP
60
90
90
F0
10
10
18
ENDCHAR
STARTCHAR 09EE
ENCODING 2542
SWIDTH 500 0
DWIDTH 6 0
BBX 5 7 1 0
BITMAP
80
80
F8
A0
A0
A0
C0
ENDCHAR
STARTCHAR 09EF
ENCODING 2543
SWIDTH 500 0
DWIDTH 6 0
BBX 6 7 0 1
BITMAP
80
C0
30
6C
54
5C
10
ENDCHAR
STARTCHAR 09F0
ENCODING 2544
SWIDTH 416 0
DWIDTH 5 0
BBX 5 7 1 0
BITMAP
F8
30
D0
B0
70
10
10
ENDCHAR
STARTCHAR 09F1
ENCODING 2545
SWIDTH 416 0
DWIDTH 5 0
BBX 5 7 1 0
BITMAP
F8
30
D0
90
70
D0
50
ENDCHAR
STARTCHAR 09F2
ENCODING 2546
SWIDTH 416 0
DWIDTH 5 0
BBX 6 7 0 1
BITMAP
C0
20
10
08
08
04
04
ENDCHAR
STARTCHAR 09F3
ENCODING 2547
SWIDTH 416 0
DWIDTH 5 0
BBX 5 6 0 2
BITMAP
40
40
E8
48
48
70
ENDCHAR
STARTCHAR 09F4
ENCODING 2548
SWIDTH 416 0
DWIDTH 5 0
BBX 6 6 0 1
BITMAP
04
08
08
10
30
C0
ENDCHAR
STARTCHAR 09F5
ENCODING 2549
SWIDTH 500 0
DWIDTH 6 0
BBX 7 6 0 0
BITMAP
02
02
64
98
90
20
ENDCHAR
STARTCHAR 09F6
ENCODING 2550
SWIDTH 583 0
DWIDTH 7 0
BBX 7 6 0 0
BITMAP
02
72
54
E4
88
70
ENDCHAR
STARTCHAR 09F7
ENCODING 2551
SWIDTH 166 0
DWIDTH 2 0
BBX 1 6 1 0
BITMAP
80
80
80
80
80
80
ENDCHAR
STARTCHAR 09F8
ENCODING 2552
SWIDTH 333 0
DWIDTH 4 0
BBX 4 8 0 0
BITMAP
C0
C0
40
50
70
50
10
10
ENDCHAR
STARTCHAR 09F9
ENCODING 2553
SWIDTH 250 0
DWIDTH 3 0
BBX 4 4 1 2
BITMAP
60
90
90
60
ENDCHAR
STARTCHAR 09FA
ENCODING 2554
SWIDTH 333 0
DWIDTH 4 0
BBX 6 4 0 5
BITMAP
04
28
90
70
ENDCHAR
STARTCHAR 09FB
ENCODING 2555
SWIDTH 333 0
DWIDTH 4 0
BBX 4 6 1 -3
BITMAP
40
80
80
40
20
10
ENDCHAR
STARTCHAR 0A01
ENCODING 2561
SWIDTH 0 0
DWIDTH 0 0
BBX 5 3 -4 8
BITMAP
40
88
F0
ENDCHAR
STARTCHAR 0A02
ENCODING 2562
SWIDTH 0 0
DWIDTH 0 0
BBX 1 1 -2 9
BITMAP
80
ENDCHAR
STARTCHAR 0A03
ENCODING 2563
SWIDTH 333 0
DWIDTH 4 0
BBX 3 8 1 0
BITMAP
E0
A0
E0
00
E0
A0
A0
E0
ENDCHAR
STARTCHAR 0A05
ENCODING 2565
SWIDTH 833 0
DWIDTH 10 0
BBX 11 8 -1 0
BITMAP
C060
2640
2A40
32C0
2340
6240
0640
0040
ENDCHAR
STARTCHAR 0A06
ENCODING 2566
SWIDTH 1083 0
DWIDTH 13 0
BBX 14 8 -1 0
BITMAP
C07C
2648
2A48
32C8
2340
6240
0640
0040
ENDCHAR
STARTCHAR 0A07
ENCODING 2567
SWIDTH 833 0
DWIDTH 10 0
BBX 10 11 0 0
BITMAP
3800
4400
4000
FFC0
5080
4880
4780
4800
5000
5800
4780
ENDCHAR
STARTCHAR 0A08
ENCODING 2568
SWIDTH 916 0
DWIDTH 11 0
BBX 10 11 0 0
BITMAP
0300
0480
0080
FFC0
4280
2280
1E80
6080
4080
6280
1C80
ENDCHAR
STARTCHAR 0A09
ENCODING 2569
SWIDTH 750 0
DWIDTH 9 0
BBX 9 13 0 -2
BITMAP
3E00
6300
4100
FF80
4200
4200
7C00
4200
2200
2200
1C00
0000
1E00
ENDCHAR
STARTCHAR 0A0A
ENCODING 2570
SWIDTH 750 0
DWIDTH 9 0
BBX 9 14 0 -3
BITMAP
3E00
6300
4100
FF80
4200
4200
7C00
4200
2200
2200
1C00
0000
1C00
3C00
ENDCHAR
STARTCHAR 0A0F
ENCODING 2575
SWIDTH 666 0
DWIDTH 8 0
BBX 8 11 0 0
BITMAP
30
08
00
FF
42
22
1E
20
C0
60
1E
ENDCHAR
STARTCHAR 0A10
ENCODING 2576
SWIDTH 833 0
DWIDTH 10 0
BBX 11 12 -1 0
BITMAP
0600
0100
0680
0380
C160
2640
2A40
32C0
2340
6240
0640
0040
ENDCHAR
STARTCHAR 0A13
ENCODING 2579
SWIDTH 750 0
DWIDTH 9 0
BBX 8 12 0 0
BITMAP
1F
20
40
40
FF
42
44
7C
42
22
22
1C
ENDCHAR
STARTCHAR 0A14
ENCODING 2580
SWIDTH 833 0
DWIDTH 10 0
BBX 11 12 -1 0
BITMAP
0400
0380
0040
0040
C060
2640
2A40
32C0
2340
6240
0640
0040
ENDCHAR
STARTCHAR 0A15
ENCODING 2581
SWIDTH 666 0
DWIDTH 8 0
BBX 8 8 0 0
BITMAP
FF
02
72
8C
84
8C
72
02
ENDCHAR
STARTCHAR 0A16
ENCODING 2582
SWIDTH 666 0
DWIDTH 8 0
BBX 7 8 0 0
BITMAP
C6
44
7C
44
84
84
7C
04
ENDCHAR
STARTCHAR 0A17
ENCODING 2583
SWIDTH 666 0
DWIDTH 8 0
BBX 9 8 -1 0
BITMAP
FF80
0500
0500
3D00
4500
4500
6500
3D00
ENDCHAR
STARTCHAR 0A18
ENCODING 2584
SWIDTH 750 0
DWIDTH 9 0
BBX 9 8 0 0
BITMAP
8180
4900
4900
4900
8900
C900
7700
0100
ENDCHAR
STARTCHAR 0A19
ENCODING 2585
SWIDTH 666 0
DWIDTH 8 0
BBX 8 8 0 0
BITMAP
FF
40
7C
02
32
4C
4C
32
ENDCHAR
STARTCHAR 0A1A
ENCODING 2586
SWIDTH 666 0
DWIDTH 8 0
BBX 8 8 0 0
BITMAP
7F
02
C2
FE
42
42
22
3C
ENDCHAR
STARTCHAR 0A1B
ENCODING 2587
SWIDTH 666 0
DWIDTH 8 0
BBX 8 8 0 0
BITMAP
FF
02
02
7E
40
3E
51
7E
ENDCHAR
STARTCHAR 0A1C
ENCODING 2588
SWIDTH 666 0
DWIDTH 8 0
BBX 8 8 0 0
BITMAP
7F
02
02
C2
FE
42
42
42
ENDCHAR
STARTCHAR 0A1D
ENCODING 2589
SWIDTH 666 0
DWIDTH 8 0
BBX 7 8 0 0
BITMAP
FE
84
4C
38
4C
04
78
20
ENDCHAR
STARTCHAR 0A1E
ENCODING 2590
SWIDTH 666 0
DWIDTH 8 0
BBX 7 8 0 0
BITMAP
FE
24
3C
40
40
3C
10
1C
ENDCHAR
STARTCHAR 0A1F
ENCODING 2591
SWIDTH 666 0
DWIDTH 8 0
BBX 7 8 0 0
BITMAP
FE
04
04
38
40
80
40
3C
ENDCHAR
STARTCHAR 0A20
ENCODING 2592
SWIDTH 666 0
DWIDTH 8 0
BBX 8 8 0 0
BITMAP
FF
10
38
64
42
42
46
3C
ENDCHAR
STARTCHAR 0A21
ENCODING 2593
SWIDTH 666 0
DWIDTH 8 0
BBX 8 8 0 0
BITMAP
FF
02
04
7C
02
7A
46
3C
ENDCHAR
STARTCHAR 0A22
ENCODING 2594
SWIDTH 666 0
DWIDTH 8 0
BBX 8 8 0 0
BITMAP
7F
02
C2
FE
40
4E
32
1E
ENDCHAR
STARTCHAR 0A23
ENCODING 2595
SWIDTH 666 0
DWIDTH 8 0
BBX 7 8 1 0
BITMAP
FE
20
1C
78
48
80
C0
3C
ENDCHAR
STARTCHAR 0A24
ENCODING 2596
SWIDTH 666 0
DWIDTH 8 0
BBX 7 8 1 0
BITMAP
FE
04
0C
F8
04
04
04
38
ENDCHAR
STARTCHAR 0A25
ENCODING 2597
SWIDTH 666 0
DWIDTH 8 0
BBX 7 8 0 0
BITMAP
FE
44
44
7C
84
C4
3C
04
ENDCHAR
STARTCHAR 0A26
ENCODING 2598
SWIDTH 666 0
DWIDTH 8 0
BBX 7 8 1 0
BITMAP
FE
04
44
FC
40
40
60
3C
ENDCHAR
STARTCHAR 0A27
ENCODING 2599
SWIDTH 666 0
DWIDTH 8 0
BBX 7 8 0 0
BITMAP
FE
44
44
44
44
44
3C
04
ENDCHAR
STARTCHAR 0A28
ENCODING 2600
SWIDTH 583 0
DWIDTH 7 0
BBX 8 8 0 0
BITMAP
FF
10
10
3C
46
42
42
24
ENDCHAR
STARTCHAR 0A2A
ENCODING 2602
SWIDTH 666 0
DWIDTH 8 0
BBX 8 8 0 0
BITMAP
C3
22
22
22
42
66
3A
02
ENDCHAR
STARTCHAR 0A2B
ENCODING 2603
SWIDTH 666 0
DWIDTH 8 0
BBX 8 8 0 0
BITMAP
FF
02
3E
40
40
4E
32
1E
ENDCHAR
STARTCHAR 0A2C
ENCODING 2604
SWIDTH 583 0
DWIDTH 7 0
BBX 7 8 0 0
BITMAP
FE
84
44
3C
44
84
7C
04
ENDCHAR
STARTCHAR 0A2D
ENCODING 2605
SWIDTH 583 0
DWIDTH 7 0
BBX 7 8 0 0
BITMAP
FE
04
74
88
9C
64
04
78
ENDCHAR
STARTCHAR 0A2E
ENCODING 2606
SWIDTH 666 0
DWIDTH 8 0
BBX 7 8 1 0
BITMAP
C6
44
44
44
7C
44
84
04
ENDCHAR
STARTCHAR 0A2F
ENCODING 2607
SWIDTH 750 0
DWIDTH 9 0
BBX 9 8 0 0
BITMAP
FF80
4100
4100
4100
4F00
8900
7900
0100
ENDCHAR
STARTCHAR 0A30
ENCODING 2608
SWIDTH 583 0
DWIDTH 7 0
BBX 7 8 0 0
BITMAP
FE
04
04
7C
44
44
24
1C
ENDCHAR
STARTCHAR 0A32
ENCODING 2610
SWIDTH 666 0
DWIDTH 8 0
BBX 10 8 -1 0
BITMAP
FFC0
1200
1200
2D00
4C80
4080
4080
2100
ENDCHAR
STARTCHAR 0A33
ENCODING 2611
SWIDTH 750 0
DWIDTH 9 0
BBX 9 8 0 0
BITMAP
FF80
2400
1400
3A00
4900
4900
4100
A200
ENDCHAR
STARTCHAR 0A35
ENCODING 2613
SWIDTH 666 0
DWIDTH 8 0
BBX 8 8 -1 0
BITMAP
FF
02
3E
40
40
3C
10
0E
ENDCHAR
STARTCHAR 0A36
ENCODING 2614
SWIDTH 666 0
DWIDTH 8 0
BBX 7 8 1 0
BITMAP
FE
44
44
44
7C
44
C4
24
ENDCHAR
STARTCHAR 0A38
ENCODING 2616
SWIDTH 666 0
DWIDTH 8 0
BBX 7 8 1 0
BITMAP
FE
44
44
44
7C
44
84
04
ENDCHAR
STARTCHAR 0A39
ENCODING 2617
SWIDTH 583 0
DWIDTH 7 0
BBX 7 8 0 0
BITMAP
FE
04
04
64
44
44
24
18
ENDCHAR
STARTCHAR 0A3C
ENCODING 2620
SWIDTH 0 0
DWIDTH 0 0
BBX 1 1 -2 -2
BITMAP
80
ENDCHAR
STARTCHAR 0A3E
ENCODING 2622
SWIDTH 250 0
DWIDTH 3 0
BBX 3 4 0 4
BITMAP
E0
40
40
40
ENDCHAR
STARTCHAR 0A3F
ENCODING 2623
SWIDTH 333 0
DWIDTH 4 0
BBX 6 11 0 0
BITMAP
38
44
40
E0
40
40
40
40
40
40
40
ENDCHAR
STARTCHAR 0A40
ENCODING 2624
SWIDTH 333 0
DWIDTH 4 0
BBX 6 11 -3 0
BITMAP
70
88
08
1C
08
08
08
08
08
08
08
ENDCHAR
STARTCHAR 0A41
ENCODING 2625
SWIDTH 0 0
DWIDTH 0 0
BBX 4 1 -6 -1
BITMAP
F0
ENDCHAR
STARTCHAR 0A42
ENCODING 2626
SWIDTH 0 0
DWIDTH 0 0
BBX 4 2 -6 -2
BITMAP
F0
F0
ENDCHAR
STARTCHAR 0A47
ENCODING 2631
SWIDTH 0 0
DWIDTH 0 0
BBX 3 2 -6 8
BITMAP
C0
20
ENDCHAR
STARTCHAR 0A48
ENCODING 2632
SWIDTH 0 0
DWIDTH 0 0
BBX 5 5 -7 0
BITMAP
60
10
E8
38
20
ENDCHAR
STARTCHAR 0A4B
ENCODING 2635
SWIDTH 0 0
DWIDTH 0 0
BBX 4 2 -6 9
BITMAP
80
F0
ENDCHAR
STARTCHAR 0A4C
ENCODING 2636
SWIDTH 0 0
DWIDTH 0 0
BBX 4 2 -5 9
BITMAP
F0
50
ENDCHAR
STARTCHAR 0A4D
ENCODING 2637
SWIDTH 0 0
DWIDTH 0 0
BBX 3 3 -4 -4
BITMAP
80
40
20
ENDCHAR
STARTCHAR 0A51
ENCODING 2641
SWIDTH 0 0
DWIDTH 0 0
BBX 3 3 -4 -2
BITMAP
80
40
20
ENDCHAR
STARTCHAR 0A59
ENCODING 2649
SWIDTH 666 0
DWIDTH 8 0
BBX 7 8 0 0
BITMAP
C6
44
7C
44
84
7C
04
84
ENDCHAR
STARTCHAR 0A5A
ENCODING 2650
SWIDTH 750 0
DWIDTH 9 0
BBX 9 8 0 0
BITMAP
FF80
0500
0500
3D00
4500
4500
6500
BD00
ENDCHAR
STARTCHAR 0A5B
ENCODING 2651
SWIDTH 666 0
DWIDTH 8 0
BBX 8 8 0 0
BITMAP
7F
02
02
C2
FE
42
42
52
ENDCHAR
STARTCHAR 0A5C
ENCODING 2652
SWIDTH 666 0
DWIDTH 8 0
BBX 8 8 0 0
BITMAP
FF
02
06
7C
02
02
7C
04
ENDCHAR
STARTCHAR 0A5E
ENCODING 2654
SWIDTH 666 0
DWIDTH 8 0
BBX 7 8 1 0
BITMAP
FE
04
7C
80
80
9C
64
BC
ENDCHAR
STARTCHAR 0A66
ENCODING 2662
SWIDTH 666 0
DWIDTH 8 0
BBX 8 8 0 0
BITMAP
3C
42
81
81
81
81
42
3C
ENDCHAR
STARTCHAR 0A67
ENCODING 2663
SWIDTH 583 0
DWIDTH 7 0
BBX 6 8 0 0
BITMAP
78
84
84
7C
04
04
04
04
ENDCHAR
STARTCHAR 0A68
ENCODING 2664
SWIDTH 583 0
DWIDTH 7 0
BBX 7 8 0 -1
BITMAP
F8
06
02
02
02
04
F8
10
ENDCHAR
STARTCHAR 0A69
ENCODING 2665
SWIDTH 583 0
DWIDTH 7 0
BBX 7 8 0 0
BITMAP
7C
02
02
7C
02
C6
38
04
ENDCHAR
STARTCHAR 0A6A
ENCODING 2666
SWIDTH 583 0
DWIDTH 7 0
BBX 6 8 0 0
BITMAP
48
84
84
C4
78
84
84
78
ENDCHAR
STARTCHAR 0A6B
ENCODING 2667
SWIDTH 583 0
DWIDTH 7 0
BBX 6 8 0 0
BITMAP
C4
44
44
44
84
CC
74
04
ENDCHAR
STARTCHAR 0A6C
ENCODING 2668
SWIDTH 500 0
DWIDTH 6 0
BBX 6 10 0 0
BITMAP
1C
10
78
88
80
80
78
80
80
78
ENDCHAR
STARTCHAR 0A6D
ENCODING 2669
SWIDTH 666 0
DWIDTH 8 0
BBX 6 8 1 0
BITMAP
38
4C
04
04
04
08
30
C0
ENDCHAR
STARTCHAR 0A6E
ENCODING 2670
SWIDTH 666 0
DWIDTH 8 0
BBX 7 8 0 0
BITMAP
40
FE
40
40
40
20
30
0E
ENDCHAR
STARTCHAR 0A6F
ENCODING 2671
SWIDTH 666 0
DWIDTH 8 0
BBX 7 10 0 0
BITMAP
06
04
44
FE
40
40
40
20
30
0E
ENDCHAR
STARTCHAR 0A70
ENCODING 2672
SWIDTH 0 0
DWIDTH 0 0
BBX 4 4 -4 8
BITMAP
60
90
90
90
ENDCHAR
STARTCHAR 0A71
ENCODING 2673
SWIDTH 0 0
DWIDTH 0 0
BBX 4 2 -4 9
BITMAP
90
60
ENDCHAR
STARTCHAR 0A72
ENCODING 2674
SWIDTH 666 0
DWIDTH 8 0
BBX 8 8 0 0
BITMAP
FF
42
22
1E
20
C0
60
1E
ENDCHAR
STARTCHAR 0A73
ENCODING 2675
SWIDTH 750 0
DWIDTH 9 0
BBX 9 11 0 0
BITMAP
3E00
6300
4100
FF80
4200
4200
7C00
4200
2200
2200
1C00
ENDCHAR
STARTCHAR 0A74
ENCODING 2676
SWIDTH 1250 0
DWIDTH 15 0
BBX 19 12 0 0
BITMAP
000380
00F440
030820
720000
8FFC00
8A0800
8A1800
7BF000
0A1000
090800
098800
00F000
ENDCHAR
STARTCHAR 0A75
ENCODING 2677
SWIDTH 0 0
DWIDTH 0 0
BBX 3 3 -3 -3
BITMAP
80
A0
C0
ENDCHAR
STARTCHAR 0D02
ENCODING 3330
SWIDTH 416 0
DWIDTH 5 0
BBX 4 4 1 0
BITMAP
60
90
90
60
ENDCHAR
STARTCHAR 0D03
ENCODING 3331
SWIDTH 250 0
DWIDTH 3 0
BBX 3 7 1 0
BITMAP
E0
A0
E0
00
E0
A0
E0
ENDCHAR
STARTCHAR 0D05
ENCODING 3333
SWIDTH 1333 0
DWIDTH 16 0
BBX 15 7 1 -1
BITMAP
3FBC
4EE4
924E
9452
9252
D252
4C4C
ENDCHAR
STARTCHAR 0D06
ENCODING 3334
SWIDTH 1500 0
DWIDTH 18 0
BBX 17 10 1 -3
BITMAP
3FB800
4EE400
924F00
945380
925280
D25280
6C4C80
000080
000900
000E00
ENDCHAR
STARTCHAR 0D07
ENCODING 3335
SWIDTH 1000 0
DWIDTH 12 0
BBX 11 10 1 -3
BITMAP
7B80
CC40
E420
9420
9420
6040
7F80
8000
8000
7FE0
ENDCHAR
STARTCHAR 0D08
ENCODING 3336
SWIDTH 1750 0
DWIDTH 21 0
BBX 20 10 1 -2
BITMAP
7B86E0
CC4930
E42910
942810
942010
604220
7F81E0
800000
800000
7FE000
ENDCHAR
STARTCHAR 0D09
ENCODING 3337
SWIDTH 750 0
DWIDTH 9 0
BBX 8 10 1 -3
BITMAP
3C
42
E1
91
91
63
7E
80
80
7F
ENDCHAR
STARTCHAR 0D0A
ENCODING 3338
SWIDTH 1500 0
DWIDTH 18 0
BBX 17 10 1 -2
BITMAP
3C3700
424980
E14880
914080
910080
631100
7E0F00
800000
800000
7F0000
ENDCHAR
STARTCHAR 0D0B
ENCODING 3339
SWIDTH 833 0
DWIDTH 10 0
BBX 9 10 1 -3
BITMAP
6300
9480
9480
E380
C180
7F00
C180
8080
C180
7E00
ENDCHAR
STARTCHAR 0D0C
ENCODING 3340
SWIDTH 1083 0
DWIDTH 13 0
BBX 12 7 1 0
BITMAP
3BC0
4620
8410
F4F0
8D10
8D10
74E0
ENDCHAR
STARTCHAR 0D0E
ENCODING 3342
SWIDTH 1166 0
DWIDTH 14 0
BBX 13 10 1 -4
BITMAP
00E0
0110
7248
8A48
8A48
8A48
5FC8
0248
0250
0190
ENDCHAR
STARTCHAR 0D0F
ENCODING 3343
SWIDTH 1250 0
DWIDTH 15 0
BBX 14 10 1 -3
BITMAP
00F0
010C
7344
DA44
8A4C
8A58
5FC4
0244
0244
0198
ENDCHAR
STARTCHAR 0D10
ENCODING 3344
SWIDTH 1916 0
DWIDTH 23 0
BBX 21 10 1 -4
BITMAP
3C00E0
420110
817248
F18A48
898A48
8B8A48
725FC8
000248
000250
000190
ENDCHAR
STARTCHAR 0D12
ENCODING 3346
SWIDTH 750 0
DWIDTH 9 0
BBX 8 7 1 0
BITMAP
3E
41
81
E3
91
91
62
ENDCHAR
STARTCHAR 0D13
ENCODING 3347
SWIDTH 1166 0
DWIDTH 14 0
BBX 13 7 1 0
BITMAP
3E70
4188
8108
E308
9108
9198
6270
ENDCHAR
STARTCHAR 0D14
ENCODING 3348
SWIDTH 1500 0
DWIDTH 18 0
BBX 17 7 1 1
BITMAP
3E3700
414980
814880
E34080
910080
911100
620F00
ENDCHAR
STARTCHAR 0D15
ENCODING 3349
SWIDTH 916 0
DWIDTH 11 0
BBX 10 7 1 0
BITMAP
0E00
1100
1100
7FC0
9140
9140
6EC0
ENDCHAR
STARTCHAR 0D16
ENCODING 3350
SWIDTH 916 0
DWIDTH 11 0
BBX 10 7 1 0
BITMAP
3800
4440
8240
E240
9240
9240
67C0
ENDCHAR
STARTCHAR 0D17
ENCODING 3351
SWIDTH 916 0
DWIDTH 11 0
BBX 10 7 1 0
BITMAP
6380
C4C0
8440
8440
8440
44C0
7880
ENDCHAR
STARTCHAR 0D18
ENCODING 3352
SWIDTH 1333 0
DWIDTH 16 0
BBX 15 7 1 0
BITMAP
71E0
8B32
8A12
8A12
5FF2
0202
03FE
ENDCHAR
STARTCHAR 0D19
ENCODING 3353
SWIDTH 1000 0
DWIDTH 12 0
BBX 11 7 1 0
BITMAP
3BC0
4420
8420
E4C0
9420
9420
65C0
ENDCHAR
STARTCHAR 0D1A
ENCODING 3354
SWIDTH 833 0
DWIDTH 10 0
BBX 9 6 1 0
BITMAP
0080
0080
1880
2480
0480
FF80
ENDCHAR
STARTCHAR 0D1B
ENCODING 3355
SWIDTH 1250 0
DWIDTH 15 0
BBX 14 7 1 0
BITMAP
0078
0098
1924
2524
2524
0524
FF98
ENDCHAR
STARTCHAR 0D1C
ENCODING 3356
SWIDTH 833 0
DWIDTH 10 0
BBX 9 7 1 0
BITMAP
7700
E880
A880
E980
7F80
8480
FB80
ENDCHAR
STARTCHAR 0D1D
ENCODING 3357
SWIDTH 1500 0
DWIDTH 18 0
BBX 18 7 1 -1
BITMAP
3F8080
4CC4C0
924440
924440
924440
D264C0
4C3B80
ENDCHAR
STARTCHAR 0D1E
ENCODING 3358
SWIDTH 1333 0
DWIDTH 16 0
BBX 15 7 1 -1
BITMAP
3BF8
4664
8492
E492
9492
9492
6464
ENDCHAR
STARTCHAR 0D1F
ENCODING 3359
SWIDTH 583 0
DWIDTH 7 0
BBX 6 7 1 0
BITMAP
78
84
80
78
04
84
78
ENDCHAR
STARTCHAR 0D20
ENCODING 3360
SWIDTH 666 0
DWIDTH 8 0
BBX 7 7 1 0
BITMAP
38
44
82
82
82
44
38
ENDCHAR
STARTCHAR 0D21
ENCODING 3361
SWIDTH 1250 0
DWIDTH 15 0
BBX 15 7 1 -1
BITMAP
7844
4C46
8442
8442
8442
C464
63BC
ENDCHAR
STARTCHAR 0D22
ENCODING 3362
SWIDTH 1333 0
DWIDTH 16 0
BBX 15 7 1 0
BITMAP
708C
C892
8892
888E
8882
4CC4
4778
ENDCHAR
STARTCHAR 0D23
ENCODING 3363
SWIDTH 1333 0
DWIDTH 16 0
BBX 15 7 1 0
BITMAP
3BDC
4424
8422
E422
9422
9422
6424
ENDCHAR
STARTCHAR 0D24
ENCODING 3364
SWIDTH 916 0
DWIDTH 11 0
BBX 11 7 1 -1
BITMAP
3F80
4E40
9B20
9120
9120
D160
4E40
ENDCHAR
STARTCHAR 0D25
ENCODING 3365
SWIDTH 833 0
DWIDTH 10 0
BBX 9 7 1 0
BITMAP
0F00
9980
9080
9080
9080
9080
FF80
ENDCHAR
STARTCHAR 0D26
ENCODING 3366
SWIDTH 583 0
DWIDTH 7 0
BBX 6 7 1 0
BITMAP
38
44
84
98
84
84
58
ENDCHAR
STARTCHAR 0D27
ENCODING 3367
SWIDTH 916 0
DWIDTH 11 0
BBX 10 7 1 0
BITMAP
6480
44C0
8440
8440
8440
44C0
3B80
ENDCHAR
STARTCHAR 0D28
ENCODING 3368
SWIDTH 916 0
DWIDTH 11 0
BBX 10 7 1 -1
BITMAP
3B80
44C0
8440
8440
8440
C440
6480
ENDCHAR
STARTCHAR 0D29
ENCODING 3369
SWIDTH 916 0
DWIDTH 11 0
BBX 10 7 1 0
BITMAP
3B80
4480
8440
E440
9440
9440
6480
ENDCHAR
STARTCHAR 0D2A
ENCODING 3370
SWIDTH 833 0
DWIDTH 10 0
BBX 9 6 1 -1
BITMAP
0080
0080
7080
8880
8880
4F80
ENDCHAR
STARTCHAR 0D2B
ENCODING 3371
SWIDTH 1166 0
DWIDTH 14 0
BBX 13 7 1 -1
BITMAP
00F0
0198
7108
8908
8908
8908
5FF8
ENDCHAR
STARTCHAR 0D2C
ENCODING 3372
SWIDTH 1166 0
DWIDTH 14 0
BBX 13 7 1 0
BITMAP
3B80
4448
8428
E428
9428
9428
6478
ENDCHAR
STARTCHAR 0D2D
ENCODING 3373
SWIDTH 666 0
DWIDTH 8 0
BBX 7 7 1 -1
BITMAP
3C
42
BE
A0
BE
82
BE
ENDCHAR
STARTCHAR 0D2E
ENCODING 3374
SWIDTH 666 0
DWIDTH 8 0
BBX 7 7 1 0
BITMAP
78
94
92
92
A2
E2
FE
ENDCHAR
STARTCHAR 0D2F
ENCODING 3375
SWIDTH 1000 0
DWIDTH 12 0
BBX 11 7 1 0
BITMAP
6F00
99A0
90A0
90A0
91A0
4F40
3F80
ENDCHAR
STARTCHAR 0D30
ENCODING 3376
SWIDTH 750 0
DWIDTH 9 0
BBX 8 7 1 0
BITMAP
3C
42
8F
91
91
91
4E
ENDCHAR
STARTCHAR 0D31
ENCODING 3377
SWIDTH 666 0
DWIDTH 8 0
BBX 7 7 1 0
BITMAP
38
44
82
82
82
C6
6C
ENDCHAR
STARTCHAR 0D32
ENCODING 3378
SWIDTH 833 0
DWIDTH 10 0
BBX 9 7 1 0
BITMAP
7800
CC80
8480
8480
FC80
8080
FF80
ENDCHAR
STARTCHAR 0D33
ENCODING 3379
SWIDTH 750 0
DWIDTH 9 0
BBX 8 10 1 -3
BITMAP
3E
C1
E1
96
91
61
7E
80
80
7F
ENDCHAR
STARTCHAR 0D34
ENCODING 3380
SWIDTH 666 0
DWIDTH 8 0
BBX 7 7 1 0
BITMAP
5C
A2
A2
B6
78
08
70
ENDCHAR
STARTCHAR 0D35
ENCODING 3381
SWIDTH 916 0
DWIDTH 11 0
BBX 10 7 1 0
BITMAP
3800
4440
8240
8240
8240
C440
67C0
ENDCHAR
STARTCHAR 0D36
ENCODING 3382
SWIDTH 1000 0
DWIDTH 12 0
BBX 11 7 1 0
BITMAP
4780
CC40
89E0
8A20
8A20
CA20
71C0
ENDCHAR
STARTCHAR 0D37
ENCODING 3383
SWIDTH 1083 0
DWIDTH 13 0
BBX 12 7 1 -1
BITMAP
0300
0490
7490
DEB0
89D0
8890
5FF0
ENDCHAR
STARTCHAR 0D38
ENCODING 3384
SWIDTH 1250 0
DWIDTH 15 0
BBX 15 7 1 -1
BITMAP
7B8C
4444
8442
8442
8442
C466
443C
ENDCHAR
STARTCHAR 0D39
ENCODING 3385
SWIDTH 1166 0
DWIDTH 14 0
BBX 13 7 1 -1
BITMAP
00E0
0110
7208
8A08
8A08
8B18
5F10
ENDCHAR
STARTCHAR 0D3A
ENCODING 3386
SWIDTH 833 0
DWIDTH 10 0
BBX 8 8 1 -2
BITMAP
80
80
80
80
80
FF
08
08
ENDCHAR
STARTCHAR 0D3D
ENCODING 3389
SWIDTH 666 0
DWIDTH 8 0
BBX 8 13 1 -4
BITMAP
06
09
08
08
08
08
3C
10
10
10
10
90
60
ENDCHAR
STARTCHAR 0D3E
ENCODING 3390
SWIDTH 500 0
DWIDTH 6 0
BBX 5 7 1 0
BITMAP
70
88
08
08
08
98
70
ENDCHAR
STARTCHAR 0D3F
ENCODING 3391
SWIDTH 250 0
DWIDTH 3 0
BBX 3 10 -1 0
BITMAP
E0
A0
A0
20
20
20
20
20
20
20
ENDCHAR
STARTCHAR 0D40
ENCODING 3392
SWIDTH 250 0
DWIDTH 3 0
BBX 4 10 -2 0
BITMAP
70
B0
F0
10
10
10
10
10
10
10
ENDCHAR
STARTCHAR 0D41
ENCODING 3393
SWIDTH 333 0
DWIDTH 4 0
BBX 4 11 1 -4
BITMAP
80
40
20
20
20
20
20
60
90
90
60
ENDCHAR
STARTCHAR 0D42
ENCODING 3394
SWIDTH 333 0
DWIDTH 4 0
BBX 4 11 1 -4
BITMAP
C0
60
20
20
20
20
20
F0
F0
90
60
ENDCHAR
STARTCHAR 0D43
ENCODING 3395
SWIDTH 416 0
DWIDTH 5 0
BBX 5 10 1 -3
BITMAP
40
40
40
40
20
30
D8
A8
A8
70
ENDCHAR
STARTCHAR 0D44
ENCODING 3396
SWIDTH 416 0
DWIDTH 5 0
BBX 5 11 1 -3
BITMAP
20
20
20
20
10
10
08
78
F8
D8
70
ENDCHAR
STARTCHAR 0D46
ENCODING 3398
SWIDTH 750 0
DWIDTH 9 0
BBX 8 7 1 0
BITMAP
3C
42
81
F1
89
8B
72
ENDCHAR
STARTCHAR 0D47
ENCODING 3399
SWIDTH 500 0
DWIDTH 6 0
BBX 6 7 1 0
BITMAP
38
54
9C
80
9C
54
38
ENDCHAR
STARTCHAR 0D48
ENCODING 3400
SWIDTH 1416 0
DWIDTH 17 0
BBX 16 7 1 0
BITMAP
3C3C
4242
8181
F1F1
8989
8B8B
7272
ENDCHAR
STARTCHAR 0D4A
ENCODING 3402
SWIDTH 0 0
DWIDTH 0 0
BBX 15 7 -9 0
BITMAP
3C1C
4222
8102
F102
8902
8B26
721C
ENDCHAR
STARTCHAR 0D4B
ENCODING 3403
SWIDTH 0 0
DWIDTH 0 0
BBX 13 7 -7 0
BITMAP
3870
5488
9C08
8008
9C08
5498
3870
ENDCHAR
STARTCHAR 0D4C
ENCODING 3404
SWIDTH 0 0
DWIDTH 0 0
BBX 18 7 -9 1
BITMAP
3C1B80
4224C0
812440
F12040
890040
8B0880
720780
ENDCHAR
STARTCHAR 0D4D
ENCODING 3405
SWIDTH 0 0
DWIDTH 0 0
BBX 4 2 -1 8
BITMAP
90
60
ENDCHAR
STARTCHAR 0D4E
ENCODING 3406
SWIDTH 250 0
DWIDTH 3 0
BBX 1 1 1 8
BITMAP
80
ENDCHAR
STARTCHAR 0D57
ENCODING 3415
SWIDTH 750 0
DWIDTH 9 0
BBX 8 7 1 1
BITMAP
6E
93
91
81
01
22
1E
ENDCHAR
STARTCHAR 0D60
ENCODING 3424
SWIDTH 833 0
DWIDTH 10 0
BBX 9 10 1 -3
BITMAP
7300
9480
9480
F380
4180
3F00
DC80
9A80
C180
3E00
ENDCHAR
STARTCHAR 0D61
ENCODING 3425
SWIDTH 1250 0
DWIDTH 15 0
BBX 14 10 1 -3
BITMAP
3BC0
4620
84F8
F59C
8D14
8D14
74E4
0004
0008
00F0
ENDCHAR
STARTCHAR 0D62
ENCODING 3426
SWIDTH 0 0
DWIDTH 0 0
BBX 8 5 -8 -5
BITMAP
76
8B
ED
AD
E7
ENDCHAR
STARTCHAR 0D63
ENCODING 3427
SWIDTH 0 0
DWIDTH 0 0
BBX 9 7 -9 -4
BITMAP
7600
8B00
ED80
AD80
EF80
0080
0300
ENDCHAR
STARTCHAR 0D66
ENCODING 3430
SWIDTH 666 0
DWIDTH 8 0
BBX 8 7 1 0
BITMAP
7F
C8
84
84
84
48
78
ENDCHAR
STARTCHAR 0D67
ENCODING 3431
SWIDTH 666 0
DWIDTH 8 0
BBX 8 9 0 -2
BITMAP
0E
1B
11
11
11
11
7F
80
78
ENDCHAR
STARTCHAR 0D68
ENCODING 3432
SWIDTH 750 0
DWIDTH 9 0
BBX 8 7 1 0
BITMAP
38
44
82
82
82
C4
67
ENDCHAR
STARTCHAR 0D69
ENCODING 3433
SWIDTH 1000 0
DWIDTH 12 0
BBX 11 7 1 0
BITMAP
7780
CC80
8840
8840
8840
C880
48E0
ENDCHAR
STARTCHAR 0D6A
ENCODING 3434
SWIDTH 666 0
DWIDTH 8 0
BBX 7 9 1 0
BITMAP
10
10
38
54
92
92
92
92
4C
ENDCHAR
STARTCHAR 0D6B
ENCODING 3435
SWIDTH 916 0
DWIDTH 11 0
BBX 10 12 1 -3
BITMAP
1E00
2180
4E80
9140
A140
A140
A640
A140
9180
4100
6200
1C00
ENDCHAR
STARTCHAR 0D6C
ENCODING 3436
SWIDTH 1250 0
DWIDTH 15 0
BBX 14 10 1 -3
BITMAP
7770
4888
8884
8884
8884
8884
488C
0008
0010
00E0
ENDCHAR
STARTCHAR 0D6D
ENCODING 3437
SWIDTH 666 0
DWIDTH 8 0
BBX 7 10 1 -3
BITMAP
38
44
82
E2
92
92
62
04
0C
70
ENDCHAR
STARTCHAR 0D6E
ENCODING 3438
SWIDTH 833 0
DWIDTH 10 0
BBX 9 10 1 -3
BITMAP
3880
4480
8280
8280
8280
C480
6780
0080
0180
0F00
ENDCHAR
STARTCHAR 0D6F
ENCODING 3439
SWIDTH 916 0
DWIDTH 11 0
BBX 10 10 1 0
BITMAP
0100
0100
0100
7780
C940
8940
8940
8940
C940
4880
ENDCHAR
STARTCHAR 0D70
ENCODING 3440
SWIDTH 1250 0
DWIDTH 15 0
BBX 14 10 1 -2
BITMAP
0898
088C
0884
0884
0884
08C8
0F78
0800
1000
E000
ENDCHAR
STARTCHAR 0D71
ENCODING 3441
SWIDTH 916 0
DWIDTH 11 0
BBX 10 10 1 -3
BITMAP
7700
4880
8840
8840
8840
8840
4840
0080
0100
0E00
ENDCHAR
STARTCHAR 0D72
ENCODING 3442
SWIDTH 1333 0
DWIDTH 16 0
BBX 15 8 1 -1
BITMAP
000C
3B92
4C92
8452
85FC
8640
C640
6580
ENDCHAR
STARTCHAR 0D73
ENCODING 3443
SWIDTH 833 0
DWIDTH 10 0
BBX 10 5 1 2
BITMAP
7FC0
8000
E000
A000
6000
ENDCHAR
STARTCHAR 0D74
ENCODING 3444
SWIDTH 916 0
DWIDTH 11 0
BBX 10 10 1 0
BITMAP
0700
0480
0080
3F80
6380
82C0
E440
9440
9440
6380
ENDCHAR
STARTCHAR 0D75
ENCODING 3445
SWIDTH 1083 0
DWIDTH 13 0
BBX 12 10 1 0
BITMAP
01C0
0120
0020
3BE0
44E0
84B0
E510
9510
9510
64E0
ENDCHAR
STARTCHAR 0D79
ENCODING 3449
SWIDTH 1166 0
DWIDTH 14 0
BBX 13 7 1 -1
BITMAP
3B80
4C80
8440
85F8
8640
C640
6580
ENDCHAR
STARTCHAR 0D7A
ENCODING 3450
SWIDTH 1416 0
DWIDTH 17 0
BBX 16 10 1 0
BITMAP
000C
0012
0002
3BDE
446E
842B
E431
9431
9431
642E
ENDCHAR
STARTCHAR 0D7B
ENCODING 3451
SWIDTH 1000 0
DWIDTH 12 0
BBX 11 9 1 -1
BITMAP
01C0
0040
3BC0
45C0
8720
8620
8620
4620
65C0
ENDCHAR
STARTCHAR 0D7C
ENCODING 3452
SWIDTH 666 0
DWIDTH 8 0
BBX 7 9 1 0
BITMAP
1C
04
3C
4C
92
92
92
92
4C
ENDCHAR
STARTCHAR 0D7D
ENCODING 3453
SWIDTH 1083 0
DWIDTH 13 0
BBX 12 9 1 -1
BITMAP
00E0
0020
3FE0
4E60
9B90
9190
9190
9190
4E60
ENDCHAR
STARTCHAR 0D7E
ENCODING 3454
SWIDTH 1000 0
DWIDTH 12 0
BBX 11 9 1 -1
BITMAP
01C0
0040
43C0
CCC0
8920
8920
8920
8920
70C0
ENDCHAR
STARTCHAR 0D7F
ENCODING 3455
SWIDTH 916 0
DWIDTH 11 0
BBX 11 9 1 0
BITMAP
01C0
0020
0E60
11C0
1180
7FC0
9120
9120
6EC0
ENDCHAR
STARTCHAR 10A0
ENCODING 4256
SWIDTH 583 0
DWIDTH 7 0
BBX 5 9 1 0
BITMAP
40
40
20
10
08
88
88
98
70
ENDCHAR
STARTCHAR 10A1
ENCODING 4257
SWIDTH 583 0
DWIDTH 7 0
BBX 6 8 1 0
BITMAP
70
10
10
78
84
84
84
78
ENDCHAR
STARTCHAR 10A2
ENCODING 4258
SWIDTH 666 0
DWIDTH 8 0
BBX 6 9 1 0
BITMAP
60
90
10
78
84
84
84
CC
78
ENDCHAR
STARTCHAR 10A3
ENCODING 4259
SWIDTH 833 0
DWIDTH 10 0
BBX 8 8 1 1
BITMAP
6E
91
91
91
8E
40
F8
06
ENDCHAR
STARTCHAR 10A4
ENCODING 4260
SWIDTH 583 0
DWIDTH 7 0
BBX 5 9 1 0
BITMAP
70
88
88
08
08
88
88
88
70
ENDCHAR
STARTCHAR 10A5
ENCODING 4261
SWIDTH 583 0
DWIDTH 7 0
BBX 5 9 1 0
BITMAP
70
88
08
10
08
88
88
88
70
ENDCHAR
STARTCHAR 10A6
ENCODING 4262
SWIDTH 833 0
DWIDTH 10 0
BBX 8 9 1 0
BITMAP
60
90
90
60
3E
31
21
31
1E
ENDCHAR
STARTCHAR 10A7
ENCODING 4263
SWIDTH 916 0
DWIDTH 11 0
BBX 9 9 1 0
BITMAP
7700
8880
8880
8880
8880
8880
8880
8880
7100
ENDCHAR
STARTCHAR 10A8
ENCODING 4264
SWIDTH 583 0
DWIDTH 7 0
BBX 6 9 1 0
BITMAP
30
48
84
84
84
84
84
48
48
ENDCHAR
STARTCHAR 10A9
ENCODING 4265
SWIDTH 583 0
DWIDTH 7 0
BBX 5 9 1 0
BITMAP
10
08
08
10
08
88
88
88
70
ENDCHAR
STARTCHAR 10AA
ENCODING 4266
SWIDTH 916 0
DWIDTH 11 0
BBX 10 9 1 -1
BITMAP
6D80
9240
9240
9240
8000
4000
FC00
0200
0100
ENDCHAR
STARTCHAR 10AB
ENCODING 4267
SWIDTH 583 0
DWIDTH 7 0
BBX 5 9 1 0
BITMAP
70
88
08
08
78
88
88
88
70
ENDCHAR
STARTCHAR 10AC
ENCODING 4268
SWIDTH 583 0
DWIDTH 7 0
BBX 6 9 1 0
BITMAP
FC
80
80
80
B8
CC
84
84
78
ENDCHAR
STARTCHAR 10AD
ENCODING 4269
SWIDTH 750 0
DWIDTH 9 0
BBX 8 9 1 0
BITMAP
6E
91
91
91
91
81
81
81
83
ENDCHAR
STARTCHAR 10AE
ENCODING 4270
SWIDTH 583 0
DWIDTH 7 0
BBX 5 9 1 1
BITMAP
40
30
08
08
10
08
88
88
70
ENDCHAR
STARTCHAR 10AF
ENCODING 4271
SWIDTH 583 0
DWIDTH 7 0
BBX 7 9 0 1
BITMAP
06
1A
92
F2
02
42
42
46
3C
ENDCHAR
STARTCHAR 10B0
ENCODING 4272
SWIDTH 833 0
DWIDTH 10 0
BBX 8 8 1 0
BITMAP
0C
30
40
EE
91
91
81
03
ENDCHAR
STARTCHAR 10B1
ENCODING 4273
SWIDTH 583 0
DWIDTH 7 0
BBX 6 8 1 0
BITMAP
80
80
80
88
84
84
8C
78
ENDCHAR
STARTCHAR 10B2
ENCODING 4274
SWIDTH 750 0
DWIDTH 9 0
BBX 8 9 1 0
BITMAP
3C
24
1E
A7
A5
99
81
42
3C
ENDCHAR
STARTCHAR 10B3
ENCODING 4275
SWIDTH 750 0
DWIDTH 9 0
BBX 8 9 0 0
BITMAP
97
E9
09
01
01
21
21
31
1E
ENDCHAR
STARTCHAR 10B4
ENCODING 4276
SWIDTH 833 0
DWIDTH 10 0
BBX 8 9 1 0
BITMAP
76
89
89
89
72
01
21
21
1E
ENDCHAR
STARTCHAR 10B5
ENCODING 4277
SWIDTH 583 0
DWIDTH 7 0
BBX 5 8 1 1
BITMAP
08
38
48
08
88
88
C8
70
ENDCHAR
STARTCHAR 10B6
ENCODING 4278
SWIDTH 833 0
DWIDTH 10 0
BBX 8 8 1 1
BITMAP
6E
91
91
91
82
40
F8
06
ENDCHAR
STARTCHAR 10B7
ENCODING 4279
SWIDTH 583 0
DWIDTH 7 0
BBX 5 9 1 0
BITMAP
48
48
48
38
08
88
88
C8
70
ENDCHAR
STARTCHAR 10B8
ENCODING 4280
SWIDTH 666 0
DWIDTH 8 0
BBX 7 9 0 0
BITMAP
6C
92
02
02
3E
42
42
42
3C
ENDCHAR
STARTCHAR 10B9
ENCODING 4281
SWIDTH 583 0
DWIDTH 7 0
BBX 5 9 1 -1
BITMAP
70
90
F0
80
F0
88
88
88
90
ENDCHAR
STARTCHAR 10BA
ENCODING 4282
SWIDTH 750 0
DWIDTH 9 0
BBX 7 9 1 0
BITMAP
08
44
82
82
8C
82
82
46
3C
ENDCHAR
STARTCHAR 10BB
ENCODING 4283
SWIDTH 583 0
DWIDTH 7 0
BBX 5 8 1 1
BITMAP
08
08
08
78
88
88
88
70
ENDCHAR
STARTCHAR 10BC
ENCODING 4284
SWIDTH 666 0
DWIDTH 8 0
BBX 7 9 1 0
BITMAP
6C
92
80
80
F8
84
84
84
78
ENDCHAR
STARTCHAR 10BD
ENCODING 4285
SWIDTH 666 0
DWIDTH 8 0
BBX 6 9 1 0
BITMAP
08
38
48
4C
3C
88
88
88
70
ENDCHAR
STARTCHAR 10BE
ENCODING 4286
SWIDTH 583 0
DWIDTH 7 0
BBX 5 9 1 1
BITMAP
80
80
80
F0
88
88
88
88
70
ENDCHAR
STARTCHAR 10BF
ENCODING 4287
SWIDTH 916 0
DWIDTH 11 0
BBX 9 9 1 0
BITMAP
6380
9080
9B00
0C00
3400
1480
1280
9380
6000
ENDCHAR
STARTCHAR 10C0
ENCODING 4288
SWIDTH 583 0
DWIDTH 7 0
BBX 5 9 1 0
BITMAP
40
78
08
18
08
10
88
88
70
ENDCHAR
STARTCHAR 10D0
ENCODING 4304
SWIDTH 416 0
DWIDTH 5 0
BBX 5 6 0 0
BITMAP
20
30
08
88
88
70
ENDCHAR
STARTCHAR 10D1
ENCODING 4305
SWIDTH 500 0
DWIDTH 6 0
BBX 6 8 0 0
BITMAP
70
10
10
78
84
84
C4
78
ENDCHAR
STARTCHAR 10D2
ENCODING 4306
SWIDTH 500 0
DWIDTH 6 0
BBX 6 8 0 -3
BITMAP
30
48
48
18
64
84
C4
78
ENDCHAR
STARTCHAR 10D3
ENCODING 4307
SWIDTH 666 0
DWIDTH 8 0
BBX 8 8 0 -3
BITMAP
6E
91
91
91
4E
F8
06
02
ENDCHAR
STARTCHAR 10D4
ENCODING 4308
SWIDTH 416 0
DWIDTH 5 0
BBX 5 8 0 -3
BITMAP
30
48
48
08
48
88
88
70
ENDCHAR
STARTCHAR 10D5
ENCODING 4309
SWIDTH 416 0
DWIDTH 5 0
BBX 5 8 0 -3
BITMAP
70
88
88
10
08
88
88
70
ENDCHAR
STARTCHAR 10D6
ENCODING 4310
SWIDTH 666 0
DWIDTH 8 0
BBX 7 9 0 0
BITMAP
70
88
88
7C
12
12
12
12
0C
ENDCHAR
STARTCHAR 10D7
ENCODING 4311
SWIDTH 750 0
DWIDTH 9 0
BBX 9 5 0 0
BITMAP
7700
8880
8880
8880
7100
ENDCHAR
STARTCHAR 10D8
ENCODING 4312
SWIDTH 416 0
DWIDTH 5 0
BBX 5 5 0 -1
BITMAP
70
88
88
88
88
ENDCHAR
STARTCHAR 10D9
ENCODING 4313
SWIDTH 416 0
DWIDTH 5 0
BBX 5 8 0 -3
BITMAP
18
08
08
10
08
88
88
70
ENDCHAR
STARTCHAR 10DA
ENCODING 4314
SWIDTH 833 0
DWIDTH 10 0
BBX 10 7 0 -2
BITMAP
6D80
9240
9240
8000
4000
FE00
0180
ENDCHAR
STARTCHAR 10DB
ENCODING 4315
SWIDTH 416 0
DWIDTH 5 0
BBX 4 9 1 0
BITMAP
60
90
90
10
70
90
90
90
60
ENDCHAR
STARTCHAR 10DC
ENCODING 4316
SWIDTH 416 0
DWIDTH 5 0
BBX 5 9 0 0
BITMAP
78
80
80
F0
C8
88
88
C8
70
ENDCHAR
STARTCHAR 10DD
ENCODING 4317
SWIDTH 666 0
DWIDTH 8 0
BBX 8 4 0 -1
BITMAP
76
89
89
81
ENDCHAR
STARTCHAR 10DE
ENCODING 4318
SWIDTH 416 0
DWIDTH 5 0
BBX 5 9 0 1
BITMAP
40
30
08
08
30
08
88
88
70
ENDCHAR
STARTCHAR 10DF
ENCODING 4319
SWIDTH 500 0
DWIDTH 6 0
BBX 6 8 0 -2
BITMAP
3C
94
94
74
04
44
44
38
ENDCHAR
STARTCHAR 10E0
ENCODING 4320
SWIDTH 666 0
DWIDTH 8 0
BBX 8 8 0 0
BITMAP
02
0C
30
76
89
89
81
02
ENDCHAR
STARTCHAR 10E1
ENCODING 4321
SWIDTH 500 0
DWIDTH 6 0
BBX 5 8 0 0
BITMAP
80
80
80
90
88
88
88
70
ENDCHAR
STARTCHAR 10E2
ENCODING 4322
SWIDTH 750 0
DWIDTH 9 0
BBX 8 11 0 -3
BITMAP
1C
14
14
0C
56
95
89
81
81
42
3C
ENDCHAR
STARTCHAR 10E3
ENCODING 4323
SWIDTH 583 0
DWIDTH 7 0
BBX 7 8 0 -3
BITMAP
96
EA
0A
02
22
22
22
1C
ENDCHAR
STARTCHAR 10E4
ENCODING 4324
SWIDTH 666 0
DWIDTH 8 0
BBX 8 8 0 -3
BITMAP
76
89
89
72
01
11
11
0E
ENDCHAR
STARTCHAR 10E5
ENCODING 4325
SWIDTH 416 0
DWIDTH 5 0
BBX 5 12 0 -3
BITMAP
08
08
08
08
38
48
08
08
48
88
88
70
ENDCHAR
STARTCHAR 10E6
ENCODING 4326
SWIDTH 666 0
DWIDTH 8 0
BBX 8 8 0 -3
BITMAP
76
89
89
80
40
FC
06
02
ENDCHAR
STARTCHAR 10E7
ENCODING 4327
SWIDTH 416 0
DWIDTH 5 0
BBX 4 8 1 -2
BITMAP
90
90
90
70
10
90
90
60
ENDCHAR
STARTCHAR 10E8
ENCODING 4328
SWIDTH 500 0
DWIDTH 6 0
BBX 5 9 1 0
BITMAP
B8
48
48
68
98
88
88
98
70
ENDCHAR
STARTCHAR 10E9
ENCODING 4329
SWIDTH 416 0
DWIDTH 5 0
BBX 5 9 0 -1
BITMAP
70
90
E0
80
F0
88
88
88
90
ENDCHAR
STARTCHAR 10EA
ENCODING 4330
SWIDTH 666 0
DWIDTH 8 0
BBX 7 9 0 -3
BITMAP
08
48
46
82
8C
82
82
42
3C
ENDCHAR
STARTCHAR 10EB
ENCODING 4331
SWIDTH 416 0
DWIDTH 5 0
BBX 5 8 0 1
BITMAP
08
08
08
78
88
88
88
70
ENDCHAR
STARTCHAR 10EC
ENCODING 4332
SWIDTH 500 0
DWIDTH 6 0
BBX 5 9 0 0
BITMAP
E8
90
90
F0
C8
88
88
C8
70
ENDCHAR
STARTCHAR 10ED
ENCODING 4333
SWIDTH 500 0
DWIDTH 6 0
BBX 6 11 0 -2
BITMAP
08
08
08
78
48
7C
08
48
88
88
70
ENDCHAR
STARTCHAR 10EE
ENCODING 4334
SWIDTH 416 0
DWIDTH 5 0
BBX 5 8 0 1
BITMAP
80
80
A0
F0
88
88
88
70
ENDCHAR
STARTCHAR 10EF
ENCODING 4335
SWIDTH 666 0
DWIDTH 8 0
BBX 8 8 0 -3
BITMAP
66
92
D4
08
3A
19
16
E0
ENDCHAR
STARTCHAR 10F0
ENCODING 4336
SWIDTH 500 0
DWIDTH 6 0
BBX 5 9 0 0
BITMAP
40
38
08
10
08
10
88
88
70
ENDCHAR
STARTCHAR 10F1
ENCODING 4337
SWIDTH 666 0
DWIDTH 8 0
BBX 6 9 1 1
BITMAP
68
A4
AC
C4
84
8C
84
44
38
ENDCHAR
STARTCHAR 10F2
ENCODING 4338
SWIDTH 416 0
DWIDTH 5 0
BBX 7 5 -1 0
BITMAP
38
44
44
38
CE
ENDCHAR
STARTCHAR 10F3
ENCODING 4339
SWIDTH 416 0
DWIDTH 5 0
BBX 5 8 0 -3
BITMAP
70
10
20
30
08
88
88
70
ENDCHAR
STARTCHAR 10F4
ENCODING 4340
SWIDTH 416 0
DWIDTH 5 0
BBX 4 12 1 -3
BITMAP
60
A0
A0
80
60
10
10
60
30
90
90
E0
ENDCHAR
STARTCHAR 10F5
ENCODING 4341
SWIDTH 416 0
DWIDTH 5 0
BBX 6 9 0 0
BITMAP
70
88
88
7C
08
7C
88
88
70
ENDCHAR
STARTCHAR 10F9
ENCODING 4345
SWIDTH 500 0
DWIDTH 6 0
BBX 6 8 0 -3
BITMAP
78
8C
84
88
70
48
48
30
ENDCHAR
STARTCHAR 10FB
ENCODING 4347
SWIDTH 500 0
DWIDTH 6 0
BBX 4 7 1 0
BITMAP
80
00
00
10
00
00
80
ENDCHAR
STARTCHAR 10FC
ENCODING 4348
SWIDTH 416 0
DWIDTH 5 0
BBX 4 7 1 3
BITMAP
60
80
80
E0
90
90
60
ENDCHAR
STARTCHAR 13A0
ENCODING 5024
SWIDTH 666 0
DWIDTH 8 0
BBX 6 9 1 0
BITMAP
F8
88
84
84
84
84
84
88
F8
ENDCHAR
STARTCHAR 13A1
ENCODING 5025
SWIDTH 750 0
DWIDTH 9 0
BBX 7 9 1 0
BITMAP
F8
84
84
84
F8
98
88
88
86
ENDCHAR
STARTCHAR 13A2
ENCODING 5026
SWIDTH 583 0
DWIDTH 7 0
BBX 6 9 0 0
BITMAP
FC
10
10
10
10
10
10
10
10
ENDCHAR
STARTCHAR 13A3
ENCODING 5027
SWIDTH 750 0
DWIDTH 9 0
BBX 9 9 0 0
BITMAP
1C00
0800
0C00
1300
6080
9080
9080
9980
6700
ENDCHAR
STARTCHAR 13A4
ENCODING 5028
SWIDTH 1000 0
DWIDTH 12 0
BBX 11 9 0 0
BITMAP
3E00
6360
C120
80A0
80E0
8080
8080
4100
3E00
ENDCHAR
STARTCHAR 13A5
ENCODING 5029
SWIDTH 166 0
DWIDTH 2 0
BBX 1 9 1 0
BITMAP
80
00
80
80
80
80
80
80
80
ENDCHAR
STARTCHAR 13A6
ENCODING 5030
SWIDTH 666 0
DWIDTH 8 0
BBX 7 9 0 0
BITMAP
3C
44
40
20
FE
04
02
42
3C
ENDCHAR
STARTCHAR 13A7
ENCODING 5031
SWIDTH 833 0
DWIDTH 10 0
BBX 9 9 0 0
BITMAP
6200
9100
9080
9080
B080
E080
4180
6300
3E00
ENDCHAR
STARTCHAR 13A8
ENCODING 5032
SWIDTH 500 0
DWIDTH 6 0
BBX 5 9 1 0
BITMAP
80
80
C8
F0
80
80
80
80
80
ENDCHAR
STARTCHAR 13A9
ENCODING 5033
SWIDTH 666 0
DWIDTH 8 0
BBX 7 9 0 0
BITMAP
C2
46
64
2C
38
18
90
B0
E0
ENDCHAR
STARTCHAR 13AA
ENCODING 5034
SWIDTH 666 0
DWIDTH 8 0
BBX 7 9 0 0
BITMAP
10
28
28
28
44
7C
46
82
82
ENDCHAR
STARTCHAR 13AB
ENCODING 5035
SWIDTH 416 0
DWIDTH 5 0
BBX 5 9 0 0
BITMAP
08
08
08
08
08
08
88
88
70
ENDCHAR
STARTCHAR 13AC
ENCODING 5036
SWIDTH 666 0
DWIDTH 8 0
BBX 6 9 1 0
BITMAP
FC
80
80
80
F8
80
80
80
FC
ENDCHAR
STARTCHAR 13AD
ENCODING 5037
SWIDTH 750 0
DWIDTH 9 0
BBX 8 9 0 0
BITMAP
08
08
68
9F
A9
6A
0A
0C
08
ENDCHAR
STARTCHAR 13AE
ENCODING 5038
SWIDTH 500 0
DWIDTH 6 0
BBX 6 9 0 0
BITMAP
78
8C
04
04
04
48
70
40
40
ENDCHAR
STARTCHAR 13AF
ENCODING 5039
SWIDTH 750 0
DWIDTH 9 0
BBX 8 9 0 0
BITMAP
0E
13
11
11
3F
21
21
AA
EE
ENDCHAR
STARTCHAR 13B0
ENCODING 5040
SWIDTH 500 0
DWIDTH 6 0
BBX 5 9 1 0
BITMAP
80
80
80
80
F8
80
80
80
80
ENDCHAR
STARTCHAR 13B1
ENCODING 5041
SWIDTH 583 0
DWIDTH 7 0
BBX 5 9 1 0
BITMAP
F8
80
80
80
80
80
80
80
80
ENDCHAR
STARTCHAR 13B2
ENCODING 5042
SWIDTH 833 0
DWIDTH 10 0
BBX 10 9 0 0
BITMAP
1800
2400
2400
2400
2400
2400
E5C0
9880
7F00
ENDCHAR
STARTCHAR 13B3
ENCODING 5043
SWIDTH 1000 0
DWIDTH 12 0
BBX 11 9 0 0
BITMAP
8420
CC60
4A40
4A40
4A40
53C0
3180
3180
3180
ENDCHAR
STARTCHAR 13B4
ENCODING 5044
SWIDTH 583 0
DWIDTH 7 0
BBX 7 9 0 0
BITMAP
1C
12
10
78
CC
84
84
C4
78
ENDCHAR
STARTCHAR 13B5
ENCODING 5045
SWIDTH 583 0
DWIDTH 7 0
BBX 5 9 1 0
BITMAP
70
88
88
88
90
80
80
80
80
ENDCHAR
STARTCHAR 13B6
ENCODING 5046
SWIDTH 666 0
DWIDTH 8 0
BBX 8 9 0 0
BITMAP
3E
41
C0
88
8E
89
81
43
3E
ENDCHAR
STARTCHAR 13B7
ENCODING 5047
SWIDTH 833 0
DWIDTH 10 0
BBX 8 9 1 0
BITMAP
C3
C3
C3
A5
A5
A5
99
99
99
ENDCHAR
STARTCHAR 13B8
ENCODING 5048
SWIDTH 583 0
DWIDTH 7 0
BBX 6 9 0 0
BITMAP
78
8C
04
04
04
E4
3C
04
04
ENDCHAR
STARTCHAR 13B9
ENCODING 5049
SWIDTH 916 0
DWIDTH 11 0
BBX 10 9 0 0
BITMAP
1C00
0D80
1E40
F800
AC00
4400
4400
4400
3800
ENDCHAR
STARTCHAR 13BA
ENCODING 5050
SWIDTH 1000 0
DWIDTH 12 0
BBX 11 9 0 0
BITMAP
3C20
4220
8120
8120
81E0
8120
8120
4220
3C20
ENDCHAR
STARTCHAR 13BB
ENCODING 5051
SWIDTH 666 0
DWIDTH 8 0
BBX 6 9 1 0
BITMAP
84
84
84
84
FC
84
84
84
84
ENDCHAR
STARTCHAR 13BC
ENCODING 5052
SWIDTH 500 0
DWIDTH 6 0
BBX 6 9 0 0
BITMAP
70
20
20
D8
04
04
04
8C
78
ENDCHAR
STARTCHAR 13BD
ENCODING 5053
SWIDTH 750 0
DWIDTH 9 0
BBX 8 9 0 0
BITMAP
61
23
32
16
1C
0C
E8
58
70
ENDCHAR
STARTCHAR 13BE
ENCODING 5054
SWIDTH 750 0
DWIDTH 9 0
BBX 9 9 0 0
BITMAP
3E00
4100
8080
8080
FF80
8080
C180
6300
3E00
ENDCHAR
STARTCHAR 13BF
ENCODING 5055
SWIDTH 583 0
DWIDTH 7 0
BBX 6 11 0 -2
BITMAP
40
40
F0
40
40
40
40
44
3C
04
1C
ENDCHAR
STARTCHAR 13C0
ENCODING 5056
SWIDTH 750 0
DWIDTH 9 0
BBX 8 9 0 0
BITMAP
3E
41
80
80
87
81
C1
63
3D
ENDCHAR
STARTCHAR 13C1
ENCODING 5057
SWIDTH 833 0
DWIDTH 10 0
BBX 9 9 0 0
BITMAP
0C00
1200
1200
1200
1100
2100
2100
A080
E080
ENDCHAR
STARTCHAR 13C2
ENCODING 5058
SWIDTH 583 0
DWIDTH 7 0
BBX 5 9 1 0
BITMAP
80
80
80
F0
88
88
88
88
88
ENDCHAR
STARTCHAR 13C3
ENCODING 5059
SWIDTH 666 0
DWIDTH 8 0
BBX 7 9 0 0
BITMAP
7E
04
0C
08
10
20
60
40
FE
ENDCHAR
STARTCHAR 13C4
ENCODING 5060
SWIDTH 583 0
DWIDTH 7 0
BBX 6 9 0 0
BITMAP
78
4C
C4
04
C4
44
7C
04
04
ENDCHAR
STARTCHAR 13C5
ENCODING 5061
SWIDTH 1083 0
DWIDTH 13 0
BBX 12 9 0 0
BITMAP
3E00
6300
C1D0
80F0
8080
8080
8080
4100
3E00
ENDCHAR
STARTCHAR 13C6
ENCODING 5062
SWIDTH 666 0
DWIDTH 8 0
BBX 7 9 0 0
BITMAP
FE
10
10
10
10
10
10
10
FE
ENDCHAR
STARTCHAR 13C7
ENCODING 5063
SWIDTH 833 0
DWIDTH 10 0
BBX 9 9 0 0
BITMAP
0E00
1100
0080
0080
4880
8880
8880
8980
7F00
ENDCHAR
STARTCHAR 13C8
ENCODING 5064
SWIDTH 750 0
DWIDTH 9 0
BBX 8 9 0 0
BITMAP
6E
91
A9
29
2B
28
28
28
10
ENDCHAR
STARTCHAR 13C9
ENCODING 5065
SWIDTH 1166 0
DWIDTH 14 0
BBX 14 9 0 0
BITMAP
105C
98E4
6888
0880
0480
0500
0500
0300
0200
ENDCHAR
STARTCHAR 13CA
ENCODING 5066
SWIDTH 833 0
DWIDTH 10 0
BBX 9 9 0 0
BITMAP
0E00
1100
0080
0080
4C80
8880
8880
8980
7F00
ENDCHAR
ENDFONT
